<svg width="62" height="62" viewBox="0 0 62 62" fill="none" xmlns="http://www.w3.org/2000/svg">
<mask id="path-1-outside-1_1814_286" maskUnits="userSpaceOnUse" x="0.222656" y="0" width="61" height="62" fill="black">
<rect fill="white" x="0.222656" width="61" height="62"/>
<path d="M1.22266 31C1.22266 14.4315 14.4303 1 30.7227 1C47.0151 1 60.2227 14.4315 60.2227 31C60.2227 47.5685 47.0151 61 30.7227 61C14.4303 61 1.22266 47.5685 1.22266 31Z"/>
<path d="M9.34797 32.704H7.27117V35.5H6.36257V27.196H9.34797C10.2369 27.196 10.8938 27.416 11.3186 27.856C11.7434 28.296 11.9558 28.968 11.9558 29.872C11.9558 31.76 11.0865 32.704 9.34797 32.704ZM7.27117 31.888H9.33617C10.4611 31.888 11.0236 31.216 11.0236 29.872C11.0236 29.232 10.8898 28.764 10.6224 28.468C10.3549 28.164 9.92617 28.012 9.33617 28.012H7.27117V31.888Z"/>
<path d="M13.2039 35.5V29.5H14.0771V30.316C14.7615 29.836 15.4813 29.52 16.2365 29.368V30.28C15.9061 30.344 15.56 30.444 15.1981 30.58C14.8441 30.716 14.5727 30.836 14.3839 30.94L14.0889 31.096V35.5H13.2039Z"/>
<path d="M16.9084 32.488C16.9084 31.392 17.1011 30.6 17.4866 30.112C17.872 29.624 18.521 29.38 19.4336 29.38C20.354 29.38 21.003 29.624 21.3806 30.112C21.766 30.6 21.9588 31.392 21.9588 32.488C21.9588 33.584 21.7778 34.38 21.416 34.876C21.0541 35.372 20.3933 35.62 19.4336 35.62C18.4738 35.62 17.813 35.372 17.4512 34.876C17.0893 34.38 16.9084 33.584 16.9084 32.488ZM17.817 32.476C17.817 33.348 17.9192 33.96 18.1238 34.312C18.3362 34.664 18.7728 34.84 19.4336 34.84C20.1022 34.84 20.5388 34.668 20.7434 34.324C20.9479 33.972 21.0502 33.356 21.0502 32.476C21.0502 31.596 20.9361 30.992 20.708 30.664C20.4798 30.328 20.055 30.16 19.4336 30.16C18.82 30.16 18.3952 30.328 18.1592 30.664C17.931 30.992 17.817 31.596 17.817 32.476Z"/>
<path d="M26.4122 30.28H24.536V33.148C24.536 33.836 24.5832 34.288 24.6776 34.504C24.7799 34.72 25.0159 34.828 25.3856 34.828L26.4358 34.756L26.4948 35.5C25.9678 35.588 25.5666 35.632 25.2912 35.632C24.6776 35.632 24.2528 35.48 24.0168 35.176C23.7808 34.872 23.6628 34.292 23.6628 33.436V30.28H22.825V29.5H23.6628V27.664H24.536V29.5H26.4122V30.28Z"/>
<path d="M27.2334 32.488C27.2334 31.392 27.4261 30.6 27.8116 30.112C28.197 29.624 28.846 29.38 29.7586 29.38C30.679 29.38 31.328 29.624 31.7056 30.112C32.091 30.6 32.2838 31.392 32.2838 32.488C32.2838 33.584 32.1028 34.38 31.741 34.876C31.3791 35.372 30.7183 35.62 29.7586 35.62C28.7988 35.62 28.138 35.372 27.7762 34.876C27.4143 34.38 27.2334 33.584 27.2334 32.488ZM28.142 32.476C28.142 33.348 28.2442 33.96 28.4488 34.312C28.6612 34.664 29.0978 34.84 29.7586 34.84C30.4272 34.84 30.8638 34.668 31.0684 34.324C31.2729 33.972 31.3752 33.356 31.3752 32.476C31.3752 31.596 31.2611 30.992 31.033 30.664C30.8048 30.328 30.38 30.16 29.7586 30.16C29.145 30.16 28.7202 30.328 28.4842 30.664C28.256 30.992 28.142 31.596 28.142 32.476Z"/>
<path d="M35.9337 29.38C36.1933 29.38 36.6339 29.428 37.2553 29.524L37.5385 29.56L37.5031 30.292C36.8738 30.22 36.4097 30.184 36.1107 30.184C35.4421 30.184 34.9858 30.348 34.7419 30.676C34.5059 30.996 34.3879 31.596 34.3879 32.476C34.3879 33.348 34.4981 33.956 34.7183 34.3C34.9465 34.644 35.4145 34.816 36.1225 34.816L37.5149 34.708L37.5503 35.452C36.8187 35.564 36.272 35.62 35.9101 35.62C34.9897 35.62 34.3525 35.38 33.9985 34.9C33.6524 34.42 33.4793 33.612 33.4793 32.476C33.4793 31.332 33.6681 30.532 34.0457 30.076C34.4233 29.612 35.0527 29.38 35.9337 29.38Z"/>
<path d="M38.5379 32.488C38.5379 31.392 38.7306 30.6 39.1161 30.112C39.5015 29.624 40.1505 29.38 41.0631 29.38C41.9835 29.38 42.6325 29.624 43.0101 30.112C43.3955 30.6 43.5883 31.392 43.5883 32.488C43.5883 33.584 43.4073 34.38 43.0455 34.876C42.6836 35.372 42.0228 35.62 41.0631 35.62C40.1033 35.62 39.4425 35.372 39.0807 34.876C38.7188 34.38 38.5379 33.584 38.5379 32.488ZM39.4465 32.476C39.4465 33.348 39.5487 33.96 39.7533 34.312C39.9657 34.664 40.4023 34.84 41.0631 34.84C41.7317 34.84 42.1683 34.668 42.3729 34.324C42.5774 33.972 42.6797 33.356 42.6797 32.476C42.6797 31.596 42.5656 30.992 42.3375 30.664C42.1093 30.328 41.6845 30.16 41.0631 30.16C40.4495 30.16 40.0247 30.328 39.7887 30.664C39.5605 30.992 39.4465 31.596 39.4465 32.476Z"/>
<path d="M45.1024 35.5V26.884H45.9874V35.5H45.1024Z"/>
<path d="M50.7567 27.196L52.8217 30.748L54.8985 27.196H55.8779L53.3645 31.408L55.8779 35.5H54.8513L52.7981 32.056L50.7095 35.5H49.7301L52.2553 31.432L49.7301 27.196H50.7567Z"/>
</mask>
<path d="M1.22266 31C1.22266 14.4315 14.4303 1 30.7227 1C47.0151 1 60.2227 14.4315 60.2227 31C60.2227 47.5685 47.0151 61 30.7227 61C14.4303 61 1.22266 47.5685 1.22266 31Z" fill="white"/>
<path d="M9.34797 32.704H7.27117V35.5H6.36257V27.196H9.34797C10.2369 27.196 10.8938 27.416 11.3186 27.856C11.7434 28.296 11.9558 28.968 11.9558 29.872C11.9558 31.76 11.0865 32.704 9.34797 32.704ZM7.27117 31.888H9.33617C10.4611 31.888 11.0236 31.216 11.0236 29.872C11.0236 29.232 10.8898 28.764 10.6224 28.468C10.3549 28.164 9.92617 28.012 9.33617 28.012H7.27117V31.888Z" fill="#D28C11"/>
<path d="M13.2039 35.5V29.5H14.0771V30.316C14.7615 29.836 15.4813 29.52 16.2365 29.368V30.28C15.9061 30.344 15.56 30.444 15.1981 30.58C14.8441 30.716 14.5727 30.836 14.3839 30.94L14.0889 31.096V35.5H13.2039Z" fill="#D28C11"/>
<path d="M16.9084 32.488C16.9084 31.392 17.1011 30.6 17.4866 30.112C17.872 29.624 18.521 29.38 19.4336 29.38C20.354 29.38 21.003 29.624 21.3806 30.112C21.766 30.6 21.9588 31.392 21.9588 32.488C21.9588 33.584 21.7778 34.38 21.416 34.876C21.0541 35.372 20.3933 35.62 19.4336 35.62C18.4738 35.62 17.813 35.372 17.4512 34.876C17.0893 34.38 16.9084 33.584 16.9084 32.488ZM17.817 32.476C17.817 33.348 17.9192 33.96 18.1238 34.312C18.3362 34.664 18.7728 34.84 19.4336 34.84C20.1022 34.84 20.5388 34.668 20.7434 34.324C20.9479 33.972 21.0502 33.356 21.0502 32.476C21.0502 31.596 20.9361 30.992 20.708 30.664C20.4798 30.328 20.055 30.16 19.4336 30.16C18.82 30.16 18.3952 30.328 18.1592 30.664C17.931 30.992 17.817 31.596 17.817 32.476Z" fill="#D28C11"/>
<path d="M26.4122 30.28H24.536V33.148C24.536 33.836 24.5832 34.288 24.6776 34.504C24.7799 34.72 25.0159 34.828 25.3856 34.828L26.4358 34.756L26.4948 35.5C25.9678 35.588 25.5666 35.632 25.2912 35.632C24.6776 35.632 24.2528 35.48 24.0168 35.176C23.7808 34.872 23.6628 34.292 23.6628 33.436V30.28H22.825V29.5H23.6628V27.664H24.536V29.5H26.4122V30.28Z" fill="#D28C11"/>
<path d="M27.2334 32.488C27.2334 31.392 27.4261 30.6 27.8116 30.112C28.197 29.624 28.846 29.38 29.7586 29.38C30.679 29.38 31.328 29.624 31.7056 30.112C32.091 30.6 32.2838 31.392 32.2838 32.488C32.2838 33.584 32.1028 34.38 31.741 34.876C31.3791 35.372 30.7183 35.62 29.7586 35.62C28.7988 35.62 28.138 35.372 27.7762 34.876C27.4143 34.38 27.2334 33.584 27.2334 32.488ZM28.142 32.476C28.142 33.348 28.2442 33.96 28.4488 34.312C28.6612 34.664 29.0978 34.84 29.7586 34.84C30.4272 34.84 30.8638 34.668 31.0684 34.324C31.2729 33.972 31.3752 33.356 31.3752 32.476C31.3752 31.596 31.2611 30.992 31.033 30.664C30.8048 30.328 30.38 30.16 29.7586 30.16C29.145 30.16 28.7202 30.328 28.4842 30.664C28.256 30.992 28.142 31.596 28.142 32.476Z" fill="#D28C11"/>
<path d="M35.9337 29.38C36.1933 29.38 36.6339 29.428 37.2553 29.524L37.5385 29.56L37.5031 30.292C36.8738 30.22 36.4097 30.184 36.1107 30.184C35.4421 30.184 34.9858 30.348 34.7419 30.676C34.5059 30.996 34.3879 31.596 34.3879 32.476C34.3879 33.348 34.4981 33.956 34.7183 34.3C34.9465 34.644 35.4145 34.816 36.1225 34.816L37.5149 34.708L37.5503 35.452C36.8187 35.564 36.272 35.62 35.9101 35.62C34.9897 35.62 34.3525 35.38 33.9985 34.9C33.6524 34.42 33.4793 33.612 33.4793 32.476C33.4793 31.332 33.6681 30.532 34.0457 30.076C34.4233 29.612 35.0527 29.38 35.9337 29.38Z" fill="#D28C11"/>
<path d="M38.5379 32.488C38.5379 31.392 38.7306 30.6 39.1161 30.112C39.5015 29.624 40.1505 29.38 41.0631 29.38C41.9835 29.38 42.6325 29.624 43.0101 30.112C43.3955 30.6 43.5883 31.392 43.5883 32.488C43.5883 33.584 43.4073 34.38 43.0455 34.876C42.6836 35.372 42.0228 35.62 41.0631 35.62C40.1033 35.62 39.4425 35.372 39.0807 34.876C38.7188 34.38 38.5379 33.584 38.5379 32.488ZM39.4465 32.476C39.4465 33.348 39.5487 33.96 39.7533 34.312C39.9657 34.664 40.4023 34.84 41.0631 34.84C41.7317 34.84 42.1683 34.668 42.3729 34.324C42.5774 33.972 42.6797 33.356 42.6797 32.476C42.6797 31.596 42.5656 30.992 42.3375 30.664C42.1093 30.328 41.6845 30.16 41.0631 30.16C40.4495 30.16 40.0247 30.328 39.7887 30.664C39.5605 30.992 39.4465 31.596 39.4465 32.476Z" fill="#D28C11"/>
<path d="M45.1024 35.5V26.884H45.9874V35.5H45.1024Z" fill="#D28C11"/>
<path d="M50.7567 27.196L52.8217 30.748L54.8985 27.196H55.8779L53.3645 31.408L55.8779 35.5H54.8513L52.7981 32.056L50.7095 35.5H49.7301L52.2553 31.432L49.7301 27.196H50.7567Z" fill="#D28C11"/>
<path d="M1.22266 31C1.22266 14.4315 14.4303 1 30.7227 1C47.0151 1 60.2227 14.4315 60.2227 31C60.2227 47.5685 47.0151 61 30.7227 61C14.4303 61 1.22266 47.5685 1.22266 31Z" stroke="#D28C11" stroke-width="2" mask="url(#path-1-outside-1_1814_286)"/>
<path d="M9.34797 32.704H7.27117V35.5H6.36257V27.196H9.34797C10.2369 27.196 10.8938 27.416 11.3186 27.856C11.7434 28.296 11.9558 28.968 11.9558 29.872C11.9558 31.76 11.0865 32.704 9.34797 32.704ZM7.27117 31.888H9.33617C10.4611 31.888 11.0236 31.216 11.0236 29.872C11.0236 29.232 10.8898 28.764 10.6224 28.468C10.3549 28.164 9.92617 28.012 9.33617 28.012H7.27117V31.888Z" stroke="#D28C11" stroke-width="2" mask="url(#path-1-outside-1_1814_286)"/>
<path d="M13.2039 35.5V29.5H14.0771V30.316C14.7615 29.836 15.4813 29.52 16.2365 29.368V30.28C15.9061 30.344 15.56 30.444 15.1981 30.58C14.8441 30.716 14.5727 30.836 14.3839 30.94L14.0889 31.096V35.5H13.2039Z" stroke="#D28C11" stroke-width="2" mask="url(#path-1-outside-1_1814_286)"/>
<path d="M16.9084 32.488C16.9084 31.392 17.1011 30.6 17.4866 30.112C17.872 29.624 18.521 29.38 19.4336 29.38C20.354 29.38 21.003 29.624 21.3806 30.112C21.766 30.6 21.9588 31.392 21.9588 32.488C21.9588 33.584 21.7778 34.38 21.416 34.876C21.0541 35.372 20.3933 35.62 19.4336 35.62C18.4738 35.62 17.813 35.372 17.4512 34.876C17.0893 34.38 16.9084 33.584 16.9084 32.488ZM17.817 32.476C17.817 33.348 17.9192 33.96 18.1238 34.312C18.3362 34.664 18.7728 34.84 19.4336 34.84C20.1022 34.84 20.5388 34.668 20.7434 34.324C20.9479 33.972 21.0502 33.356 21.0502 32.476C21.0502 31.596 20.9361 30.992 20.708 30.664C20.4798 30.328 20.055 30.16 19.4336 30.16C18.82 30.16 18.3952 30.328 18.1592 30.664C17.931 30.992 17.817 31.596 17.817 32.476Z" stroke="#D28C11" stroke-width="2" mask="url(#path-1-outside-1_1814_286)"/>
<path d="M26.4122 30.28H24.536V33.148C24.536 33.836 24.5832 34.288 24.6776 34.504C24.7799 34.72 25.0159 34.828 25.3856 34.828L26.4358 34.756L26.4948 35.5C25.9678 35.588 25.5666 35.632 25.2912 35.632C24.6776 35.632 24.2528 35.48 24.0168 35.176C23.7808 34.872 23.6628 34.292 23.6628 33.436V30.28H22.825V29.5H23.6628V27.664H24.536V29.5H26.4122V30.28Z" stroke="#D28C11" stroke-width="2" mask="url(#path-1-outside-1_1814_286)"/>
<path d="M27.2334 32.488C27.2334 31.392 27.4261 30.6 27.8116 30.112C28.197 29.624 28.846 29.38 29.7586 29.38C30.679 29.38 31.328 29.624 31.7056 30.112C32.091 30.6 32.2838 31.392 32.2838 32.488C32.2838 33.584 32.1028 34.38 31.741 34.876C31.3791 35.372 30.7183 35.62 29.7586 35.62C28.7988 35.62 28.138 35.372 27.7762 34.876C27.4143 34.38 27.2334 33.584 27.2334 32.488ZM28.142 32.476C28.142 33.348 28.2442 33.96 28.4488 34.312C28.6612 34.664 29.0978 34.84 29.7586 34.84C30.4272 34.84 30.8638 34.668 31.0684 34.324C31.2729 33.972 31.3752 33.356 31.3752 32.476C31.3752 31.596 31.2611 30.992 31.033 30.664C30.8048 30.328 30.38 30.16 29.7586 30.16C29.145 30.16 28.7202 30.328 28.4842 30.664C28.256 30.992 28.142 31.596 28.142 32.476Z" stroke="#D28C11" stroke-width="2" mask="url(#path-1-outside-1_1814_286)"/>
<path d="M35.9337 29.38C36.1933 29.38 36.6339 29.428 37.2553 29.524L37.5385 29.56L37.5031 30.292C36.8738 30.22 36.4097 30.184 36.1107 30.184C35.4421 30.184 34.9858 30.348 34.7419 30.676C34.5059 30.996 34.3879 31.596 34.3879 32.476C34.3879 33.348 34.4981 33.956 34.7183 34.3C34.9465 34.644 35.4145 34.816 36.1225 34.816L37.5149 34.708L37.5503 35.452C36.8187 35.564 36.272 35.62 35.9101 35.62C34.9897 35.62 34.3525 35.38 33.9985 34.9C33.6524 34.42 33.4793 33.612 33.4793 32.476C33.4793 31.332 33.6681 30.532 34.0457 30.076C34.4233 29.612 35.0527 29.38 35.9337 29.38Z" stroke="#D28C11" stroke-width="2" mask="url(#path-1-outside-1_1814_286)"/>
<path d="M38.5379 32.488C38.5379 31.392 38.7306 30.6 39.1161 30.112C39.5015 29.624 40.1505 29.38 41.0631 29.38C41.9835 29.38 42.6325 29.624 43.0101 30.112C43.3955 30.6 43.5883 31.392 43.5883 32.488C43.5883 33.584 43.4073 34.38 43.0455 34.876C42.6836 35.372 42.0228 35.62 41.0631 35.62C40.1033 35.62 39.4425 35.372 39.0807 34.876C38.7188 34.38 38.5379 33.584 38.5379 32.488ZM39.4465 32.476C39.4465 33.348 39.5487 33.96 39.7533 34.312C39.9657 34.664 40.4023 34.84 41.0631 34.84C41.7317 34.84 42.1683 34.668 42.3729 34.324C42.5774 33.972 42.6797 33.356 42.6797 32.476C42.6797 31.596 42.5656 30.992 42.3375 30.664C42.1093 30.328 41.6845 30.16 41.0631 30.16C40.4495 30.16 40.0247 30.328 39.7887 30.664C39.5605 30.992 39.4465 31.596 39.4465 32.476Z" stroke="#D28C11" stroke-width="2" mask="url(#path-1-outside-1_1814_286)"/>
<path d="M45.1024 35.5V26.884H45.9874V35.5H45.1024Z" stroke="#D28C11" stroke-width="2" mask="url(#path-1-outside-1_1814_286)"/>
<path d="M50.7567 27.196L52.8217 30.748L54.8985 27.196H55.8779L53.3645 31.408L55.8779 35.5H54.8513L52.7981 32.056L50.7095 35.5H49.7301L52.2553 31.432L49.7301 27.196H50.7567Z" stroke="#D28C11" stroke-width="2" mask="url(#path-1-outside-1_1814_286)"/>
</svg>
