<svg xmlns="http://www.w3.org/2000/svg" width="109" height="30" viewBox="0 0 109 30" fill="none">
  <g clip-path="url(#clip0_733_795)">
    <path d="M108.614 17.1647C108.614 17.0185 108.659 16.8786 108.672 16.7324C108.762 16.0134 108.805 15.2892 108.799 14.5645C108.799 14.3526 108.786 14.1407 108.761 13.9288C108.557 11.2634 107.622 8.70596 106.056 6.53881C104.491 4.37166 102.358 2.67906 99.8918 1.64784C97.4256 0.616611 94.7223 0.28686 92.0805 0.69498C89.4386 1.1031 86.9609 2.23322 84.9208 3.9606C82.4792 6.02958 80.7859 8.8443 80.102 11.9708C80.0639 12.1361 80.0321 12.3014 80.0003 12.473C79.9589 13.1759 80.065 13.8797 80.3118 14.5391C80.5019 15.0747 80.607 15.6367 80.6233 16.2047C80.4968 16.7712 80.2073 17.2883 79.7905 17.6923C79.3063 18.1963 78.9737 18.8264 78.8306 19.5105C78.8578 19.7426 78.9244 19.9684 79.0276 20.178C79.0785 20.2734 79.1421 20.3751 79.2056 20.4768C79.4062 20.7552 79.6364 21.011 79.8922 21.2397L80.5597 21.7483C81.1858 22.1812 81.7691 22.6729 82.3016 23.2168C82.3843 23.3122 82.4606 23.3948 82.5305 23.4838C83.535 26.2874 86.1287 28.0928 90.439 29.0019L90.903 29.1227C92.1784 29.4288 93.4892 29.5614 94.8001 29.5169C96.7832 29.4546 98.7316 28.9805 100.522 28.1246L100.916 27.9275C101.523 27.6653 102.019 27.2 102.321 26.6116C102.795 25.8183 103.421 25.1269 104.164 24.5773L104.4 24.3929C104.984 23.9733 105.569 23.5029 105.671 22.8481C105.671 22.6129 105.709 22.3649 105.715 22.117C105.773 20.9854 105.83 19.8157 106.987 19.2689L107.07 19.2117L107.254 19.0719C107.936 18.6354 108.424 17.9521 108.614 17.1647ZM106.313 18.8366L106.046 19.0146C105.769 19.1003 105.507 19.229 105.27 19.3961C105.171 19.4663 105.079 19.5473 104.997 19.6377C104.406 20.3687 104.501 21.227 104.59 22.0598C104.59 22.3077 104.647 22.5684 104.66 22.8163C104.644 23.0408 104.578 23.259 104.468 23.4556C104.358 23.6522 104.207 23.8224 104.024 23.9542C103.981 23.9826 103.934 24.006 103.885 24.0242L103.516 24.3357C102.963 24.7998 102.454 25.3211 101.971 25.8169C101.583 26.2174 101.183 26.6307 100.757 27.0121C98.8496 28.754 95.1433 28.9193 92.3525 28.5378L91.8821 28.4616C88.6653 27.883 85.6329 27.1456 83.9418 24.5582C83.7829 24.3166 83.6367 24.0623 83.4968 23.8144C83.1751 23.1789 82.7448 22.6044 82.2254 22.117C81.9006 21.8482 81.561 21.5977 81.2082 21.3668C80.7163 21.0655 80.2617 20.707 79.8541 20.2988C79.7976 20.2331 79.7466 20.163 79.7015 20.089C79.654 20.0191 79.6135 19.9445 79.5807 19.8665V19.7839C79.5346 19.6843 79.5107 19.5758 79.5107 19.466C79.5107 19.3562 79.5346 19.2478 79.5807 19.1481C79.8074 18.7627 80.0854 18.4098 80.4072 18.0992C80.9721 17.6242 81.3394 16.9554 81.4371 16.2238C81.4634 15.6155 81.3593 15.0086 81.1319 14.4438C80.8732 13.8433 80.798 13.1797 80.9158 12.5366C80.9475 12.3776 80.9793 12.2187 81.0175 12.0598C81.7547 8.89893 83.5953 6.1047 86.2082 4.17934C88.8212 2.25398 92.0352 1.32376 95.2726 1.55588C98.51 1.788 101.558 3.16723 103.87 5.44567C106.181 7.72411 107.605 10.7523 107.883 13.986C107.883 14.1937 107.896 14.4056 107.921 14.6218C107.957 15.3539 107.93 16.0877 107.839 16.815C107.839 16.9803 107.801 17.1138 107.775 17.241C107.476 17.9155 106.962 18.4721 106.313 18.8239V18.8366Z" fill="black"/>
    <path d="M90.7628 15.1558C91.3604 15.1558 91.7927 13.6046 91.7291 11.7419C91.6655 9.87925 91.1315 8.37894 90.534 8.39801C89.9364 8.41708 89.5104 9.94283 89.5676 11.8119C89.6249 13.6809 90.1652 15.1749 90.7628 15.1558Z" fill="black"/>
    <path d="M97.3874 14.8189C97.985 14.8189 98.4173 13.2677 98.3537 11.405C98.2901 9.54234 97.7625 8.04202 97.1649 8.06109C96.5673 8.08016 96.135 9.60591 96.1986 11.475C96.2622 13.344 96.7898 14.838 97.3874 14.8189Z" fill="black"/>
    <path d="M104.895 14.5455C104.868 14.509 104.83 14.4823 104.787 14.4692C104.553 14.3606 104.305 14.2878 104.05 14.253C103.907 14.2338 103.761 14.2468 103.624 14.2912C103.312 14.4056 103.02 14.698 102.702 14.59C102.587 14.5518 102.498 14.4565 102.384 14.412C102.249 14.3827 102.108 14.3883 101.976 14.4284C101.844 14.4684 101.724 14.5415 101.627 14.6408C101.604 14.6566 101.583 14.6772 101.568 14.7013C101.553 14.7254 101.543 14.7524 101.538 14.7807C101.543 14.8212 101.561 14.8591 101.589 14.8888C101.663 14.9682 101.753 15.0316 101.852 15.0754C101.952 15.1191 102.059 15.1421 102.168 15.143C102.378 15.143 102.645 15.0286 102.657 15.3401C102.683 15.789 102.683 16.239 102.657 16.6879C102.587 17.5207 101.5 18.1055 100.839 18.4615C100.178 18.8175 99.6694 19.0655 99.4914 19.8538C99.3058 20.5473 99.0458 21.2187 98.7158 21.8563C98.309 23.0134 96.6434 23.0706 95.4863 23.4266L95.1875 23.4647C94.9905 23.4647 94.7934 23.4965 94.59 23.5029H94.145H93.7063C93.2676 23.4456 92.8354 23.3694 92.4348 23.274L92.2251 23.2231C90.7202 22.8869 89.3329 22.1537 88.2073 21.0998L88.0483 20.979C87.5725 20.6257 87.124 20.2368 86.7069 19.8156L86.5734 19.6567C86.4475 19.5011 86.3348 19.3352 86.2365 19.1608C86.201 19.1036 86.1691 19.0441 86.1411 18.9828C85.5944 17.9148 86.4272 16.6561 85.8678 15.6198C86.0521 15.8741 86.3128 15.7788 86.4527 15.7851H86.5925C86.7482 15.7625 86.8988 15.713 87.0375 15.6389C87.1817 15.5605 87.3108 15.4572 87.419 15.3338V15.2448C87.2984 15.133 87.1611 15.0407 87.0121 14.9714C86.8698 14.9053 86.717 14.8644 86.5607 14.8506C86.014 14.8506 85.5054 15.3783 84.8824 15.0477C84.7576 14.9997 84.6194 14.9997 84.4946 15.0477C84.44 15.0617 84.3883 15.0853 84.342 15.1176C84.2721 15.2511 84.1895 15.3401 84.1895 15.4291C84.2912 15.7788 84.8252 15.8487 85.1621 15.6643C85.3684 16.5413 85.3086 17.4598 84.9905 18.3026C84.9229 18.6769 84.9929 19.063 85.1876 19.3897L85.302 19.5677C85.3719 19.6694 85.4546 19.7648 85.5308 19.8601L85.6643 20.0064C86.4399 20.5404 87.2282 21.0744 87.9657 21.6783L88.1246 21.8055C88.716 22.4989 89.4485 23.0581 90.2734 23.4456L90.4641 23.541C91.7497 24.1631 93.1801 24.4246 94.6027 24.2975H95.035C95.2511 24.2975 95.4609 24.253 95.6707 24.2212L95.9949 24.1577C97.3681 23.8462 99.4596 23.4266 99.6694 21.8373C99.8157 20.7819 99.7775 19.7266 100.757 19.0337L101.011 18.8557C101.761 18.3598 102.842 17.9784 103.287 17.1392C103.605 16.5035 103.471 15.8042 103.592 15.1367C103.839 15.1876 104.095 15.1876 104.342 15.1367C104.474 15.1136 104.597 15.0527 104.695 14.9612C104.793 14.8698 104.863 14.7519 104.895 14.6217C104.9 14.5966 104.9 14.5706 104.895 14.5455Z" fill="black"/>
    <path d="M11.653 15.0285C12.2506 15.0285 12.7465 13.5282 12.7656 11.6592C12.7846 9.79015 12.3142 8.2644 11.7166 8.2644C11.119 8.2644 10.6231 9.76472 10.6041 11.6338C10.585 13.5028 11.0554 15.0222 11.653 15.0285Z" fill="black"/>
    <path d="M18.2834 14.9778C18.881 14.9778 19.3769 13.4711 19.3959 11.6021C19.415 9.73303 18.9446 8.22 18.347 8.21364C17.7494 8.20729 17.2535 9.72032 17.2344 11.583C17.2154 13.4457 17.6858 14.9714 18.2834 14.9778Z" fill="black"/>
    <path d="M15.0032 30C12.0353 30.0013 9.13372 29.1223 6.66548 27.4742C4.19725 25.8261 2.27327 23.483 1.13692 20.7412C0.000581565 17.9995 -0.297067 14.9823 0.281631 12.0714C0.86033 9.1605 2.28937 6.4866 4.38799 4.38799C6.4866 2.28937 9.1605 0.860329 12.0714 0.281631C14.9823 -0.297067 17.9995 0.000581564 20.7412 1.13692C23.483 2.27327 25.8261 4.19725 27.4742 6.66548C29.1223 9.13372 30.0013 12.0353 30 15.0032C29.995 18.979 28.4133 22.7906 25.602 25.602C22.7906 28.4133 18.9791 29.995 15.0032 30ZM15.0032 0.756531C12.1776 0.75528 9.41509 1.59244 7.06549 3.16202C4.71589 4.7316 2.88482 6.96303 1.80408 9.57381C0.723342 12.1846 0.441536 15.0574 0.994336 17.8284C1.54714 20.5994 2.90969 23.1441 4.90949 25.1404C6.9093 27.1366 9.45643 28.4946 12.2284 29.0425C15.0005 29.5903 17.8727 29.3034 20.4816 28.218C23.0904 27.1326 25.3186 25.2976 26.884 22.9452C28.4494 20.5928 29.2816 17.8288 29.2753 15.0032C29.2719 11.2184 27.7674 7.58958 25.0918 4.91277C22.4161 2.23595 18.7879 0.729794 15.0032 0.724745V0.756531Z" fill="black"/>
    <path d="M4.31639 15.9885C4.23716 15.9916 4.15954 15.9655 4.09821 15.9153C4.03688 15.865 3.99609 15.794 3.98357 15.7157C3.97104 15.6374 3.98764 15.5572 4.03022 15.4904C4.07281 15.4235 4.13843 15.3745 4.21467 15.3527C5.21415 15.0222 6.28545 14.9738 7.31067 15.2129C7.39045 15.2418 7.45637 15.2998 7.49527 15.3752C7.53416 15.4506 7.54316 15.538 7.52046 15.6197C7.5082 15.6607 7.48782 15.6987 7.46053 15.7316C7.43324 15.7645 7.3996 15.7915 7.36162 15.8111C7.32363 15.8307 7.28209 15.8424 7.23948 15.8456C7.19686 15.8487 7.15405 15.8433 7.11359 15.8295C6.22799 15.647 5.31019 15.6974 4.44989 15.9757L4.31639 15.9885Z" fill="black"/>
    <path d="M22.791 15.9885C22.7118 15.9916 22.6341 15.9655 22.5728 15.9153C22.5115 15.865 22.4707 15.794 22.4582 15.7157C22.4456 15.6374 22.4622 15.5572 22.5048 15.4904C22.5474 15.4235 22.613 15.3745 22.6893 15.3527C23.6888 15.0222 24.7601 14.9738 25.7853 15.2129C25.867 15.2391 25.9349 15.2967 25.9742 15.373C26.0136 15.4492 26.0211 15.538 25.9951 15.6197C25.9828 15.6607 25.9624 15.6987 25.9351 15.7316C25.9078 15.7645 25.8742 15.7915 25.8362 15.8111C25.7982 15.8307 25.7567 15.8424 25.7141 15.8456C25.6715 15.8487 25.6287 15.8433 25.5882 15.8295C24.6929 15.6396 23.7635 15.6878 22.8927 15.9694L22.791 15.9885Z" fill="black"/>
    <path d="M15.0096 24.7935C12.4642 24.7918 10.0235 23.7799 8.22364 21.98C6.42375 20.1801 5.41184 17.7394 5.41016 15.194H6.17939C6.14774 16.3731 6.35265 17.5466 6.78202 18.6452C7.2114 19.7438 7.85653 20.7453 8.67933 21.5905C9.50213 22.4357 10.4859 23.1074 11.5726 23.5661C12.6593 24.0248 13.8269 24.2611 15.0065 24.2611C16.186 24.2611 17.3536 24.0248 18.4403 23.5661C19.527 23.1074 20.5108 22.4357 21.3336 21.5905C22.1564 20.7453 22.8015 19.7438 23.2309 18.6452C23.6603 17.5466 23.8652 16.3731 23.8336 15.194H24.6028C24.6011 17.7383 23.5901 20.178 21.7915 21.9777C19.993 23.7774 17.554 24.7901 15.0096 24.7935Z" fill="black"/>
    <path d="M54.3992 29.9999C57.3676 30.0037 60.2704 29.1268 62.7403 27.4802C65.2102 25.8337 67.1362 23.4914 68.2745 20.7499C69.4128 18.0084 69.7122 14.9909 69.135 12.0791C68.5577 9.16734 67.1297 6.49225 65.0316 4.39237C62.9335 2.29248 60.2596 0.862171 57.3483 0.282441C54.4371 -0.29729 51.4192 -0.000385051 48.6768 1.13558C45.9343 2.27155 43.5904 4.19552 41.9418 6.66403C40.2931 9.13254 39.4138 12.0346 39.415 15.0031C39.4184 18.9772 40.9978 22.7879 43.8067 25.5992C46.6157 28.4106 50.425 29.9932 54.3992 29.9999ZM51.0489 21.7863C50.4513 21.7863 49.9808 20.2605 49.9999 18.3978C50.019 16.5352 50.5149 15.0221 51.1124 15.0285C51.71 15.0348 52.1805 16.5288 52.1614 18.436C52.1423 20.3432 51.6465 21.7926 51.0489 21.7863ZM57.6859 21.7354C57.0883 21.7354 56.6178 20.2097 56.6369 18.3406C56.656 16.4716 57.1519 14.9649 57.7494 14.9713C58.347 14.9776 58.8111 16.497 58.7984 18.3661C58.7857 20.2351 58.2771 21.7418 57.6859 21.7354ZM43.4011 13.8588C43.481 13.818 43.5683 13.7936 43.6579 13.7871C43.7474 13.7805 43.8373 13.7919 43.9223 13.8206C44.1069 13.8743 44.2965 13.9084 44.4882 13.9223C44.7018 11.4511 45.8315 9.149 47.6554 7.46792C49.4793 5.78684 51.8657 4.8482 54.3461 4.83625C56.8265 4.82431 59.2218 5.73992 61.0618 7.40336C62.9018 9.0668 64.0536 11.3579 64.2911 13.827C64.6344 13.757 64.8696 13.6871 64.8696 13.6871C65.0416 13.634 65.2276 13.6493 65.3886 13.7298C65.5497 13.8103 65.6734 13.9499 65.7342 14.1194C65.763 14.2045 65.7747 14.2945 65.7685 14.3842C65.7624 14.4739 65.7385 14.5614 65.6983 14.6418C65.6581 14.7222 65.6024 14.7939 65.5343 14.8526C65.4663 14.9113 65.3873 14.956 65.3019 14.984C64.2303 15.3388 63.081 15.3873 61.9834 15.1238C61.8973 15.0964 61.8175 15.0523 61.7485 14.9939C61.6796 14.9356 61.6228 14.8642 61.5814 14.7839C61.5401 14.7036 61.515 14.6159 61.5076 14.5259C61.5002 14.4358 61.5107 14.3452 61.5384 14.2593C61.5629 14.1724 61.6056 14.0918 61.6637 14.0227C61.7218 13.9537 61.7939 13.8978 61.8753 13.8588C61.9553 13.818 62.0426 13.7936 62.1321 13.7871C62.2216 13.7805 62.3116 13.7919 62.3966 13.8206C62.5284 13.8577 62.6621 13.8874 62.7971 13.9096C62.5779 11.8437 61.6058 9.93076 60.0662 8.53583C58.5266 7.14091 56.5274 6.36164 54.4499 6.34671C52.3724 6.33177 50.3622 7.08222 48.8027 8.45486C47.2432 9.82751 46.2437 11.7263 45.9948 13.7888C46.13 13.762 46.2637 13.728 46.3953 13.6871C46.5674 13.6356 46.7526 13.6516 46.9133 13.732C47.0739 13.8123 47.1979 13.9508 47.2599 14.1194C47.3161 14.2922 47.3015 14.4803 47.2193 14.6423C47.1371 14.8044 46.9939 14.9273 46.8213 14.984C45.7497 15.3388 44.6004 15.3873 43.5028 15.1238C43.3307 15.0676 43.1871 14.9468 43.1023 14.7869C43.0214 14.6229 43.0055 14.4345 43.0578 14.2593C43.0858 14.1732 43.1305 14.0935 43.1894 14.0247C43.2483 13.956 43.3203 13.8996 43.4011 13.8588Z" fill="black"/>
  </g>
  <defs>
    <clipPath id="clip0_733_795">
      <rect width="108.798" height="30" fill="white"/>
    </clipPath>
  </defs>
</svg>