<svg width="33" height="32" viewBox="0 0 33 32" fill="none" xmlns="http://www.w3.org/2000/svg">
<rect x="0.5" width="32" height="32" rx="2" fill="#E5FF65"/>
<g opacity="0.8">
<path d="M22.0484 8.50594C22.2847 8.68116 22.5126 8.86733 22.7315 9.06385C22.7642 9.09432 22.8027 9.11796 22.8447 9.13339C22.8867 9.14883 22.9314 9.15574 22.9761 9.15374C23.0208 9.15174 23.0646 9.14085 23.1051 9.12173C23.1455 9.1026 23.1818 9.07561 23.2117 9.04233C23.2416 9.00905 23.2646 8.97015 23.2793 8.92789C23.294 8.88564 23.3001 8.84088 23.2974 8.79622C23.2946 8.75156 23.283 8.7079 23.2632 8.66779C23.2434 8.62767 23.2157 8.5919 23.182 8.56256C22.9483 8.35248 22.702 8.15138 22.4499 7.96444C22.4144 7.93808 22.374 7.91898 22.331 7.90823C22.2881 7.89747 22.2435 7.89529 22.1997 7.90179C22.1559 7.90828 22.1138 7.92334 22.0759 7.9461C22.0379 7.96886 22.0048 7.99888 21.9784 8.03443C21.9521 8.06999 21.933 8.11039 21.9222 8.15333C21.9115 8.19627 21.9093 8.2409 21.9158 8.28468C21.9223 8.32847 21.9373 8.37054 21.9601 8.40851C21.9828 8.44647 22.0129 8.47958 22.0484 8.50594Z" fill="#171A1F" stroke="#171A1F" stroke-width="0.6"/>
<path d="M24.9075 10.5857C24.8838 10.5477 24.8529 10.5148 24.8164 10.4889C24.7799 10.463 24.7386 10.4447 24.695 10.4349C24.6513 10.4251 24.6062 10.4241 24.5622 10.432C24.5181 10.4398 24.4761 10.4564 24.4385 10.4806C24.4009 10.5049 24.3686 10.5364 24.3433 10.5733C24.318 10.6102 24.3003 10.6517 24.2913 10.6955C24.2822 10.7393 24.282 10.7845 24.2905 10.8284C24.2991 10.8723 24.3164 10.9141 24.3412 10.9512C25.3127 12.4563 25.8283 14.2102 25.826 16.0016C25.826 21.1431 21.6432 25.3262 16.5014 25.3262C11.3596 25.3262 7.17681 21.1431 7.17681 16.0016C7.17681 10.86 11.3596 6.67698 16.5014 6.67698C17.6127 6.67547 18.7153 6.87333 19.7567 7.26117C19.8404 7.2924 19.9332 7.28907 20.0145 7.25193C20.0958 7.21478 20.159 7.14686 20.1902 7.06311C20.2215 6.97935 20.2181 6.88662 20.181 6.80532C20.1438 6.72402 20.0759 6.6608 19.9922 6.62957C17.7665 5.80012 15.3183 5.78995 13.0858 6.60088C10.8534 7.41181 8.98245 8.99089 7.80802 11.0554C6.63358 13.1199 6.23234 15.535 6.67612 17.8684C7.1199 20.2018 8.37972 22.301 10.23 23.7902C12.0804 25.2794 14.4003 26.0614 16.7746 25.9962C19.1489 25.931 21.4225 25.0228 23.1882 23.4342C24.954 21.8457 26.0967 19.6804 26.4117 17.3262C26.7267 14.972 26.1935 12.5826 24.9075 10.5857Z" fill="#171A1F" stroke="#171A1F" stroke-width="0.6"/>
<path d="M16.7579 13.7295L21.0879 15.7169L16.7579 8.52417V13.7295ZM16.2295 8.52417L11.8995 15.7169L16.2295 13.7295V8.52417ZM16.7579 18.8419L21.054 16.2829L16.7579 14.311V18.8419ZM16.2295 14.311L11.9334 16.2829L16.2295 18.8419V14.311ZM16.2295 23.4905V19.7431L11.6577 17.07L16.2295 23.4905ZM16.7579 23.4905L21.3297 17.07L16.7579 19.7431V23.4905Z" fill="#171A1F"/>
</g>
</svg>
