<svg xmlns="http://www.w3.org/2000/svg" width="240" height="178" viewBox="0 0 240 178" fill="none">
  <path d="M123.705 106.831L145.224 104.402L146.214 82.7698L124.297 62.2677L102.779 64.6961L101.789 86.3285L123.705 106.831Z" fill="#FFA017" stroke="#FFD494" stroke-width="4.84934"/>
  <path d="M100.502 62.6328L125.234 59.9657L130.325 52.9341L105.594 55.6013L100.502 62.6328Z" fill="#FFA017"/>
  <path d="M148.754 82.0312L124.992 59.9667L130.084 52.9352L153.846 74.9997L148.754 82.0312Z" fill="#FFBF60"/>
  <path d="M148.511 82.0303L147.541 106.52L152.633 99.488L153.845 74.9988L148.511 82.0303Z" fill="#FFF1DC"/>
  <path d="M111.898 76.45L120.385 79.1172L120.87 77.9049L112.383 75.2377L111.898 76.45Z" fill="#FFD494"/>
  <path d="M124.748 75.4802L120.384 79.1172L120.626 77.9049L125.233 74.2678L124.748 75.4802Z" fill="#FFC062"/>
  <path d="M124.749 75.4802L127.659 82.5117L128.144 81.2994L125.234 74.2678L124.749 75.4802Z" fill="#FFD494"/>
  <path d="M135.66 86.8789L127.658 82.5145L128.143 81.3022L136.145 85.6666L135.66 86.8789Z" fill="#FFC062"/>
  <path d="M129.598 94.8789L129.113 88.0898L129.841 86.3926L130.326 93.1816L129.598 94.8789Z" fill="#FFD494"/>
  <path fill-rule="evenodd" clip-rule="evenodd" d="M120.273 79.0908L111.898 76.2617L117.238 83.0385L114.944 88.2222L122.738 88.7671L129.695 94.7999L129.172 88.3599L135.766 86.9047L127.649 82.3797L124.767 75.4474L120.273 79.0908Z" fill="#FFF1DC"/>
  <path d="M218.656 83.792C223.282 85.1534 226.906 88.7778 228.268 93.4033C229.629 88.7778 233.253 85.1534 237.879 83.792C233.253 82.4305 229.629 78.8061 228.268 74.1807C226.906 78.8061 223.282 82.4305 218.656 83.792Z" fill="#FFB852" stroke="black" stroke-width="0.692933"/>
  <path d="M51.9676 102.274C54.1103 103.074 55.8048 104.769 56.6048 106.911C57.4048 104.769 59.0993 103.074 61.242 102.274C59.0993 101.474 57.4048 99.7796 56.6048 97.6369C55.8048 99.7796 54.1103 101.474 51.9676 102.274Z" fill="#FFB852" stroke="black" stroke-width="0.692933"/>
  <path d="M6.30296 100.888C9.09889 101.858 11.3017 104.061 12.2719 106.857C13.2421 104.061 15.4449 101.858 18.2408 100.888C15.4449 99.9181 13.2421 97.7153 12.2719 94.9193C11.3017 97.7153 9.09889 99.9181 6.30296 100.888Z" fill="#FFF8EE" stroke="black" stroke-width="0.692933"/>
  <path d="M62.6379 53.0076C62.6379 53.0076 64.6148 51.4303 66.0016 51.0307C67.3883 50.631 71.784 51.0307 71.784 51.0307C71.784 51.0307 80.4485 54.7886 86.6809 57.7553C92.9133 60.7219 100.337 64.5831 100.633 69.9263C100.929 75.2695 95.7 73.7848 89.0547 71.4109C80.7423 68.4416 62.3283 64.5805 57.8796 62.2066C47.495 61.9102 36.8086 60.4255 29.9808 53.8968C23.153 47.368 21.1522 40.3655 18.7016 36.3826C16.7882 33.2757 8.46518 29.7771 4.89777 28.3877C4.45317 24.508 5.04597 0.462379 5.04597 0.462379L76.8837 17.3838L104.195 33.7097C106.569 34.8979 130.022 47.3653 135.42 50.0356C140.819 52.7085 140.113 55.3788 133.88 55.6752C127.645 55.9716 119.632 52.4095 115.474 50.0356L72.7262 44.0996L68.9788 50.6152" fill="#FFF8EE"/>
  <path d="M17.0195 23.1295C22.9555 32.0348 36.8705 34.0805 51.4366 33.2045C56.5018 33.8158 64.8646 35.4222 90.9374 34.705C97.6726 44.0523 107.642 56.3847 117.357 64.0938C125.585 70.6226 134.932 70.3553 127.982 62.7018C120.623 54.5931 115.695 47.6435 111.717 40.0482C108.452 33.8132 102.693 31.8627 99.2499 28.1736C95.095 23.7196 87.9707 16.8945 83.5168 15.7062C79.7429 14.7006 75.2043 16.5981 75.2043 16.5981L17.0195 23.1295Z" fill="#FFF8EE"/>
  <path d="M4.99609 0.45459C4.99609 0.45459 23.8467 2.94225 33.0484 5.90891C42.2501 8.87557 51.4439 11.8449 56.7976 11.8449C71.9379 11.8449 77.5775 11.8449 79.655 14.5178C81.7324 17.1907 86.541 29.4993 94.1998 34.7049C97.7196 37.0973 98.36 41.673 98.6538 44.2744C98.9502 46.8759 103.227 68.7699 106.371 74.4836C109.637 80.4196 108.308 82.9469 104.37 81.2373C100.435 79.5277 93.7685 74.0311 88.7137 47.6142C85.5909 43.0147 76.0928 33.5166 74.0154 30.2509" fill="#FFF8EE"/>
  <path d="M61.874 30.0007C62.7341 37.0773 66.8176 43.2779 69.0803 50.717C71.343 58.1536 72.3354 69.311 75.2941 73.0239C77.8744 76.2632 82.6698 79.8359 81.7568 73.45C80.8437 67.0615 79.0706 61.1943 79.0627 56.6715C79.0547 52.1488 76.4771 39.602 75.5429 35.9658C74.6087 32.3295 73.7275 26.7588 68.6727 24.0171L61.874 30.0007Z" fill="#FFF8EE"/>
  <path fill-rule="evenodd" clip-rule="evenodd" d="M133.993 56.048C137.205 55.8946 139.121 55.1112 139.389 53.8409C139.64 52.6262 138.309 51.2262 135.639 49.9056C132.28 48.2437 121.721 42.6782 114.015 38.6159C113.097 38.1338 112.217 37.6698 111.387 37.2319C110.631 36.8334 109.916 36.4564 109.251 36.1071C107.526 34.2255 105.578 32.8281 103.781 31.5393L103.751 31.5177C102.158 30.3745 100.65 29.2923 99.4406 27.9957C97.0165 25.3996 88.7119 16.8198 83.5831 15.4516C82.7601 15.2319 81.9053 15.1472 81.0716 15.1472C80.8493 15.1472 80.6297 15.1525 80.4127 15.1658C80.2142 14.8429 80.0316 14.573 79.8649 14.3586C77.7054 11.5851 72.0129 11.5851 56.7985 11.5851C51.4997 11.5851 42.1986 8.58407 33.2001 5.68066L33.2 5.68062L33.1763 5.67296L33.1313 5.65973C24.0116 2.71688 5.21923 0.218636 5.03133 0.194824C5.0181 0.192177 5.00751 0.192177 4.99693 0.192177C4.86461 0.192177 4.75081 0.287445 4.73493 0.422409C4.71905 0.536209 4.77992 0.644714 4.87784 0.692345C4.9043 0.705574 4.93342 0.716164 4.96253 0.718811C5.02339 0.726753 7.04528 0.994049 10.0596 1.45452C16.3131 2.40989 26.8433 4.18831 32.9672 6.16255L33.0122 6.17843L33.0672 6.19618C35.8731 7.10078 38.7094 8.01521 41.4464 8.84605C41.4491 8.84605 41.4517 8.84605 41.4544 8.84869C46.5435 10.3916 51.2912 11.646 54.8745 12.0086C55.5599 12.0774 56.203 12.1144 56.7985 12.1144C71.825 12.1144 77.4487 12.1144 79.4467 14.6815C79.5605 14.8297 79.6823 15.007 79.8119 15.2107L80.1269 15.7189C80.5635 16.4546 81.0796 17.4179 81.675 18.532C82.0349 19.2069 82.4213 19.9267 82.8342 20.6783C82.9983 20.98 83.1676 21.287 83.3397 21.5966C84.7449 24.116 86.4228 26.9001 88.3944 29.4195C88.532 29.5968 88.6722 29.7715 88.8151 29.9462C89.4053 30.6739 90.0246 31.3779 90.665 32.0395C90.8212 32.1983 90.9773 32.3544 91.1361 32.5079C92.057 33.4104 93.0283 34.2281 94.0525 34.9241C97.4611 37.2424 98.0883 41.6726 98.3609 44.0252C98.3715 44.1232 98.382 44.2158 98.3926 44.3058C98.4112 44.4672 98.4456 44.716 98.4985 45.0388C98.5964 45.6422 98.7499 46.5076 98.9484 47.5662C98.9655 47.6617 98.9841 47.7588 99.0031 47.8574C99.0103 47.8947 99.0175 47.9323 99.0247 47.97C99.0319 48.0084 99.0392 48.047 99.0464 48.0858L99.0516 48.114C100.428 55.315 103.646 70.0742 106.139 74.6129C107.867 77.7489 108.396 80.1704 107.56 81.0887C107.036 81.6656 105.94 81.6312 104.477 80.9961C101.878 79.8687 99.5253 77.5266 97.3976 73.9301C97.2891 73.7528 97.1859 73.5728 97.08 73.3876C95.2566 70.1668 93.6026 66.004 92.1047 60.8778C92.0362 60.6435 91.9678 60.404 91.8993 60.1644L91.8983 60.1606C90.845 56.4556 89.8711 52.261 88.9739 47.5688C88.966 47.5318 88.9528 47.4974 88.9342 47.4683C88.7516 47.201 88.5505 46.9205 88.3308 46.6241C88.1879 46.4309 88.0371 46.2324 87.8783 46.0286C86.5233 44.2819 84.6549 42.1489 82.6966 39.9577C82.5351 39.7804 82.3763 39.603 82.2202 39.4257C82.0612 39.2491 81.902 39.0725 81.7428 38.8959L81.7395 38.8923C81.4226 38.5408 81.1057 38.1893 80.7911 37.8379C80.7086 37.745 80.6255 37.6528 80.5426 37.5609C80.4554 37.4642 80.3685 37.3679 80.283 37.2715C80.1242 37.0968 79.9681 36.9248 79.8146 36.7528C79.757 36.6887 79.6995 36.6247 79.6421 36.5609L79.466 36.365C79.0947 35.9521 78.7308 35.5473 78.3776 35.1517C78.2214 34.9744 78.0653 34.7971 77.9118 34.6224C76.2445 32.7355 74.879 31.1159 74.2385 30.1102C74.2015 30.052 74.1432 30.015 74.0824 29.9991C73.1006 27.6093 71.5577 25.2831 68.7974 23.7879C68.7577 23.7641 68.7154 23.7561 68.6704 23.7561C68.5778 23.7561 68.4878 23.8038 68.4375 23.8937C68.3687 24.0208 68.4163 24.1822 68.546 24.251C72.873 26.5984 74.093 31.1582 74.9345 34.6039C74.9412 34.6311 74.9476 34.6581 74.954 34.685L74.9638 34.7262L74.964 34.727C74.9796 34.7928 74.9949 34.8576 75.0113 34.9215C75.0232 34.9749 75.0365 35.0284 75.0492 35.0808C75.0534 35.0984 75.0576 35.1159 75.0616 35.1332C75.0775 35.198 75.0932 35.2622 75.1088 35.3259C75.1682 35.5691 75.2257 35.8044 75.2865 36.033C75.6755 37.5362 76.406 40.8813 77.1046 44.5334C77.1364 44.7133 77.1708 44.8959 77.2052 45.0785C77.7795 48.1219 78.3141 51.3215 78.5919 53.8092C78.6184 54.0182 78.6396 54.222 78.6581 54.4205C78.7454 55.2938 78.7957 56.0586 78.7957 56.6726C78.801 59.4335 79.4671 62.7294 80.1728 66.221L80.1824 66.2686C80.3439 67.0625 80.5053 67.8697 80.6641 68.6848C80.6999 68.8692 80.7358 69.056 80.7716 69.2429L80.7716 69.2429L80.772 69.2448L80.7752 69.2617C81.0372 70.6379 81.286 72.0458 81.4924 73.4881C81.7518 75.2983 81.5612 76.3939 80.9446 76.6612C80.0607 77.0423 77.7821 75.727 75.5009 72.8609C74.5429 71.6594 73.7966 69.6587 73.1403 67.2346C73.0873 67.0414 73.0344 66.8455 72.9841 66.6444C72.4495 64.5775 71.9705 62.2328 71.4836 59.8351C70.8855 56.8976 70.2662 53.8674 69.5146 51.25C69.5006 51.2025 69.4867 51.1552 69.4729 51.1081L69.4708 51.1012C69.4254 50.9465 69.3808 50.7945 69.3347 50.644C69.2764 50.4482 69.2156 50.255 69.1521 50.0618C68.2841 47.3421 67.1834 44.7766 66.1177 42.2926L66.1177 42.2925L66.0981 42.2468C65.0024 39.693 63.9439 37.2239 63.1737 34.7124C63.1182 34.5325 63.0652 34.3525 63.015 34.1725C62.6153 32.799 62.311 31.4044 62.1363 29.9726C62.1178 29.8271 61.9881 29.7239 61.8399 29.7397C61.697 29.7583 61.5938 29.8906 61.6097 30.0361C61.7791 31.4361 62.0728 32.7937 62.4513 34.1328C58.2778 33.8364 55.4488 33.4633 53.231 33.1695C52.5932 33.0848 52.011 33.0081 51.4659 32.9419C51.45 32.9393 51.4341 32.9393 51.4182 32.9419C43.426 33.4209 36.5743 32.9605 31.0565 31.5764C24.6124 29.962 19.9652 27.0695 17.2394 22.9834C17.1573 22.8616 16.9933 22.8272 16.8715 22.9093C16.7498 22.9887 16.718 23.1527 16.8001 23.2745C19.6 27.477 24.353 30.441 30.9268 32.0898C36.4923 33.4871 43.3889 33.9502 51.4262 33.4712C51.8627 33.5228 52.322 33.5832 52.8153 33.648C52.9291 33.663 53.0447 33.6782 53.1622 33.6935L53.1671 33.6942L53.1672 33.6942L53.1673 33.6942C55.424 33.9931 58.3181 34.3765 62.61 34.6727C63.3907 37.2768 64.4811 39.82 65.6138 42.4559L65.6602 42.5644L65.6602 42.5644L65.6602 42.5645C66.7732 45.1639 67.9231 47.8494 68.7974 50.6996C67.7124 50.6784 66.6194 50.7102 66.024 50.8822C64.6055 51.2897 62.6524 52.8379 62.5703 52.9041C62.4539 52.9967 62.4354 53.1608 62.528 53.2772C62.618 53.391 62.7847 53.4095 62.8985 53.3196L62.9062 53.3135C63.0419 53.2072 64.8936 51.7567 66.1722 51.3903C66.7385 51.2262 67.8579 51.2024 68.9562 51.2315C69.7263 53.8647 70.3562 56.9505 70.9649 59.941C71.4333 62.2354 71.8911 64.477 72.3992 66.4909C66.0663 64.8237 60.3315 63.2675 58.1031 62.0793C58.0687 62.0608 58.029 62.0502 57.9867 62.0475C48.8168 61.7882 37.3762 60.6132 30.2625 53.8118C25.3467 49.1076 22.9728 44.2051 21.065 40.265L21.0635 40.262C20.3357 38.7535 19.7059 37.4541 19.0257 36.3479C17.0938 33.2119 8.59874 29.5836 4.9784 28.1677L4.90166 28.7394C8.38703 30.097 16.6995 33.5824 18.5758 36.6258C19.2401 37.7082 19.8647 38.997 20.5871 40.4922L20.5942 40.5069C22.5196 44.482 24.9149 49.4272 29.8973 54.1929C37.1248 61.1054 48.6553 62.3069 57.91 62.5768C60.26 63.8048 66.1245 65.39 72.5501 67.0784C73.2435 69.6984 74.04 71.8764 75.0854 73.1917C76.6521 75.158 79.5605 77.8336 81.1563 77.1482C82.027 76.7697 82.3181 75.5153 82.0164 73.414C81.8206 72.0511 81.5903 70.7226 81.3442 69.4205C84.2977 70.233 87.0023 71.0296 89.0666 71.7653C92.0041 72.8133 94.6903 73.7078 96.773 73.8957C99.0119 77.7674 101.502 80.2815 104.265 81.483C106.43 82.4225 107.465 81.9806 107.952 81.446C108.978 80.3212 108.499 77.8018 106.605 74.3562C104.149 69.8942 100.989 55.4076 99.6047 48.1908L101.314 48.4289C106.081 54.0394 111.612 59.8748 117.19 64.3023C122.682 68.6584 128.594 69.9789 130.216 68.2455C130.814 67.6077 131.344 66.0146 128.178 62.5265C125.074 59.11 122.38 55.8707 119.993 52.6659C124.436 54.6348 129.719 56.2518 133.993 56.048ZM81.3786 39.2802L81.982 39.955C83.8954 42.088 85.74 44.1787 87.1241 45.9254L77.663 44.6101C76.9591 40.9024 76.2048 37.4806 75.7973 35.9007C75.7338 35.6572 75.6702 35.4005 75.6067 35.1385C75.5994 35.1078 75.5921 35.0767 75.5848 35.0454C75.5655 34.9633 75.5458 34.8795 75.5247 34.7971C75.5159 34.7635 75.508 34.7291 75.4999 34.6943L75.4925 34.6624C75.4905 34.6536 75.4884 34.6447 75.4862 34.6358C75.4841 34.6269 75.4819 34.6181 75.4797 34.6092C75.2532 33.6743 74.9979 32.6556 74.6669 31.6156L74.6723 31.6134C75.3353 32.4604 76.2074 33.4851 77.2025 34.6198C77.3355 34.7688 77.4705 34.9218 77.6074 35.077L77.671 35.1491C78.2987 35.861 78.9682 36.6049 79.6559 37.369L79.7325 37.4541C79.9284 37.6738 80.1269 37.8934 80.328 38.1157C80.3518 38.1422 80.373 38.166 80.3968 38.1925C80.7223 38.555 81.0505 38.9176 81.3786 39.2802ZM87.5872 46.5208C87.9154 46.9469 88.2091 47.3492 88.4632 47.7223C89.3206 52.1975 90.2522 56.2227 91.2552 59.8113C89.8314 59.0438 88.3494 58.316 86.8938 57.6227C84.475 56.4688 81.6724 55.1932 79.1556 54.0632C78.8936 51.5544 78.3537 48.2834 77.7689 45.1579L87.5872 46.5208ZM86.6662 58.099C88.27 58.8639 89.9028 59.6657 91.4563 60.5179C92.9542 65.742 94.6161 70.0054 96.4554 73.3293C94.4653 73.0753 91.9088 72.2205 89.2439 71.2678C87.1055 70.5029 84.295 69.6799 81.2357 68.841C81.0748 68.0196 80.9117 67.2091 80.7504 66.4075L80.7484 66.3978L80.7473 66.3922L80.7011 66.1628L80.6954 66.1344L80.6954 66.1342C79.9936 62.6647 79.3303 59.3857 79.325 56.6726C79.325 56.1116 79.2853 55.4341 79.2165 54.6692C81.6565 55.7675 84.34 56.9928 86.6662 58.099ZM99.176 45.8672C99.7053 46.5129 100.248 47.1666 100.804 47.8229L99.5015 47.6429C99.3745 46.9707 99.266 46.3726 99.176 45.8672ZM103.429 31.9384L103.474 31.9707C104.903 32.9922 106.358 34.0376 107.708 35.2946C109.058 36.5517 108.944 36.5437 108.944 36.5437C109.881 37.5785 110.744 38.7615 111.482 40.172C113.488 44.0041 115.729 47.6509 118.352 51.3136C118.564 51.6126 118.781 51.9117 119.003 52.2107C121.536 55.6802 124.423 59.1761 127.787 62.8812C129.891 65.1995 130.634 67.0229 129.83 67.8856C128.395 69.4152 122.706 68.0047 117.518 63.8868C112.117 59.5996 106.761 53.9865 102.1 48.5374C101.929 48.3341 101.757 48.1333 101.585 47.9326L101.584 47.9314C100.695 46.8808 99.8297 45.8381 98.9987 44.8139V44.8112C98.9616 44.5678 98.9352 44.3772 98.9193 44.2449L98.9188 44.2408C98.6724 42.0816 98.0965 37.0344 94.3489 34.4875C93.24 33.7359 92.192 32.8334 91.2049 31.8331C90.9985 31.624 90.792 31.4096 90.5909 31.1926C90.2733 30.8486 89.9611 30.4966 89.6567 30.1341C89.4635 29.9065 89.273 29.6762 89.0877 29.4407C87.2246 27.1224 85.6182 24.5421 84.2553 22.1418C84.0754 21.8295 83.9033 21.5225 83.734 21.2182C83.157 20.1808 82.6251 19.1884 82.1408 18.2833L82.0819 18.173L82.0814 18.172L82.0807 18.1708C81.5708 17.2166 81.1196 16.3722 80.7223 15.6871C81.6274 15.658 82.5616 15.7268 83.4455 15.9623C88.4393 17.2935 96.6539 25.7859 99.0542 28.3556C100.297 29.6877 101.818 30.7807 103.429 31.9384ZM113.766 39.0843C121.478 43.1493 132.04 48.7147 135.403 50.3794C137.766 51.5491 139.063 52.8035 138.87 53.7324C138.664 54.7142 136.832 55.3811 133.966 55.5188C129.507 55.7331 123.894 53.9071 119.35 51.7899C116.494 47.8785 114.089 44.0067 111.95 39.9259C111.418 38.9123 110.177 37.1921 110.177 37.1921C110.177 37.1921 112.488 38.4095 113.766 39.0843Z" fill="black"/>
  <path d="M0.415852 14.5801C0.415852 10.6358 0.97237 7.07674 1.86393 4.5135C2.31017 3.23058 2.83518 2.21216 3.40445 1.51992C3.97529 0.825766 4.56166 0.492159 5.13526 0.492159C5.70885 0.492159 6.29523 0.825766 6.86607 1.51992C7.43533 2.21216 7.96035 3.23058 8.40658 4.5135C9.29814 7.07674 9.85466 10.6358 9.85466 14.5801C9.85466 18.5245 9.29814 22.0836 8.40658 24.6468C7.96035 25.9297 7.43533 26.9481 6.86607 27.6404C6.29523 28.3345 5.70885 28.6681 5.13526 28.6681C4.56166 28.6681 3.97529 28.3345 3.40445 27.6404C2.83518 26.9481 2.31017 25.9297 1.86393 24.6468C0.97237 22.0836 0.415852 18.5245 0.415852 14.5801Z" fill="black" stroke="black" stroke-width="0.554347"/>
  <path d="M154.682 124.879C154.682 124.879 152.705 126.456 151.319 126.856C149.932 127.256 145.536 126.856 145.536 126.856C145.536 126.856 136.872 123.098 130.639 120.131C124.407 117.165 116.984 113.304 116.687 107.96C116.391 102.617 121.62 104.102 128.266 106.476C136.578 109.445 154.992 113.306 159.441 115.68C169.825 115.977 180.512 117.461 187.34 123.99C194.167 130.519 196.168 137.521 198.619 141.504C200.532 144.611 208.855 148.11 212.423 149.499C212.867 153.379 212.274 177.424 212.274 177.424L140.437 160.503L113.125 144.177C110.751 142.989 87.2986 130.521 81.8999 127.851C76.5011 125.178 77.2077 122.508 83.4401 122.212C89.6751 121.915 97.6885 125.477 101.846 127.851L144.594 133.787L148.342 127.272" fill="#FFF8EE"/>
  <path d="M200.301 154.757C194.365 145.852 180.45 143.806 165.884 144.682C160.818 144.071 152.456 142.464 126.383 143.182C119.648 133.834 109.679 121.502 99.9634 113.793C91.7356 107.264 82.3884 107.531 89.338 115.185C96.6977 123.294 101.625 130.243 105.603 137.839C108.869 144.074 114.627 146.024 118.07 149.713C122.225 154.167 129.35 160.992 133.804 162.181C137.577 163.186 142.116 161.289 142.116 161.289L200.301 154.757Z" fill="#FFF8EE"/>
  <path d="M212.324 177.432C212.324 177.432 193.474 174.944 184.272 171.978C175.07 169.011 165.876 166.042 160.523 166.042C145.382 166.042 139.743 166.042 137.665 163.369C135.588 160.696 130.779 148.387 123.12 143.182C119.601 140.789 118.96 136.214 118.667 133.612C118.37 131.011 114.093 109.117 110.949 103.403C107.684 97.4671 109.012 94.9398 112.95 96.6494C116.885 98.359 123.552 103.856 128.607 130.272C131.729 134.872 141.227 144.37 143.305 147.636" fill="#FFF8EE"/>
  <path d="M155.446 147.886C154.586 140.809 150.503 134.609 148.24 127.17C145.977 119.733 144.985 108.576 142.026 104.863C139.446 101.624 134.651 98.0508 135.564 104.437C136.477 110.825 138.25 116.692 138.258 121.215C138.266 125.738 140.843 138.285 141.777 141.921C142.712 145.557 143.593 151.128 148.648 153.87L155.446 147.886Z" fill="#FFF8EE"/>
  <path fill-rule="evenodd" clip-rule="evenodd" d="M83.3277 121.839C80.1149 121.992 78.1989 122.776 77.9316 124.046C77.6802 125.261 79.0114 126.66 81.6816 127.981C85.0399 129.643 95.5993 135.209 103.306 139.271C104.223 139.753 105.103 140.217 105.934 140.655C106.69 141.053 107.405 141.43 108.069 141.78C109.795 143.661 111.743 145.059 113.54 146.347L113.57 146.369C115.162 147.512 116.67 148.594 117.88 149.891C120.304 152.487 128.608 161.067 133.737 162.435C134.56 162.655 135.415 162.739 136.249 162.739C136.471 162.739 136.691 162.734 136.908 162.721C137.106 163.044 137.289 163.314 137.455 163.528C139.615 166.302 145.307 166.302 160.522 166.302C165.821 166.302 175.122 169.303 184.12 172.206L184.12 172.206L184.144 172.214L184.189 172.227C193.309 175.17 212.101 177.668 212.289 177.692C212.302 177.695 212.313 177.695 212.323 177.695C212.456 177.695 212.57 177.599 212.585 177.464C212.601 177.351 212.54 177.242 212.442 177.194C212.416 177.181 212.387 177.171 212.358 177.168C212.297 177.16 210.275 176.893 207.261 176.432C201.007 175.477 190.477 173.698 184.353 171.724L184.308 171.708L184.253 171.691C181.447 170.786 178.611 169.872 175.874 169.041C175.871 169.041 175.869 169.041 175.866 169.038C170.777 167.495 166.029 166.241 162.446 165.878C161.76 165.809 161.117 165.772 160.522 165.772C145.495 165.772 139.872 165.772 137.874 163.205C137.76 163.057 137.638 162.88 137.508 162.676L137.193 162.168C136.757 161.432 136.241 160.469 135.645 159.355C135.285 158.68 134.899 157.96 134.486 157.208C134.322 156.907 134.153 156.6 133.981 156.29C132.575 153.771 130.898 150.987 128.926 148.467C128.788 148.29 128.648 148.115 128.505 147.941C127.915 147.213 127.296 146.509 126.655 145.847C126.499 145.688 126.343 145.532 126.184 145.379C125.263 144.476 124.292 143.659 123.268 142.963C119.859 140.644 119.232 136.214 118.959 133.861C118.949 133.764 118.938 133.671 118.928 133.581C118.909 133.42 118.875 133.171 118.822 132.848C118.724 132.244 118.57 131.379 118.372 130.321C118.355 130.225 118.336 130.128 118.317 130.029C118.31 129.992 118.303 129.954 118.296 129.917C118.288 129.878 118.281 129.84 118.274 129.801L118.269 129.773C116.893 122.572 113.674 107.813 111.182 103.274C109.453 100.138 108.924 97.7163 109.76 96.798C110.284 96.2211 111.38 96.2555 112.844 96.8906C115.442 98.018 117.795 100.36 119.923 103.957C120.031 104.134 120.134 104.314 120.24 104.499C122.064 107.72 123.718 111.883 125.216 117.009C125.284 117.243 125.353 117.483 125.421 117.722L125.422 117.726C126.475 121.431 127.449 125.626 128.346 130.318C128.354 130.355 128.368 130.389 128.386 130.418C128.569 130.686 128.77 130.966 128.989 131.263C129.132 131.456 129.283 131.654 129.442 131.858C130.797 133.605 132.665 135.738 134.624 137.929C134.785 138.106 134.944 138.284 135.1 138.461C135.259 138.638 135.418 138.814 135.578 138.991L135.581 138.994C135.898 139.346 136.215 139.697 136.529 140.049C136.612 140.142 136.695 140.234 136.778 140.326C136.865 140.422 136.952 140.519 137.037 140.615C137.196 140.79 137.352 140.962 137.506 141.134C137.563 141.198 137.621 141.262 137.678 141.326L137.854 141.522C138.226 141.935 138.59 142.339 138.943 142.735C139.099 142.912 139.255 143.09 139.409 143.264C141.076 145.151 142.441 146.771 143.082 147.776C143.119 147.835 143.177 147.872 143.238 147.888C144.22 150.277 145.763 152.604 148.523 154.099C148.563 154.123 148.605 154.131 148.65 154.131C148.743 154.131 148.833 154.083 148.883 153.993C148.952 153.866 148.904 153.705 148.774 153.636C144.447 151.288 143.227 146.728 142.386 143.283C142.379 143.256 142.373 143.229 142.366 143.202L142.357 143.161L142.356 143.16C142.341 143.094 142.325 143.029 142.309 142.965C142.297 142.912 142.284 142.858 142.271 142.806C142.267 142.788 142.263 142.771 142.259 142.754C142.243 142.689 142.227 142.624 142.212 142.561C142.152 142.318 142.095 142.082 142.034 141.854C141.645 140.351 140.914 137.005 140.216 133.353C140.184 133.173 140.15 132.991 140.115 132.808C139.541 129.765 139.006 126.565 138.728 124.078C138.702 123.868 138.681 123.665 138.662 123.466C138.575 122.593 138.525 121.828 138.525 121.214C138.519 118.453 137.853 115.157 137.147 111.666L137.138 111.618C136.976 110.824 136.815 110.017 136.656 109.202C136.62 109.018 136.585 108.831 136.549 108.644L136.549 108.644L136.548 108.642L136.545 108.625C136.283 107.249 136.034 105.841 135.828 104.399C135.569 102.588 135.759 101.493 136.376 101.226C137.26 100.844 139.538 102.16 141.819 105.026C142.777 106.227 143.524 108.228 144.18 110.652C144.233 110.845 144.286 111.041 144.336 111.242C144.871 113.309 145.35 115.654 145.837 118.052C146.435 120.989 147.054 124.019 147.806 126.637C147.82 126.684 147.834 126.732 147.847 126.779L147.849 126.786C147.895 126.94 147.939 127.092 147.986 127.243C148.044 127.439 148.105 127.632 148.168 127.825C149.036 130.545 150.137 133.11 151.203 135.594L151.203 135.594L151.222 135.64C152.318 138.194 153.376 140.663 154.147 143.174C154.202 143.354 154.255 143.534 154.305 143.714C154.705 145.088 155.009 146.482 155.184 147.914C155.203 148.06 155.332 148.163 155.48 148.147C155.623 148.128 155.726 147.996 155.711 147.851C155.541 146.451 155.247 145.093 154.869 143.754C159.042 144.05 161.872 144.423 164.089 144.717C164.727 144.802 165.309 144.879 165.854 144.945C165.87 144.947 165.886 144.947 165.902 144.945C173.894 144.466 180.746 144.926 186.264 146.31C192.708 147.925 197.355 150.817 200.081 154.903C200.163 155.025 200.327 155.059 200.449 154.977C200.571 154.898 200.602 154.734 200.52 154.612C197.72 150.41 192.967 147.446 186.394 145.797C180.828 144.4 173.931 143.936 165.894 144.415C165.458 144.364 164.998 144.304 164.505 144.239C164.391 144.224 164.276 144.209 164.158 144.193L164.153 144.193L164.153 144.193L164.153 144.193C161.896 143.894 159.002 143.51 154.71 143.214C153.93 140.61 152.839 138.067 151.707 135.431L151.66 135.322L151.66 135.322L151.66 135.322C150.547 132.723 149.397 130.037 148.523 127.187C149.608 127.208 150.701 127.177 151.296 127.005C152.715 126.597 154.668 125.049 154.75 124.983C154.866 124.89 154.885 124.726 154.792 124.61C154.702 124.496 154.536 124.477 154.422 124.567L154.414 124.573C154.278 124.679 152.427 126.13 151.148 126.496C150.582 126.66 149.462 126.684 148.364 126.655C147.594 124.022 146.964 120.936 146.355 117.946C145.887 115.651 145.429 113.41 144.921 111.396C151.254 113.063 156.989 114.619 159.217 115.807C159.252 115.826 159.291 115.837 159.334 115.839C168.504 116.099 179.944 117.274 187.058 124.075C191.974 128.779 194.348 133.682 196.255 137.622L196.257 137.625C196.985 139.133 197.614 140.433 198.295 141.539C200.226 144.675 208.722 148.303 212.342 149.719L212.419 149.147C208.933 147.79 200.621 144.304 198.744 141.261C198.08 140.179 197.456 138.89 196.733 137.394L196.726 137.38C194.801 133.405 192.405 128.46 187.423 123.694C180.196 116.781 168.665 115.58 159.41 115.31C157.06 114.082 151.196 112.497 144.77 110.808C144.077 108.188 143.28 106.01 142.235 104.695C140.668 102.729 137.76 100.053 136.164 100.739C135.293 101.117 135.002 102.371 135.304 104.473C135.5 105.836 135.73 107.164 135.976 108.466C133.023 107.654 130.318 106.857 128.254 106.121C125.316 105.073 122.63 104.179 120.547 103.991C118.308 100.119 115.818 97.6052 113.055 96.4037C110.89 95.4642 109.856 95.9062 109.369 96.4407C108.342 97.5655 108.821 100.085 110.716 103.531C113.172 107.992 116.332 122.479 117.716 129.696L116.006 129.458C111.24 123.847 105.709 118.012 100.13 113.584C94.6386 109.228 88.7264 107.908 87.1042 109.641C86.5061 110.279 85.9768 111.872 89.1419 115.36C92.2462 118.777 94.9403 122.016 97.3274 125.221C92.884 123.252 87.6017 121.635 83.3277 121.839ZM135.942 138.607L135.338 137.932C133.425 135.799 131.58 133.708 130.196 131.961L139.657 133.277C140.361 136.984 141.115 140.406 141.523 141.986C141.587 142.23 141.65 142.486 141.714 142.748C141.721 142.779 141.728 142.81 141.736 142.841C141.755 142.923 141.775 143.007 141.796 143.09C141.804 143.123 141.812 143.158 141.82 143.192L141.828 143.224C141.83 143.233 141.832 143.242 141.834 143.251C141.836 143.26 141.838 143.269 141.841 143.278C142.067 144.212 142.322 145.231 142.653 146.271L142.648 146.273C141.985 145.426 141.113 144.402 140.118 143.267C139.985 143.118 139.85 142.965 139.713 142.81L139.649 142.738C139.022 142.026 138.352 141.282 137.664 140.518L137.588 140.433C137.392 140.213 137.193 139.993 136.992 139.771C136.968 139.745 136.947 139.721 136.924 139.694C136.598 139.332 136.27 138.969 135.942 138.607ZM129.733 131.366C129.405 130.94 129.111 130.538 128.857 130.164C128 125.689 127.068 121.664 126.065 118.075C127.489 118.843 128.971 119.571 130.426 120.264C132.845 121.418 135.648 122.693 138.165 123.824C138.427 126.332 138.967 129.603 139.551 132.729L129.733 131.366ZM130.654 119.788C129.05 119.023 127.417 118.221 125.864 117.369C124.366 112.145 122.704 107.881 120.865 104.557C122.855 104.811 125.411 105.666 128.076 106.619C130.215 107.384 133.025 108.207 136.085 109.046C136.245 109.867 136.409 110.678 136.57 111.479L136.572 111.489L136.573 111.494L136.619 111.724L136.625 111.752L136.625 111.753C137.327 115.222 137.99 118.501 137.995 121.214C137.995 121.775 138.035 122.453 138.104 123.217C135.664 122.119 132.98 120.894 130.654 119.788ZM118.144 132.02C117.615 131.374 117.073 130.72 116.517 130.064L117.819 130.244C117.946 130.916 118.054 131.514 118.144 132.02ZM113.891 145.948L113.847 145.916C112.417 144.895 110.962 143.849 109.612 142.592C108.262 141.335 108.376 141.343 108.376 141.343C107.439 140.308 106.577 139.125 105.838 137.715C103.832 133.883 101.591 130.236 98.9682 126.573C98.7565 126.274 98.5395 125.975 98.3172 125.676C95.7845 122.207 92.8972 118.711 89.5336 115.006C87.4297 112.687 86.686 110.864 87.4906 110.001C88.9249 108.471 94.6148 109.882 99.8018 114C105.203 118.287 110.56 123.9 115.22 129.349C115.392 129.553 115.563 129.753 115.735 129.954L115.736 129.955C116.625 131.006 117.491 132.049 118.322 133.073V133.075C118.359 133.319 118.385 133.509 118.401 133.642L118.402 133.646C118.648 135.805 119.224 140.852 122.971 143.399C124.08 144.151 125.128 145.053 126.115 146.054C126.322 146.263 126.528 146.477 126.729 146.694C127.047 147.038 127.359 147.39 127.664 147.753C127.857 147.98 128.047 148.211 128.233 148.446C130.096 150.764 131.702 153.345 133.065 155.745C133.245 156.057 133.417 156.364 133.586 156.669C134.163 157.706 134.695 158.698 135.18 159.603L135.238 159.714L135.239 159.715L135.24 159.716C135.749 160.67 136.201 161.515 136.598 162.2C135.693 162.229 134.759 162.16 133.875 161.924C128.881 160.593 120.666 152.101 118.266 149.531C117.023 148.199 115.502 147.106 113.891 145.948ZM103.554 138.802C95.8427 134.737 85.2808 129.172 81.9171 127.507C79.5539 126.338 78.2571 125.083 78.4503 124.154C78.6567 123.172 80.4881 122.506 83.3542 122.368C87.8134 122.154 93.4265 123.98 97.9705 126.097C100.826 130.008 103.232 133.88 105.37 137.961C105.902 138.974 107.143 140.695 107.143 140.695C107.143 140.695 104.833 139.477 103.554 138.802Z" fill="black"/>
  <path d="M216.903 163.307C216.903 167.251 216.347 170.81 215.455 173.373C215.009 174.656 214.484 175.675 213.915 176.367C213.344 177.061 212.758 177.395 212.184 177.395C211.61 177.395 211.024 177.061 210.453 176.367C209.884 175.675 209.359 174.656 208.913 173.373C208.021 170.81 207.465 167.251 207.465 163.307C207.465 159.362 208.021 155.803 208.913 153.24C209.359 151.957 209.884 150.939 210.453 150.246C211.024 149.552 211.61 149.219 212.184 149.219C212.758 149.219 213.344 149.552 213.915 150.246C214.484 150.939 215.009 151.957 215.455 153.24C216.347 155.803 216.903 159.362 216.903 163.307Z" fill="black" stroke="black" stroke-width="0.554347"/>
</svg>