<svg xmlns="http://www.w3.org/2000/svg" width="24" height="25" viewBox="0 0 24 25" fill="none">
  <circle cx="12.002" cy="12.2461" r="10" fill="#8F8F8F"/>
  <path d="M3.54511 9.30769H9.66578C9.68306 9.147 9.75891 8.9983 9.87886 8.88998C9.99881 8.78166 10.1544 8.7213 10.3161 8.72044H11.1316V7.42902H10.1864C9.73336 7.42902 9.36439 7.05547 9.36439 6.5979C9.36439 6.14307 9.73336 5.76953 10.1855 5.76953H13.7921C14.0108 5.77098 14.22 5.85892 14.374 6.01414C14.528 6.16936 14.6143 6.37924 14.6141 6.5979C14.6141 7.05547 14.2442 7.42902 13.7921 7.42902H12.8468V8.72044H13.6633C13.8246 8.72175 13.9798 8.78231 14.0994 8.89059C14.2189 8.99887 14.2945 9.14731 14.3118 9.30769H16.3466C17.607 9.30769 18.6336 10.3434 18.6336 11.622V14.0679H18.6327C18.6327 14.2122 18.5158 14.3309 18.3724 14.3309H15.395C15.2516 14.3309 15.1347 14.2131 15.1347 14.0679V12.8422H14.309C14.2902 13.002 14.2138 13.1495 14.0941 13.2571C13.9744 13.3646 13.8197 13.4249 13.6588 13.4267H10.3124C10.1517 13.4253 9.99707 13.365 9.87776 13.2573C9.75845 13.1496 9.68272 13.0019 9.66487 12.8422H3.07131C3.05834 12.6451 3.05176 12.4462 3.05176 12.2458C3.05176 11.2166 3.22545 10.228 3.54511 9.30769Z" fill="white"/>
  <path d="M15.9028 17.6928C15.9028 17.1247 16.7202 15.415 16.8846 15.0752C16.9759 14.8971 17.2663 14.8971 17.3522 15.0752C17.5166 15.415 18.3322 17.1247 18.3322 17.6928C18.3322 18.3686 17.7888 18.9212 17.1184 18.9212C16.448 18.9212 15.9028 18.3686 15.9028 17.6928Z" fill="white"/>
  <path d="M6.55772 5.82031C4.87747 7.44753 3.83301 9.72737 3.83301 12.2511C3.83301 13.5126 4.09394 14.7131 4.56478 15.8016" stroke="white" stroke-width="1.66667"/>
</svg>