<svg xmlns="http://www.w3.org/2000/svg" width="26" height="26" viewBox="0 0 26 26" fill="none">
  <circle cx="13" cy="13" r="13" fill="#000"/>
  <path fill-rule="evenodd" clip-rule="evenodd" d="M12.962 21.3071C16.5142 21.3071 19.3938 18.4275 19.3938 14.8754C19.3938 11.3232 16.5142 8.4436 12.962 8.4436C9.40987 8.4436 6.53027 11.3232 6.53027 14.8754C6.53027 18.4275 9.40987 21.3071 12.962 21.3071Z" fill="white"/>
  <path d="M12.5596 10.8698C12.7432 10.5648 13.1854 10.5648 13.3689 10.8698L14.4008 12.5844C14.4667 12.694 14.5743 12.7721 14.6989 12.801L16.6485 13.2525C16.9953 13.3328 17.1319 13.7534 16.8986 14.0222L15.5867 15.5334C15.5029 15.63 15.4618 15.7564 15.4728 15.8838L15.6459 17.8775C15.6766 18.2322 15.3189 18.4921 14.9912 18.3532L13.1485 17.5726C13.0307 17.5227 12.8978 17.5227 12.78 17.5726L10.9374 18.3532C10.6096 18.4921 10.2519 18.2322 10.2827 17.8775L10.4557 15.8838C10.4668 15.7564 10.4257 15.63 10.3418 15.5334L9.02998 14.0222C8.79663 13.7534 8.93327 13.3328 9.28006 13.2525L11.2297 12.801C11.3542 12.7721 11.4618 12.694 11.5277 12.5844L12.5596 10.8698Z" fill="#000"/>
  <path fill-rule="evenodd" clip-rule="evenodd" d="M6.568 5.3214C6.41578 5.00775 6.64424 4.64294 6.99287 4.64294H10.6172C10.979 4.64294 11.309 4.84961 11.467 5.17509L12.5617 7.43079C10.9795 7.51479 9.52826 8.09207 8.35886 9.01165L6.568 5.3214ZM17.6216 9.05437L19.4332 5.3214C19.5854 5.00775 19.3569 4.64294 19.0083 4.64294H15.3839C15.0221 4.64294 14.6921 4.84961 14.5342 5.17509L13.4375 7.43499C15.0157 7.53405 16.4608 8.12419 17.6216 9.05437Z" fill="white"/>
</svg>