<svg xmlns="http://www.w3.org/2000/svg" width="145" height="113" viewBox="0 0 145 113" fill="none">
  <rect x="7.94727" y="16.75" width="91" height="61" fill="#FFF8EE" stroke="black"/>
  <rect x="12.9473" y="33.75" width="81" height="39" fill="#FFF8EE" stroke="black"/>
  <circle cx="14.9473" cy="24.75" r="2.5" fill="black"/>
  <circle cx="23.9473" cy="24.75" r="2.5" fill="black"/>
  <circle cx="32.9473" cy="24.75" r="2.5" fill="black"/>
  <circle cx="72.4473" cy="72.25" r="32.5" fill="#FFB852" stroke="black"/>
  <path d="M93.7136 72.25C93.7136 81.2788 91.2988 89.4301 87.4211 95.3092C83.5407 101.192 78.2364 104.75 72.4476 104.75C66.6588 104.75 61.3545 101.192 57.4741 95.3092C53.5964 89.4301 51.1816 81.2788 51.1816 72.25C51.1816 63.2212 53.5964 55.0699 57.4741 49.1908C61.3545 43.3076 66.6588 39.75 72.4476 39.75C78.2364 39.75 83.5407 43.3076 87.4211 49.1908C91.2988 55.0699 93.7136 63.2212 93.7136 72.25Z" fill="#FFB852" stroke="black"/>
  <path d="M81.7778 72.25C81.7778 81.3296 80.7201 89.531 79.0209 95.4465C78.1704 98.4076 77.1671 100.768 76.0749 102.376C74.9713 104.001 73.8553 104.75 72.799 104.75C71.7428 104.75 70.6268 104.001 69.5231 102.376C68.431 100.768 67.4277 98.4076 66.5771 95.4465C64.878 89.531 63.8203 81.3296 63.8203 72.25C63.8203 63.1704 64.878 54.969 66.5771 49.0535C67.4277 46.0924 68.431 43.7324 69.5231 42.1242C70.6268 40.4991 71.7428 39.75 72.799 39.75C73.8553 39.75 74.9713 40.4991 76.0749 42.1242C77.1671 43.7324 78.1704 46.0924 79.0209 49.0535C80.7201 54.969 81.7778 63.1704 81.7778 72.25Z" fill="#FFB852" stroke="black"/>
  <path d="M39.7988 72.25H105.097" stroke="black"/>
  <path d="M45.0645 54.6953H99.8304" stroke="black"/>
  <path d="M45.0645 89.8047H99.8304" stroke="black"/>
  <g filter="url(#filter0_d_6784_11417)">
    <mask id="path-12-inside-1_6784_11417" fill="white">
      <path fill-rule="evenodd" clip-rule="evenodd" d="M114.85 58.9376L132.567 36.6484L104.115 37.7345L107.535 44.4886L93.5452 51.5716L97.7953 59.9658L111.785 52.8828L114.85 58.9376Z"/>
    </mask>
    <path fill-rule="evenodd" clip-rule="evenodd" d="M114.85 58.9376L132.567 36.6484L104.115 37.7345L107.535 44.4886L93.5452 51.5716L97.7953 59.9658L111.785 52.8828L114.85 58.9376Z" fill="#FFF8EE"/>
    <path d="M132.567 36.6484L133.35 37.2706L134.705 35.5661L132.529 35.6491L132.567 36.6484ZM114.85 58.9376L113.958 59.3893L114.663 60.7808L115.633 59.5598L114.85 58.9376ZM104.115 37.7345L104.077 36.7353L102.518 36.7948L103.223 38.1863L104.115 37.7345ZM107.535 44.4886L107.986 45.3808L108.879 44.9291L108.427 44.0369L107.535 44.4886ZM93.5452 51.5716L93.0935 50.6794L92.2013 51.1311L92.6531 52.0233L93.5452 51.5716ZM97.7953 59.9658L96.9031 60.4175L97.3548 61.3097L98.247 60.858L97.7953 59.9658ZM111.785 52.8828L112.677 52.4311L112.225 51.539L111.333 51.9907L111.785 52.8828ZM131.784 36.0262L114.068 58.3154L115.633 59.5598L133.35 37.2706L131.784 36.0262ZM104.153 38.7338L132.605 37.6477L132.529 35.6491L104.077 36.7353L104.153 38.7338ZM108.427 44.0369L105.007 37.2828L103.223 38.1863L106.643 44.9403L108.427 44.0369ZM93.9969 52.4638L107.986 45.3808L107.083 43.5964L93.0935 50.6794L93.9969 52.4638ZM98.6874 59.5141L94.4374 51.1199L92.6531 52.0233L96.9031 60.4175L98.6874 59.5141ZM111.333 51.9907L97.3436 59.0737L98.247 60.858L112.236 53.775L111.333 51.9907ZM115.743 58.4859L112.677 52.4311L110.893 53.3345L113.958 59.3893L115.743 58.4859Z" fill="black" mask="url(#path-12-inside-1_6784_11417)"/>
  </g>
  <defs>
    <filter id="filter0_d_6784_11417" x="93.5449" y="36.6484" width="39.0215" height="27.3164" filterUnits="userSpaceOnUse" color-interpolation-filters="sRGB">
      <feFlood flood-opacity="0" result="BackgroundImageFix"/>
      <feColorMatrix in="SourceAlpha" type="matrix" values="0 0 0 0 0 0 0 0 0 0 0 0 0 0 0 0 0 0 127 0" result="hardAlpha"/>
      <feOffset dy="4"/>
      <feComposite in2="hardAlpha" operator="out"/>
      <feColorMatrix type="matrix" values="0 0 0 0 0 0 0 0 0 0 0 0 0 0 0 0 0 0 1 0"/>
      <feBlend mode="normal" in2="BackgroundImageFix" result="effect1_dropShadow_6784_11417"/>
      <feBlend mode="normal" in="SourceGraphic" in2="effect1_dropShadow_6784_11417" result="shape"/>
    </filter>
  </defs>
</svg>