<svg xmlns="http://www.w3.org/2000/svg" width="24" height="25" viewBox="0 0 24 25" fill="none">
  <path d="M5.09286 3.29688H18.911C20.6383 3.29688 21.502 4.16051 21.502 5.88778V19.706C21.502 21.4332 20.6383 22.2969 18.911 22.2969H5.09286C3.36559 22.2969 2.50195 21.4332 2.50195 19.706V5.88778C2.50195 4.16051 3.36559 3.29688 5.09286 3.29688Z" fill="#000"/>
  <path d="M15.6009 16.9036L15.6009 16.9036C15.6911 17.0325 15.7264 17.192 15.6991 17.347C15.6717 17.502 15.5839 17.6397 15.4549 17.73C15.326 17.8202 15.1665 17.8555 15.0115 17.8281C14.8566 17.8007 14.7188 17.7129 14.6286 17.584L8.40302 8.69296L8.403 8.69294C8.35833 8.6291 8.32666 8.55708 8.30982 8.481C8.29298 8.40492 8.29129 8.32626 8.30484 8.24953C8.31839 8.17279 8.34693 8.09948 8.38882 8.03378L8.47172 8.08663L8.38882 8.03378C8.43071 7.96807 8.48512 7.91126 8.54897 7.86658L15.6009 16.9036ZM15.6009 16.9036L9.37532 8.01255C9.33065 7.94871 9.27384 7.89429 9.20813 7.8524C9.14242 7.81051 9.06911 7.78198 8.99238 7.76842C8.91564 7.75487 8.83699 7.75656 8.76091 7.7734C8.68483 7.79024 8.61281 7.82191 8.54897 7.86658L15.6009 16.9036ZM9.71803 12.3085L9.71794 12.3084L9.68045 12.3374L9.67676 12.3402L9.67669 12.3401L8.3276 13.2847L9.71803 12.3085ZM9.71803 12.3085L9.72208 12.305M9.71803 12.3085L9.72208 12.305M9.72208 12.305C9.8373 12.2059 9.91005 12.0662 9.92532 11.915C9.9406 11.7637 9.89722 11.6123 9.80415 11.4921C9.71108 11.3719 9.57542 11.292 9.42515 11.2689C9.28566 11.2474 9.14346 11.2764 9.02388 11.3501H9.02176L8.99593 11.3682L7.64675 12.3128L7.64675 12.3128L7.64569 12.3135L7.5776 12.3625L7.5776 12.3625L7.57659 12.3633C6.96324 12.8166 6.5535 13.4936 6.43634 14.2472C6.31917 15.0008 6.50405 15.7702 6.95083 16.3883C7.3976 17.0064 8.07019 17.4233 8.82252 17.5485C9.57477 17.6736 10.346 17.497 10.9688 17.0569C10.9689 17.0568 10.9689 17.0568 10.969 17.0567L12.3185 16.1117L12.3186 16.1118L12.3222 16.109L12.3597 16.08L12.3598 16.0801M9.72208 12.305L12.3598 16.0801M12.3598 16.0801L12.3631 16.0773M12.3598 16.0801L12.3631 16.0773M12.3631 16.0773C12.4801 15.9786 12.5544 15.8385 12.5705 15.6863C12.5867 15.5341 12.5433 15.3815 12.4496 15.2605C12.3559 15.1395 12.2191 15.0594 12.0677 15.0369C11.9164 15.0144 11.7623 15.0512 11.6375 15.1396C11.6374 15.1396 11.6373 15.1397 11.6372 15.1398L10.2888 16.0841L10.23 16.1234C9.8537 16.364 9.39817 16.4478 8.9609 16.3567C8.52331 16.2656 8.13883 16.0066 7.88989 15.6354C7.64095 15.2642 7.54736 14.8102 7.62918 14.3707C7.711 13.9314 7.96168 13.5415 8.32751 13.2847L12.3631 16.0773ZM16.4263 13.234L16.4273 13.2333C17.0407 12.78 17.4504 12.103 17.5676 11.3494C17.6847 10.5957 17.4999 9.82632 17.0531 9.20821C16.6063 8.5901 15.9337 8.17319 15.1814 8.04805C14.4291 7.92291 13.6578 8.09958 13.0351 8.53968C13.035 8.53972 13.035 8.53976 13.0349 8.5398L11.693 9.47957L11.6929 9.47948L11.6892 9.48232L11.6517 9.51127L11.6517 9.51117L11.6479 9.51439C11.532 9.61341 11.4586 9.75325 11.443 9.9049C11.4274 10.0566 11.4708 10.2084 11.5642 10.3289C11.6575 10.4494 11.7937 10.5294 11.9444 10.5522C12.0952 10.5751 12.2489 10.539 12.3737 10.4515C12.3738 10.4515 12.3738 10.4515 12.3738 10.4515L13.7151 9.51246L13.7739 9.47315C14.1502 9.23255 14.6057 9.14879 15.043 9.23985C15.4806 9.33097 15.8651 9.5899 16.114 9.96114C16.363 10.3324 16.4565 10.7864 16.3747 11.2258C16.2929 11.6652 16.0422 12.0551 15.6763 12.3119L14.3361 13.2502L14.336 13.2501L14.3323 13.2529L14.2948 13.2819L14.2948 13.2818L14.291 13.285C14.1751 13.384 14.1017 13.5239 14.0861 13.6755C14.0706 13.8272 14.1139 13.979 14.2073 14.0995C14.3007 14.2201 14.4368 14.3 14.5876 14.3228C14.7383 14.3457 14.892 14.3096 15.0169 14.2221C15.0169 14.2221 15.0169 14.2221 15.0169 14.2221L16.3572 13.2838L16.3572 13.2838L16.3582 13.283L16.4263 13.234Z" fill="white" stroke="white" stroke-width="0.2"/>
</svg>