<svg xmlns="http://www.w3.org/2000/svg" width="32" height="32" viewBox="0 0 32 32" fill="none">
  <g clip-path="url(#clip0_6504_574)">
    <path d="M15.9996 0C7.16309 0 0 7.16884 0 16.0128C0 24.8567 7.16309 32.0255 15.9996 32.0255C24.8369 32.0255 32 24.8567 32 16.0128C32 7.16884 24.8369 0 15.9996 0ZM19.479 22.9274C19.8592 23.3058 19.897 23.8801 19.5655 24.2109C19.2331 24.5416 18.6547 24.5029 18.2746 24.1253L10.8334 16.7673C10.6178 16.5525 10.5158 16.2761 10.5256 16.016C10.5141 15.7536 10.6162 15.4747 10.8326 15.2583L18.2746 7.90023C18.6547 7.52175 19.2323 7.48389 19.5655 7.81467C19.897 8.14541 19.8593 8.71973 19.479 9.09817L12.4831 16.0128L19.479 22.9274Z" fill="black"/>
  </g>
  <defs>
    <clipPath id="clip0_6504_574">
      <rect width="32" height="32" fill="white"/>
    </clipPath>
  </defs>
</svg>