<svg xmlns="http://www.w3.org/2000/svg" width="24" height="24" viewBox="0 0 24 24" fill="none">
  <path d="M23.5195 12C23.5195 18.3623 18.3618 23.52 11.9995 23.52C5.63717 23.52 0.479492 18.3623 0.479492 12C0.479492 5.63766 5.63717 0.47998 11.9995 0.47998C18.3618 0.47998 23.5195 5.63766 23.5195 12Z" fill="#FFB852"/>
  <path fill-rule="evenodd" clip-rule="evenodd" d="M24 12C24 18.6274 18.6274 24 12 24C5.37258 24 0 18.6274 0 12C0 5.37258 5.37258 0 12 0C18.6274 0 24 5.37258 24 12ZM12 23.52C18.3623 23.52 23.52 18.3623 23.52 12C23.52 5.63768 18.3623 0.48 12 0.48C5.63768 0.48 0.48 5.63768 0.48 12C0.48 18.3623 5.63768 23.52 12 23.52Z" fill="black"/>
  <path d="M7.90279 15.3346C7.90428 15.4113 7.90541 15.4561 7.79949 15.4573L6.42756 15.471L6.44294 16.7154L8.83426 16.6895L8.85666 18.4977L10.0456 18.4836L10.0232 16.6754L10.7622 16.6676L10.7839 18.4734L11.9149 18.4611L11.895 16.6522L12.7455 16.6444C13.3119 16.6368 15.3341 16.1333 15.3072 14.2572C15.3231 13.7495 15.1668 13.2513 14.8637 12.8437C14.5606 12.4361 14.1285 12.143 13.6377 12.0121C13.6377 12.0121 14.7807 11.3061 14.6563 10.1222C14.532 8.93834 13.6004 8.61675 13.0644 8.44648C12.6479 8.33236 12.2198 8.26634 11.7883 8.2497L11.7656 6.3592L10.679 6.37839L10.7041 8.25765L9.83049 8.26882L9.8134 6.37949L8.71435 6.40194L8.73641 8.28996L6.43277 8.31736L6.44292 9.43027L7.70596 9.41531C7.83307 9.41386 7.8338 9.47742 7.83428 9.51979L7.90279 15.3346ZM9.8401 9.38983L11.1829 9.37521C11.4135 9.37321 12.536 9.55179 12.5412 10.504C12.55 10.765 12.4649 11.0205 12.3014 11.2241C12.1379 11.4278 11.9069 11.5661 11.6502 11.614C11.5474 11.6407 11.4421 11.6568 11.336 11.6618L9.85549 11.678L9.8401 9.38983ZM9.8976 12.8622L11.9963 12.8434C12.1482 12.8444 12.2983 12.8764 12.4374 12.9375C12.5766 12.9985 12.7018 13.0872 12.8055 13.1982C12.9092 13.3093 12.9891 13.4403 13.0404 13.5833C13.0918 13.7263 13.1134 13.8782 13.1041 14.0298C13.1139 14.7869 12.4566 15.1265 12.1111 15.2171C12.0606 15.232 12.0083 15.2403 11.9556 15.2419L9.93052 15.268L9.8976 12.8622Z" fill="#FFE3BD"/>
  <path fill-rule="evenodd" clip-rule="evenodd" d="M7.41771 14.9811L5.94078 14.9958L5.96801 17.2005L8.35936 17.1746L8.38176 18.9834L10.5306 18.9578L10.5306 18.9561L12.3993 18.9359L12.3793 17.1278L12.749 17.1244L12.7512 17.1244C13.118 17.1194 13.8523 16.9684 14.504 16.5575C15.1757 16.1339 15.7988 15.4032 15.7864 14.2612C15.8031 13.649 15.6135 13.0489 15.248 12.5573C15.0454 12.2849 14.7954 12.0546 14.5121 11.8762C14.5286 11.8574 14.5451 11.8381 14.5616 11.8183C14.8795 11.4365 15.2134 10.8389 15.1328 10.0721C15.0562 9.34241 14.721 8.85172 14.3117 8.52784C13.9209 8.21849 13.4776 8.07437 13.2088 7.98897L13.1996 7.98606L13.1904 7.98351C12.8858 7.90005 12.5755 7.84031 12.2622 7.8047L12.2389 5.87071L10.2883 5.90517L10.2881 5.88965L8.22794 5.93173L8.24995 7.81567L5.94755 7.84306L5.96644 9.91591L7.35784 9.89942L7.41771 14.9811ZM8.73552 8.28993L6.43189 8.31733L6.44204 9.43024L7.70508 9.41528C7.83219 9.41383 7.83291 9.47739 7.8334 9.51976L7.90191 15.3346L7.90192 15.3352C7.90341 15.4115 7.90428 15.4561 7.7986 15.4573L6.42668 15.471L6.44206 16.7154L8.83338 16.6894L8.85578 18.4977L10.0446 18.4836L10.0223 16.6753L10.7613 16.6676L10.783 18.4733L11.914 18.4611L11.8941 16.6522L12.7446 16.6444C13.311 16.6367 15.3332 16.1333 15.3063 14.2572C15.3222 13.7495 15.1659 13.2513 14.8628 12.8437C14.6724 12.5876 14.4311 12.3768 14.1563 12.2229C13.9936 12.1318 13.8193 12.0608 13.6368 12.0121C13.6368 12.0121 13.8414 11.8857 14.0681 11.6502C14.3771 11.3291 14.7272 10.8052 14.6555 10.1222C14.5311 8.93831 13.5995 8.61672 13.0635 8.44644C12.6471 8.33233 12.2189 8.26631 11.7875 8.24967L11.7648 6.35916L10.6781 6.37836L10.7032 8.25762L9.82961 8.26878L9.81252 6.37946L8.71347 6.40191L8.73552 8.28993ZM12.5403 10.5039C12.5351 9.55175 11.4126 9.37318 11.182 9.37517L9.83922 9.3898L9.85461 11.678L11.3351 11.6618C11.4412 11.6567 11.5465 11.6407 11.6493 11.614C11.906 11.5661 12.1371 11.4277 12.3005 11.2241C12.464 11.0204 12.5491 10.7649 12.5403 10.5039ZM11.3202 11.1819C11.3906 11.178 11.4603 11.1671 11.5286 11.1494L11.5448 11.1452L11.5612 11.1421C11.7051 11.1153 11.8346 11.0378 11.9262 10.9236C12.0178 10.8095 12.0655 10.6663 12.0606 10.52L12.0604 10.5133L12.0603 10.5066C12.059 10.2654 11.934 10.1182 11.7219 10.0064C11.6127 9.94882 11.4922 9.90939 11.3843 9.88484C11.3313 9.87277 11.2843 9.86499 11.2472 9.86039C11.2288 9.8581 11.2137 9.85671 11.2024 9.85594C11.1923 9.85524 11.187 9.85517 11.1862 9.85516C11.1861 9.85516 11.1861 9.85516 11.1862 9.85516L10.3224 9.86456L10.3314 11.1927L11.3202 11.1819ZM13.1032 14.0298C13.1126 13.8782 13.0909 13.7262 13.0396 13.5832C12.9882 13.4403 12.9083 13.3093 12.8046 13.1982C12.7009 13.0872 12.5757 12.9984 12.4366 12.9374C12.2974 12.8764 12.1473 12.8444 11.9954 12.8434L9.89672 12.8622L9.92964 15.2677L11.9547 15.2419C12.0074 15.2403 12.0597 15.2319 12.1102 15.217C12.4557 15.1265 13.1131 14.7869 13.1032 14.0298ZM11.943 14.762C11.9537 14.7614 11.9642 14.7597 11.9744 14.7566L11.9815 14.7546L11.9885 14.7527C12.1038 14.7225 12.2783 14.6466 12.414 14.521C12.5384 14.4059 12.6261 14.256 12.6233 14.036L12.623 14.0181L12.6241 14.0002C12.6295 13.9137 12.6171 13.827 12.5878 13.7455C12.5585 13.6639 12.5129 13.5892 12.4538 13.5258C12.3946 13.4625 12.3232 13.4118 12.2438 13.377C12.1654 13.3426 12.0809 13.3244 11.9954 13.3234L10.3833 13.3378L10.403 14.7818L11.943 14.762Z" fill="black"/>
  <path d="M11.2786 2.53713C13.1515 2.39429 15.0229 2.81056 16.6565 3.73041L16.3759 4.20065C14.8393 3.33859 13.0805 2.94873 11.3202 3.08298C9.48 3.22333 7.72831 3.92954 6.30535 5.10476C4.8824 6.27998 3.85787 7.86665 3.3723 9.64715C2.88673 11.4276 2.96389 13.3148 3.59321 15.0497C4.22252 16.7846 5.37317 18.2823 6.88732 19.3374C8.40148 20.3926 10.205 20.9534 12.0505 20.943C13.896 20.9327 15.6931 20.3516 17.1953 19.2795C18.6323 18.254 19.7321 16.8272 20.3587 15.1805L20.8755 15.3615C20.2115 17.1148 19.0422 18.634 17.5133 19.7252C15.9191 20.8628 14.012 21.4795 12.0535 21.4905C10.0951 21.5015 8.18118 20.9063 6.57434 19.7866C4.9675 18.6669 3.74642 17.0775 3.07858 15.2363C2.41074 13.3952 2.32886 11.3926 2.84415 9.50311C3.35945 7.61362 4.44668 5.92983 5.95675 4.68267C7.46681 3.43551 9.32573 2.68606 11.2786 2.53713Z" fill="black"/>
  <path d="M21.0798 12.3498H17.3555V11.3317L18.5824 10.0873C19.0175 9.64063 19.3192 9.29836 19.4874 9.06052C19.6614 8.82267 19.7485 8.57032 19.7485 8.30346C19.7485 8.03081 19.6759 7.83937 19.5309 7.72915C19.3917 7.61892 19.1915 7.56381 18.9305 7.56381C18.5418 7.56381 18.1183 7.59862 17.66 7.66823L17.4512 7.69434L17.3903 6.76325C17.9588 6.58921 18.5476 6.5022 19.1567 6.5022C20.375 6.5022 20.9841 7.05041 20.9841 8.14683C20.9841 8.57612 20.8913 8.94739 20.7056 9.26066C20.52 9.57392 20.1835 9.9539 19.6962 10.4006L18.6955 11.3056H21.0798V12.3498Z" fill="#FFDFB6"/>
  <path fill-rule="evenodd" clip-rule="evenodd" d="M21.5603 12.8298H16.876V11.1348L18.2391 9.75243C18.2394 9.75207 18.2398 9.75172 18.2401 9.75136C18.6722 9.30771 18.951 8.98835 19.096 8.78335L19.0983 8.7802L19.1005 8.77709C19.221 8.61247 19.269 8.45777 19.269 8.30348C19.269 8.2071 19.2558 8.15211 19.2457 8.12544C19.2423 8.1166 19.2397 8.11162 19.2382 8.10921L19.2372 8.10845L19.2335 8.10551C19.2108 8.08756 19.1329 8.04383 18.931 8.04383C18.5705 8.04383 18.1715 8.07615 17.7326 8.14281L17.7264 8.14376L17.006 8.23381L16.887 6.4155L17.2503 6.30429C17.8654 6.11598 18.5017 6.02222 19.1572 6.02222C19.8286 6.02222 20.4217 6.17218 20.8489 6.55659C21.2856 6.94966 21.4646 7.51082 21.4646 8.14685C21.4646 8.6467 21.3559 9.10572 21.1191 9.50538C20.8974 9.87956 20.5197 10.2974 20.0211 10.7544L20.0187 10.7566L19.9424 10.8256H21.5603V12.8298ZM18.696 11.3056L19.6968 10.4006C20.184 9.95392 20.5205 9.57394 20.7062 9.26068C20.8918 8.94741 20.9846 8.57614 20.9846 8.14685C20.9846 7.05043 20.3755 6.50222 19.1572 6.50222C18.5481 6.50222 17.9593 6.58923 17.3908 6.76327L17.4517 7.69436L17.6605 7.66825C17.7512 7.65447 17.8406 7.64206 17.9286 7.63101C18.2851 7.58622 18.6192 7.56383 18.931 7.56383C19.192 7.56383 19.3922 7.61894 19.5314 7.72917C19.6764 7.83939 19.749 8.03083 19.749 8.30348C19.749 8.57034 19.6619 8.82269 19.4879 9.06053C19.3197 9.29838 19.018 9.64065 18.5829 10.0873L17.356 11.3317V12.3498H21.0803V11.3056H18.696Z" fill="black"/>
</svg>