<svg width="217" height="217" viewBox="0 0 217 217" fill="none" xmlns="http://www.w3.org/2000/svg">
<g clip-path="url(#clip0_6860_281)">
<ellipse cx="134" cy="76" rx="134" ry="76" transform="matrix(1 0 0 -1 -26 280.999)" fill="url(#paint0_linear_6860_281)"/>
<path d="M116.218 40.5774L163.52 58.7333L164.348 59.1031L165.106 59.5372L165.804 60.0315L166.444 60.5903L167.028 61.2134L167.541 61.876L167.985 62.5801L168.363 63.33L168.667 64.113L168.893 64.9148L169.043 65.7394L169.113 66.5889L169.103 67.4384L169.003 68.288L168.816 69.1417L168.538 70.0037L157.166 99.6251L156.796 100.454L156.364 101.214L155.87 101.912L155.309 102.55L154.688 103.135L154.025 103.646L153.321 104.091L152.571 104.469L151.788 104.774L150.986 105.001L150.162 105.15L149.312 105.221L148.463 105.208L147.613 105.111L146.759 104.924L145.895 104.643L98.5936 86.4854L97.7649 86.1157L97.0067 85.6837L96.3088 85.1893L95.6691 84.6285L95.0854 84.0075L94.5724 83.3449L94.1279 82.6407L93.7498 81.8909L93.4466 81.1078L93.2202 80.3061L93.0706 79.4815L93 78.6319L93.0104 77.7824L93.1101 76.9329L93.297 76.0792L93.5753 75.2151L104.947 45.5936L105.317 44.7669L105.749 44.0067L106.244 43.3088L106.804 42.6691L107.425 42.0854L108.088 41.5724L108.792 41.1299L109.542 40.7519L110.325 40.4466L111.127 40.2202L111.951 40.0706L112.801 40L113.65 40.0104L114.5 40.1101L115.354 40.297L116.218 40.5774Z" fill="url(#paint1_linear_6860_281)"/>
<path d="M69.9147 65.9986H145.294L146.38 66.0729L147.405 66.2816L148.376 66.6197L149.294 67.0826L150.129 67.6463L150.889 68.3178L151.561 69.0781L152.125 69.9128L152.587 70.8313L152.926 71.8027L153.134 72.8268L153.209 73.9133V125.62L153.134 126.707L152.926 127.731L152.587 128.7L152.125 129.618L151.561 130.455L150.889 131.216L150.129 131.887L149.294 132.451L148.376 132.911L147.405 133.252L146.38 133.458L145.294 133.535H69.9147L68.8282 133.458L67.8041 133.252L66.8328 132.911L65.9142 132.451L65.0795 131.887L64.3193 131.216L63.6477 130.455L63.0841 129.618L62.6212 128.7L62.283 127.731L62.0743 126.707L62 125.62V73.9133L62.0743 72.8268L62.283 71.8027L62.6212 70.8313L63.0841 69.9128L63.6477 69.0781L64.3193 68.3178L65.0795 67.6463L65.9142 67.0826L66.8328 66.6197L67.8041 66.2816L68.8282 66.0729L69.9147 65.9986Z" fill="#FFB852"/>
<path d="M62 84.19H153.398V95.8438H62V84.19Z" fill="#FFF1DC"/>
<path d="M74.9366 114.752H85.7702L86.5137 114.822L87.1949 115.009L87.828 115.311L88.3989 115.717L88.8857 116.201L89.2887 116.772L89.5909 117.405L89.7779 118.086L89.8475 118.83V119.832L89.7779 120.576L89.5909 121.257L89.2887 121.89L88.8857 122.461L88.3989 122.948L87.828 123.353L87.1949 123.653L86.5137 123.84L85.7702 123.91H74.9366L74.1931 123.84L73.512 123.653L72.8788 123.353L72.308 122.948L71.8235 122.461L71.4182 121.89L71.116 121.257L70.9289 120.576L70.8594 119.832V118.83L70.9289 118.086L71.116 117.405L71.4182 116.772L71.8235 116.201L72.308 115.717L72.8788 115.311L73.512 115.009L74.1931 114.822L74.9366 114.752Z" fill="#FFF1DC"/>
<path d="M160.634 133L162.543 138.725L168.268 140.634L162.543 142.543L160.634 148.268L158.725 142.543L153 140.634L158.725 138.725L160.634 133Z" fill="#FFB852"/>
<path d="M178.685 57.993C182.792 61.8786 188.821 62.9381 194.007 60.6853C190.121 64.7921 189.062 70.8215 191.314 76.0069C187.208 72.1214 181.178 71.0619 175.993 73.3147C179.878 69.2079 180.938 63.1785 178.685 57.993Z" fill="#FFB852"/>
<path d="M51 120C51.7205 123.525 54.4751 126.28 58 127C54.4751 127.72 51.7205 130.475 51 134C50.2795 130.475 47.5249 127.72 44 127C47.5249 126.28 50.2795 123.525 51 120Z" fill="#FFB852"/>
</g>
<defs>
<linearGradient id="paint0_linear_6860_281" x1="109.587" y1="124.308" x2="109.587" y2="152" gradientUnits="userSpaceOnUse">
<stop stop-color="white" stop-opacity="0.01"/>
<stop offset="0.815" stop-color="#FFC570" stop-opacity="0.53"/>
</linearGradient>
<linearGradient id="paint1_linear_6860_281" x1="131.057" y1="40" x2="139.091" y2="105.635" gradientUnits="userSpaceOnUse">
<stop stop-color="#FFB852"/>
<stop offset="1" stop-color="#FFF1DC" stop-opacity="0.2"/>
</linearGradient>
<clipPath id="clip0_6860_281">
<rect width="217" height="217" fill="white"/>
</clipPath>
</defs>
</svg>
