<?xml version="1.0" standalone="no"?><!DOCTYPE svg PUBLIC "-//W3C//DTD SVG 1.1//EN" "http://www.w3.org/Graphics/SVG/1.1/DTD/svg11.dtd"><svg t="1707023998895" class="icon" viewBox="0 0 1024 1024" version="1.1" xmlns="http://www.w3.org/2000/svg" p-id="9089" xmlns:xlink="http://www.w3.org/1999/xlink" width="200" height="200"><path d="M512 962c248.528 0 450-201.472 450-450S760.528 62 512 62 62 263.472 62 512s201.472 450 450 450z m16.974-771.054v63.37c25.434 4.096 46.234 12.5 62.4 25.22 16.166 12.716 31.578 32.222 46.234 58.52l-63.046 35.24c-18.968-34.486-43.756-51.73-74.364-51.73-18.968 0-34.7 5.604-47.204 16.812-12.5 11.208-18.752 25.22-18.752 42.032 0 15.304 5.066 28.02 15.196 38.152 9.916 9.914 29.96 21.66 60.138 35.24 26.08 11.856 47.634 23.01 64.662 33.464 17.028 10.454 29.854 20.53 38.476 30.23 24.356 26.298 36.534 58.09 36.534 95.38 0 36.64-10.992 68.974-32.98 96.994-21.768 27.806-50.866 46.558-87.294 56.258v66.926h-56.58v-64.986c-42.248-6.9-74.472-21.448-96.672-43.648-22.2-22.2-38.582-56.474-49.144-102.816l71.13-14.872c9.7 32.762 21.554 56.15 35.564 70.16 14.658 13.364 34.164 20.046 58.52 20.046 23.71 0 43.54-7.652 59.492-22.956 15.734-15.088 23.6-34.594 23.6-58.52 0-21.34-6.572-38.476-19.72-51.408-6.684-6.25-16.544-13.31-29.584-21.178-13.04-7.866-29.692-16.434-49.954-25.702-41.816-18.754-69.296-35.996-82.446-51.732-20.908-23.494-31.36-51.622-31.36-84.386 0-15.52 2.478-29.96 7.436-43.324 4.956-13.364 12.124-25.488 21.5-36.374 9.376-10.884 20.96-20.314 34.756-28.29 13.796-7.974 29.422-14.226 46.88-18.752V190.946h56.582z" fill="#000000" p-id="9090"></path></svg>