<?xml version="1.0" standalone="no"?><!DOCTYPE svg PUBLIC "-//W3C//DTD SVG 1.1//EN" "http://www.w3.org/Graphics/SVG/1.1/DTD/svg11.dtd"><svg t="1707017696483" class="icon" viewBox="0 0 1024 1024" version="1.1" xmlns="http://www.w3.org/2000/svg" p-id="6240" xmlns:xlink="http://www.w3.org/1999/xlink" width="200" height="200"><path d="M381.856 227.616L290.144 129.312s68.128 19.904 110.048 19.904 113.472-20.544 113.472-20.544 66.336 20.544 108.256 20.544c41.856 0 113.504-21.152 113.504-21.152l-94.112 99.552h-259.424z m257.952 42.656s255.904 175.712 255.904 385.696c0 210.016-314.752 240.096-314.752 238.048-64.832 4.064-140.96 0-140.96 0S128 887.232 128 651.616c0-235.648 255.904-381.344 255.904-381.344h255.904z m-270.112 312.768h113.728v42.656h-113.728v56.864h113.728v71.072h56.864V682.56h113.728v-56.864h-113.728V583.04h113.728v-56.864h-76l61.792-107.008-49.248-28.448-78.208 135.424h-0.512l-78.208-135.424-49.248 28.448 61.792 107.008h-76.512v56.864z" p-id="6241"></path></svg>