<svg width="64" height="64" viewBox="0 0 64 64" fill="none" xmlns="http://www.w3.org/2000/svg">
<path d="M56.043 35.2021H37.957C37.4284 35.2021 37 35.6346 37 36.1681V54.3806C37 54.9141 37.4284 55.3465 37.957 55.3465H56.043C56.5716 55.3465 57 54.9141 57 54.3806V36.1681C57 35.6346 56.5716 35.2021 56.043 35.2021Z" fill="#2F54EB"/>
<path d="M19.32 56.9998C25.5719 56.9998 30.64 51.8947 30.64 45.5973C30.64 39.2999 25.5719 34.1948 19.32 34.1948C13.0681 34.1948 8 39.2999 8 45.5973C8 51.8947 13.0681 56.9998 19.32 56.9998Z" fill="#13C2C2"/>
<path d="M47 21.1012C48.6569 21.1012 50 19.7483 50 18.0795C50 16.4107 48.6569 15.0579 47 15.0579C45.3431 15.0579 44 16.4107 44 18.0795C44 19.7483 45.3431 21.1012 47 21.1012Z" fill="#F5222D"/>
<path d="M47 28.1517C52.5228 28.1517 57 23.6422 57 18.0795C57 12.5168 52.5228 8.00732 47 8.00732C41.4772 8.00732 37 12.5168 37 18.0795C37 23.6422 41.4772 28.1517 47 28.1517Z" stroke="#0D1A26"/>
<path fill-rule="evenodd" clip-rule="evenodd" d="M19.2818 7L31.5636 28.3797H7L19.2818 7Z" fill="#FFB852"/>
</svg>
