<svg width="40" height="40" viewBox="0 0 40 40" fill="none" xmlns="http://www.w3.org/2000/svg">
<g clip-path="url(#clip0_144_2079)">
<path d="M26.54 29.1743L29.8214 13.7057C30.1114 12.3443 29.33 11.8086 28.4371 12.1429L9.15143 19.5757C7.83429 20.0886 7.85714 20.8257 8.92857 21.16L13.8614 22.7L25.3129 15.49C25.8486 15.1329 26.34 15.3343 25.9386 15.6914L16.6757 24.0614L16.3186 29.1514C16.8314 29.1514 17.0557 28.9286 17.3229 28.66L19.7329 26.3386L24.7329 30.0214C25.6486 30.5343 26.2957 30.2671 26.5414 29.1729L26.54 29.1743ZM40 20C40 31.0486 31.0486 40 20 40C8.95143 40 0 31.0486 0 20C0 8.95143 8.95143 0 20 0C31.0486 0 40 8.95143 40 20Z" fill="white"/>
</g>
<defs>
<clipPath id="clip0_144_2079">
<rect width="40" height="40" fill="white"/>
</clipPath>
</defs>
</svg>
