<svg width="64" height="64" viewBox="0 0 64 64" fill="none" xmlns="http://www.w3.org/2000/svg">
<path d="M51.7864 20.9637C51.7592 18.6508 51.732 16.138 51.732 13.3682C51.732 12.6829 51.2969 12.0833 50.6715 11.8834C44.6073 9.97026 39.1686 8.85663 31.9623 8H31.7175C28.0464 8.19988 24.6472 8.68531 21.5471 9.42772C18.4471 10.1701 15.483 10.9982 12.7364 11.8834C12.111 12.0833 11.6759 12.6829 11.6759 13.3682C11.6759 15.8525 11.6487 18.1368 11.6215 20.2784C11.4311 38.3248 11.3495 45.0637 28.2096 54.8578C29.5964 55.6573 30.657 56 31.7719 56C32.8597 56 33.9474 55.6573 35.3071 54.8864C52.1127 45.3492 52.0312 39.6954 51.7864 20.9637Z" fill="#FFB852"/>
<path fill-rule="evenodd" clip-rule="evenodd" d="M31.7118 31.1472L25.0027 19.0704L38.4209 19.0704L31.7118 31.1472Z" fill="white"/>
<path fill-rule="evenodd" clip-rule="evenodd" d="M11.6701 25.9687C5.25629 29.2711 1.47235 33.1494 2.05974 36.5793C3.10439 42.6792 17.5798 45.0508 34.3915 41.8763C51.2032 38.7018 63.9849 31.1834 62.9403 25.0834C62.3933 21.8898 58.165 19.7182 51.8474 18.8293C51.8509 19.1725 51.8545 19.5114 51.8583 19.8462C52.0788 19.8782 52.2965 19.9118 52.5115 19.947C55.3709 20.4155 57.6754 21.1571 59.3015 22.1056C60.9317 23.0566 61.7645 24.1415 61.9576 25.269C62.1507 26.3965 61.73 27.7181 60.5174 29.2058C59.3079 30.6898 57.3938 32.228 54.869 33.7131C49.8271 36.6789 42.5453 39.3191 34.2227 40.8906C25.9002 42.4621 18.1985 42.6512 12.4885 41.7157C9.62914 41.2472 7.32462 40.5056 5.69853 39.5571C4.06834 38.6062 3.23547 37.5213 3.04237 36.3937C2.84928 35.2662 3.27001 33.9446 4.48257 32.4569C5.69207 30.9729 7.60616 29.4347 10.131 27.9496C10.6252 27.6588 11.1411 27.3712 11.6773 27.0874C11.6735 26.72 11.6712 26.3472 11.6701 25.9687Z" fill="white"/>
<ellipse cx="25.0027" cy="41.5642" rx="4.79221" ry="5.03202" fill="#F5222D"/>
</svg>
