<svg width="64" height="64" viewBox="0 0 64 64" fill="none" xmlns="http://www.w3.org/2000/svg">
<path d="M51.7864 20.9637C51.7592 18.6508 51.732 16.138 51.732 13.3682C51.732 12.6829 51.2969 12.0833 50.6715 11.8834C44.6073 9.97026 39.1686 8.85663 31.9623 8H31.7175C28.0464 8.19988 24.6472 8.68531 21.5471 9.42772C18.4471 10.1701 15.483 10.9982 12.7364 11.8834C12.111 12.0833 11.6759 12.6829 11.6759 13.3682C11.6759 15.8525 11.6487 18.1368 11.6215 20.2784C11.4311 38.3248 11.3495 45.0637 28.2096 54.8578C29.5964 55.6573 30.657 56 31.7719 56C32.8597 56 33.9474 55.6573 35.3071 54.8864C52.1127 45.3492 52.0312 39.6954 51.7864 20.9637Z" fill="#FFB852"/>
<path fill-rule="evenodd" clip-rule="evenodd" d="M31.7118 31.1472L25.0027 19.0704L38.4209 19.0704L31.7118 31.1472Z" fill="white"/>
<path fill-rule="evenodd" clip-rule="evenodd" d="M11.6701 25.9687C5.25637 29.2711 1.47242 33.1495 2.05981 36.5793C3.10447 42.6793 17.5799 45.0508 34.3916 41.8763C51.2033 38.7018 63.985 31.1834 62.9403 25.0835C62.3934 21.8899 58.1651 19.7182 51.8475 18.8294C51.851 19.1726 51.8546 19.5115 51.8583 19.8462C52.0789 19.8782 52.2966 19.9119 52.5116 19.9471C55.3709 20.4155 57.6755 21.1571 59.3015 22.1057C60.9317 23.0566 61.7646 24.1415 61.9577 25.269C62.1508 26.3966 61.7301 27.7182 60.5175 29.2059C59.308 30.6899 57.3939 32.2281 54.8691 33.7132C49.8272 36.6789 42.5454 39.3192 34.2228 40.8907C25.9002 42.4622 18.1986 42.6512 12.4886 41.7158C9.62922 41.2473 7.32469 40.5057 5.6986 39.5571C4.06841 38.6062 3.23554 37.5213 3.04245 36.3938C2.84935 35.2663 3.27008 33.9446 4.48264 32.4569C5.69215 30.973 7.60624 29.4348 10.131 27.9496C10.6253 27.6589 11.1411 27.3713 11.6774 27.0875C11.6736 26.7201 11.6713 26.3472 11.6701 25.9687Z" fill="black"/>
<ellipse cx="25.0027" cy="41.5642" rx="4.79221" ry="5.03202" fill="#F5222D"/>
</svg>
