<svg width="64" height="64" viewBox="0 0 64 64" fill="none" xmlns="http://www.w3.org/2000/svg">
<path fill-rule="evenodd" clip-rule="evenodd" d="M33.892 34.1599H57.1081C57.5566 34.1599 57.9201 34.5242 57.9201 34.9736V58.1862C57.9201 58.6356 57.5566 58.9999 57.1081 58.9999H33.892C33.4436 58.9999 33.0801 58.6356 33.0801 58.1862V34.9736C33.0801 34.5242 33.4436 34.1599 33.892 34.1599Z" fill="#2F54EB"/>
<path d="M29.1307 20.8128C33.5068 20.8128 37.0544 17.273 37.0544 12.9064C37.0544 8.53982 33.5068 5 29.1307 5C24.7546 5 21.207 8.53982 21.207 12.9064C21.207 17.273 24.7546 20.8128 29.1307 20.8128Z" fill="#13C2C2"/>
<path d="M13.6401 52.5199C17.8154 52.5199 21.2001 49.1352 21.2001 44.9599C21.2001 40.7846 17.8154 37.3999 13.6401 37.3999C9.46481 37.3999 6.08008 40.7846 6.08008 44.9599C6.08008 49.1352 9.46481 52.5199 13.6401 52.5199Z" stroke="#0D1A26"/>
<path fill-rule="evenodd" clip-rule="evenodd" d="M29.0642 21.2L42.3285 44.1245H15.7998L29.0642 21.2Z" fill="#FFB852"/>
<path d="M13.6405 47.12C14.8334 47.12 15.8005 46.153 15.8005 44.96C15.8005 43.7671 14.8334 42.8 13.6405 42.8C12.4475 42.8 11.4805 43.7671 11.4805 44.96C11.4805 46.153 12.4475 47.12 13.6405 47.12Z" fill="#F5222D"/>
</svg>
