<svg width="112" height="112" viewBox="0 0 112 112" fill="none" xmlns="http://www.w3.org/2000/svg">
<path fill-rule="evenodd" clip-rule="evenodd" d="M51.1136 5.98016C51.2445 2.67741 53.9857 0.108325 57.2363 0.24195C71.0199 0.808571 84.0912 6.61941 93.8564 16.5214C103.622 26.4234 109.367 39.6928 109.953 53.6967C110.091 56.9992 107.568 59.7896 104.318 59.9293C101.067 60.0689 98.3206 57.5049 98.1825 54.2024C97.7224 43.1994 93.2081 32.7734 85.5354 24.9933C77.8627 17.2131 67.5924 12.6475 56.7624 12.2023C53.5118 12.0687 50.9828 9.28292 51.1136 5.98016Z" fill="url(#paint0_linear_657_136)"/>
<path fill-rule="evenodd" clip-rule="evenodd" d="M104.087 49.93C107.34 49.9207 109.985 52.5927 109.994 55.8981C110.033 69.9142 104.885 83.4331 95.5707 93.7721C86.2565 104.111 73.4573 110.515 59.7128 111.712C56.4715 111.994 53.6186 109.553 53.3407 106.26C53.0628 102.967 55.4651 100.068 58.7065 99.7856C69.5057 98.8449 79.5622 93.8136 86.8805 85.6901C94.1987 77.5666 98.2439 66.9446 98.2132 55.9319C98.204 52.6265 100.834 49.9394 104.087 49.93Z" fill="url(#paint1_linear_657_136)"/>
<path fill-rule="evenodd" clip-rule="evenodd" d="M60.9804 105.922C60.9853 109.228 58.352 111.911 55.0988 111.916C41.3039 111.937 28.0053 106.688 17.8419 97.2112C7.67852 87.7339 1.39308 74.7209 0.232856 60.7543C-0.0407593 57.4606 2.36535 54.5652 5.60706 54.2872C8.84877 54.0092 11.6985 56.4539 11.9721 59.7476C12.8837 70.7213 17.8223 80.9458 25.8078 88.3923C33.7933 95.8387 44.2422 99.9628 55.081 99.9462C58.3343 99.9413 60.9755 102.617 60.9804 105.922Z" fill="url(#paint2_linear_657_136)"/>
<path fill-rule="evenodd" clip-rule="evenodd" d="M5.93249 62.0755C2.67926 62.0777 0.0401745 59.4 0.0379324 56.0946C0.0284247 42.0784 5.20524 28.5707 14.5411 18.252C23.877 7.93322 36.6897 1.55755 50.4366 0.390107C53.6786 0.114784 56.5263 2.56186 56.7973 5.85581C57.0683 9.14975 54.6598 12.0432 51.4179 12.3185C40.6167 13.2358 30.5496 18.2453 23.2143 26.3528C15.879 34.4604 11.8115 45.0736 11.8189 56.0863C11.8212 59.3918 9.18572 62.0732 5.93249 62.0755Z" fill="url(#paint3_linear_657_136)"/>
<defs>
<linearGradient id="paint0_linear_657_136" x1="56.9997" y1="6.22214" x2="104.972" y2="60.7931" gradientUnits="userSpaceOnUse">
<stop stop-color="#FFB852"/>
<stop offset="1" stop-color="#FFB852" stop-opacity="0"/>
</linearGradient>
<linearGradient id="paint1_linear_657_136" x1="104.104" y1="55.915" x2="50.9563" y2="105.277" gradientUnits="userSpaceOnUse">
<stop stop-color="#FFB852"/>
<stop offset="1" stop-color="#FFB852" stop-opacity="0"/>
</linearGradient>
<linearGradient id="paint2_linear_657_136" x1="55.09" y1="105.931" x2="4.91171" y2="53.4583" gradientUnits="userSpaceOnUse">
<stop stop-color="#FFB852"/>
<stop offset="1" stop-color="#FFB852" stop-opacity="0"/>
</linearGradient>
<linearGradient id="paint3_linear_657_136" x1="5.92911" y1="56.0905" x2="59.1808" y2="6.8437" gradientUnits="userSpaceOnUse">
<stop stop-color="#FFB852"/>
<stop offset="1" stop-color="#FFB852" stop-opacity="0"/>
</linearGradient>
</defs>
</svg>
