<svg width="60" height="60" viewBox="0 0 60 60" fill="none" xmlns="http://www.w3.org/2000/svg">
<path d="M54.043 33.2021H35.957C35.4284 33.2021 35 33.6346 35 34.1681V52.3806C35 52.9141 35.4284 53.3465 35.957 53.3465H54.043C54.5716 53.3465 55 52.9141 55 52.3806V34.1681C55 33.6346 54.5716 33.2021 54.043 33.2021Z" fill="#2F54EB"/>
<path d="M17.32 54.9998C23.5719 54.9998 28.64 49.8947 28.64 43.5973C28.64 37.2999 23.5719 32.1948 17.32 32.1948C11.0681 32.1948 6 37.2999 6 43.5973C6 49.8947 11.0681 54.9998 17.32 54.9998Z" fill="#13C2C2"/>
<path d="M45 19.1012C46.6569 19.1012 48 17.7483 48 16.0795C48 14.4107 46.6569 13.0579 45 13.0579C43.3431 13.0579 42 14.4107 42 16.0795C42 17.7483 43.3431 19.1012 45 19.1012Z" fill="#F5222D"/>
<path d="M45 26.1517C50.5228 26.1517 55 21.6422 55 16.0795C55 10.5168 50.5228 6.00732 45 6.00732C39.4772 6.00732 35 10.5168 35 16.0795C35 21.6422 39.4772 26.1517 45 26.1517Z" stroke="white"/>
<path fill-rule="evenodd" clip-rule="evenodd" d="M17.2818 5L29.5636 26.3797H5L17.2818 5Z" fill="#FFB852"/>
</svg>
