<svg width="40" height="40" viewBox="0 0 40 40" fill="none" xmlns="http://www.w3.org/2000/svg">
<g clip-path="url(#clip0_144_2082)">
<path d="M20 0C8.92308 0 0 8.92308 0 20C0 31.0769 8.92308 40 20 40C31.0769 40 40 31.0769 40 20C40 8.92308 31.0769 0 20 0ZM29.6923 14.3077C29.5385 14.4615 29.5385 14.6154 29.3846 14.6154C29.0769 14.9231 28.7692 15.0769 28.4615 15.2308C28.3077 15.2308 28.3077 15.3846 28.3077 15.5385C28.4615 17.2308 28.1538 18.9231 27.5385 20.6154C26.4615 23.5385 24.1538 25.8462 21.3846 27.2308C19.0769 28.6154 16.3077 29.0769 13.8462 28.4615C12.6154 28.3077 11.5385 27.8462 10.6154 27.2308L10.4615 27.0769C10.4615 26.9231 10.6154 26.7692 10.7692 26.7692C11.5385 26.7692 12.3077 26.6154 13.0769 26.3077C13.8462 26 14.6154 25.5385 15.2308 25.0769L15.3846 24.9231C15.3846 24.7692 15.3846 24.6154 15.2308 24.6154C14.6154 24.4615 14.1538 24.1538 13.6923 23.8462C13.0769 23.5385 12.6154 22.9231 12.3077 22.3077V22.1538C12.3077 22 12.4615 21.8462 12.6154 21.8462H13.0769C13.2308 21.8462 13.2308 21.8462 13.2308 21.6923C13.3846 21.5385 13.2308 21.3846 13.0769 21.2308C12.4615 20.9231 12 20.4615 11.5385 20C10.9231 19.3846 10.6154 18.6154 10.6154 17.8462V17.6923C10.6154 17.5385 10.9231 17.5385 10.9231 17.5385C11.0769 17.5385 11.2308 17.6923 11.3846 17.6923H11.6923C11.8462 17.6923 11.8462 17.6923 12 17.5385C12.1538 17.3846 12.1538 17.2308 12 17.0769C11.3846 16.4615 10.9231 15.6923 10.7692 14.7692C10.6154 14 10.7692 13.0769 11.0769 12.3077V12.1538C10.7692 12.3077 10.9231 12.3077 11.0769 12.4615C12.1538 13.5385 13.2308 14.4615 14.6154 15.2308C16.1538 16 17.8462 16.4615 19.5385 16.4615C19.6923 16.4615 19.8462 16.3077 19.8462 16.1538C19.8462 15.2308 20.1538 12.1538 22.9231 11.3846C24.3077 10.9231 26 11.2308 27.0769 12.4615C27.0769 12.4615 27.2308 12.6154 27.3846 12.6154C27.6923 12.6154 28 12.4615 28.4615 12.4615C28.7692 12.3077 29.0769 12.3077 29.3846 12.1538H29.6923C29.8462 12.1538 29.8462 12.4615 29.8462 12.6154C29.6923 12.9231 29.3846 13.2308 29.0769 13.5385L28.9231 13.6923C28.7692 13.6923 28.7692 13.8462 28.7692 14C28.7692 14.1538 28.9231 14.3077 29.0769 14.3077C29.2308 14.3077 29.3846 14.3077 29.6923 14.1538H30C29.8462 14 29.8462 14.3077 29.6923 14.3077Z" fill="white"/>
</g>
<defs>
<clipPath id="clip0_144_2082">
<rect width="40" height="40" fill="white"/>
</clipPath>
</defs>
</svg>
