<svg width="40" height="40" viewBox="0 0 40 40" fill="none" xmlns="http://www.w3.org/2000/svg">
<path d="M23.6875 16.75C22.5625 16.75 21.625 17.75 21.625 19C21.625 20.25 22.5625 21.25 23.6875 21.25C24.8125 21.25 25.75 20.25 25.75 19C25.75 17.75 24.8125 16.75 23.6875 16.75ZM16.375 16.75C15.25 16.75 14.3125 17.75 14.3125 19C14.3125 20.25 15.25 21.25 16.375 21.25C17.5 21.25 18.4375 20.25 18.4375 19C18.4375 17.75 17.5 16.75 16.375 16.75Z" fill="white"/>
<path d="M33.375 0H6.625C4.3125 0 2.5 1.8125 2.5 4.125V31.1875C2.5 33.4375 4.3125 35.3125 6.625 35.3125H29.3125L28.25 31.625L30.8125 34L33.25 36.25L37.5 40V4.125C37.5 1.8125 35.6875 0 33.375 0ZM25.6875 26.125C25.6875 26.125 24.9375 25.25 24.375 24.5C27 23.75 28 22.125 28 22.125C27.1875 22.6875 26.375 23.0625 25.6875 23.3125C24.6875 23.75 23.75 24 22.8125 24.1875C20.875 24.5625 19.125 24.4375 17.625 24.1875C16.5 23.9375 15.5 23.625 14.6875 23.3125C14.25 23.125 13.75 22.9375 13.25 22.625C13.1875 22.5625 13.125 22.5625 13.0625 22.5C13 22.5 13 22.4375 13 22.4375C12.625 22.25 12.4375 22.125 12.4375 22.125C12.4375 22.125 13.375 23.75 15.9375 24.5C15.3125 25.25 14.625 26.1875 14.625 26.1875C10.1875 26.0625 8.5 23.125 8.5 23.125C8.5 16.6875 11.375 11.4375 11.375 11.4375C14.25 9.25 17 9.3125 17 9.3125L17.1875 9.5625C13.5625 10.625 11.875 12.1875 11.875 12.1875C11.875 12.1875 12.3125 11.9375 13.0625 11.625C15.1875 10.6875 16.875 10.4375 17.625 10.375C17.75 10.375 17.875 10.3125 17.9375 10.3125C19.1875 10.125 20.5625 10.125 22 10.25C23.875 10.5 25.9375 11 28 12.1875C28 12.1875 26.4375 10.6875 23 9.625L23.25 9.3125C23.25 9.3125 26 9.25 28.875 11.4375C28.875 11.4375 31.75 16.6875 31.75 23.125C31.8125 23.0625 30.125 26 25.6875 26.125Z" fill="white"/>
</svg>
