<svg width="50" height="50" viewBox="0 0 50 50" fill="none" xmlns="http://www.w3.org/2000/svg">
<circle cx="25.001" cy="25.0002" r="24.5" fill="#FFB852" stroke="black"/>
<path d="M15.9618 31.7057L13.3863 31.7315L12.8852 31.7365L12.8914 32.2376L12.9234 34.83L12.9296 35.3292L13.4288 35.3238L17.9115 35.2752L17.952 38.5432L17.9582 39.0429L18.4579 39.037L20.9347 39.0076L21.435 39.0016L21.4288 38.5014L21.3883 35.2351L21.9278 35.2295L21.9671 38.4923L21.9731 38.9916L22.4725 38.9862L24.8286 38.9608L25.3287 38.9554L25.3232 38.4553L25.2872 35.1876L26.5583 35.176L26.5605 35.176C27.2377 35.1668 28.6767 34.8765 29.9524 34.072C31.2488 33.2544 32.4175 31.8736 32.3906 29.7068C32.4246 28.5403 32.0643 27.3962 31.3677 26.4595C30.8566 25.7722 30.1864 25.226 29.4205 24.8642C29.5897 24.7072 29.7736 24.5193 29.9549 24.3016C30.5675 23.5659 31.1806 22.4513 31.0319 21.0358C30.8873 19.6592 30.2631 18.756 29.5082 18.1586C28.7725 17.5762 27.9286 17.298 27.3694 17.1204L27.3599 17.1173L27.3502 17.1147C26.5988 16.9088 25.83 16.775 25.054 16.7149L25.0123 13.2424L25.0062 12.7396L24.5035 12.7485L22.2397 12.7885L21.7419 12.7973L21.7485 13.2951L21.7941 16.71L20.9762 16.7204L20.9451 13.2862L20.9406 12.7805L20.435 12.7908L18.1453 12.8376L17.6497 12.8477L17.6555 13.3433L17.6956 16.7768L13.3962 16.828L12.8977 16.8339L12.9022 17.3325L12.9233 19.651L12.9279 20.1524L13.4292 20.1465L15.8253 20.1181L15.9618 31.7057ZM16.0779 20.1157C16.0779 20.1157 16.0774 20.1157 16.0765 20.1156L16.0779 20.1157ZM16.2548 31.7024C16.2549 31.7025 16.2541 31.7025 16.2525 31.7026L16.2548 31.7024ZM25.6281 21.8861L25.6279 21.8861L25.6284 21.9001C25.6426 22.3244 25.5043 22.7397 25.2386 23.0707C24.9729 23.4017 24.5973 23.6266 24.1801 23.7044L24.1629 23.7076L24.146 23.712C23.968 23.7583 23.7858 23.7863 23.6022 23.7957L21.0295 23.8238L21.0041 20.0568L23.3026 20.0318C23.3028 20.0318 23.3029 20.0317 23.3031 20.0317C23.4714 20.0304 24.0923 20.1073 24.6562 20.4045C25.2001 20.6911 25.624 21.139 25.6281 21.8861ZM26.8017 29.1981L26.8006 29.2167L26.8008 29.2354C26.8089 29.8588 26.5489 30.3006 26.2044 30.6193C25.8482 30.9489 25.4053 31.14 25.1053 31.2186L25.0979 31.2206L25.0906 31.2227C25.0276 31.2413 24.9625 31.2519 24.8969 31.2541L21.1823 31.302L21.1274 27.2919L24.9932 27.2572C25.2404 27.2594 25.4846 27.3117 25.7111 27.411C25.9387 27.5109 26.1436 27.656 26.3132 27.8377C26.4828 28.0193 26.6136 28.2337 26.6976 28.4676C26.7816 28.7015 26.817 28.9501 26.8017 29.1981Z" fill="#FFE3BD" stroke="black"/>
<path d="M23.4978 5.28602C27.3998 4.98844 31.2985 5.85567 34.7019 7.77203L34.1172 8.75169C30.9161 6.95574 27.2519 6.14353 23.5845 6.42322C19.7508 6.7156 16.1015 8.18687 13.137 10.6353C10.1725 13.0836 8.03805 16.3892 7.02644 20.0986C6.01483 23.8079 6.17559 27.7394 7.48666 31.3538C8.79774 34.9682 11.1949 38.0885 14.3494 40.2867C17.5039 42.4848 21.2612 43.6533 25.106 43.6317C28.9507 43.6101 32.6947 42.3995 35.8243 40.1661C38.8181 38.0295 41.1094 35.057 42.4147 31.6264L43.4915 32.0034C42.1082 35.6561 39.6722 38.8211 36.4868 41.0944C33.1656 43.4646 29.1925 44.7492 25.1124 44.7722C21.0322 44.7951 17.0449 43.5551 13.6974 41.2224C10.3498 38.8897 7.80585 35.5784 6.41452 31.7427C5.02319 27.9071 4.8526 23.7349 5.92613 19.7985C6.99966 15.8621 9.26474 12.3541 12.4107 9.75589C15.5567 7.15764 19.4294 5.5963 23.4978 5.28602Z" fill="black"/>
<path d="M43.919 25.7288H36.1599V23.6077L38.7161 21.0153C39.6225 20.0847 40.251 19.3716 40.6015 18.8761C40.964 18.3806 41.1453 17.8549 41.1453 17.2989C41.1453 16.7309 40.9943 16.3321 40.6921 16.1024C40.4021 15.8728 39.9851 15.758 39.4412 15.758C38.6315 15.758 37.7492 15.8305 36.7944 15.9755L36.3594 16.0299L36.2325 14.0902C37.4169 13.7276 38.6436 13.5463 39.9126 13.5463C42.4506 13.5463 43.7196 14.6884 43.7196 16.9726C43.7196 17.867 43.5262 18.6404 43.1395 19.2931C42.7527 19.9457 42.0518 20.7373 41.0366 21.6679L38.9518 23.5533H43.919V25.7288Z" fill="#FFDFB6"/>
<path d="M43.919 25.7288V26.7288H44.919V25.7288H43.919ZM36.1599 25.7288H35.1599V26.7288H36.1599V25.7288ZM36.1599 23.6077L35.4479 22.9056L35.1599 23.1976V23.6077H36.1599ZM38.7161 21.0153L39.4282 21.7174L39.4324 21.713L38.7161 21.0153ZM40.6015 18.8761L39.7944 18.2856L39.7897 18.2921L39.7851 18.2987L40.6015 18.8761ZM40.6921 16.1024L40.0714 16.8865L40.0792 16.8926L40.087 16.8986L40.6921 16.1024ZM36.7944 15.9755L36.9185 16.9678L36.9316 16.9662L36.9446 16.9642L36.7944 15.9755ZM36.3594 16.0299L35.3615 16.0952L35.4307 17.1538L36.4834 17.0222L36.3594 16.0299ZM36.2325 14.0902L35.9397 13.134L35.1829 13.3656L35.2346 14.1554L36.2325 14.0902ZM41.0366 21.6679L41.7073 22.4096L41.7123 22.4051L41.0366 21.6679ZM38.9518 23.5533L38.281 22.8116L36.3551 24.5533H38.9518V23.5533ZM43.919 23.5533H44.919V22.5533H43.919V23.5533ZM43.919 24.7288H36.1599V26.7288H43.919V24.7288ZM37.1599 25.7288V23.6077H35.1599V25.7288H37.1599ZM36.872 24.3098L39.4282 21.7174L38.004 20.3132L35.4479 22.9056L36.872 24.3098ZM39.4324 21.713C40.3439 20.7773 41.0192 20.0172 41.4179 19.4536L39.7851 18.2987C39.4827 18.7261 38.9011 19.3921 37.9997 20.3176L39.4324 21.713ZM41.4085 19.4666C41.8827 18.8186 42.1453 18.0894 42.1453 17.2989H40.1453C40.1453 17.6204 40.0454 17.9426 39.7944 18.2856L41.4085 19.4666ZM42.1453 17.2989C42.1453 16.5791 41.953 15.8047 41.2972 15.3063L40.087 16.8986C40.0709 16.8863 40.0793 16.8816 40.0969 16.928C40.1179 16.9836 40.1453 17.0981 40.1453 17.2989H42.1453ZM41.3128 15.3184C40.7799 14.8965 40.1083 14.758 39.4412 14.758V16.758C39.8619 16.758 40.0242 16.8491 40.0714 16.8865L41.3128 15.3184ZM39.4412 14.758C38.5727 14.758 37.6396 14.8357 36.6443 14.9869L36.9446 16.9642C37.8589 16.8253 38.6902 16.758 39.4412 16.758V14.758ZM36.6704 14.9833L36.2353 15.0376L36.4834 17.0222L36.9185 16.9678L36.6704 14.9833ZM37.3572 15.9646L37.2303 14.0249L35.2346 14.1554L35.3615 16.0952L37.3572 15.9646ZM36.5252 15.0464C37.6124 14.7135 38.7403 14.5463 39.9126 14.5463V12.5463C38.5468 12.5463 37.2213 12.7416 35.9397 13.134L36.5252 15.0464ZM39.9126 14.5463C41.0519 14.5463 41.7197 14.8049 42.0989 15.1462C42.458 15.4694 42.7196 16.0135 42.7196 16.9726H44.7196C44.7196 15.6476 44.3467 14.4785 43.4368 13.6596C42.547 12.8587 41.3112 12.5463 39.9126 12.5463V14.5463ZM42.7196 16.9726C42.7196 17.7199 42.5593 18.3106 42.2792 18.7833L43.9998 19.8029C44.4932 18.9703 44.7196 18.014 44.7196 16.9726H42.7196ZM42.2792 18.7833C41.9676 19.309 41.3524 20.0218 40.3608 20.9308L41.7123 22.4051C42.7511 21.4528 43.5378 20.5824 43.9998 19.8029L42.2792 18.7833ZM40.3658 20.9262L38.281 22.8116L39.6225 24.295L41.7073 22.4096L40.3658 20.9262ZM38.9518 24.5533H43.919V22.5533H38.9518V24.5533ZM42.919 23.5533V25.7288H44.919V23.5533H42.919Z" fill="black"/>
</svg>
