<svg width="50" height="50" viewBox="0 0 50 50" fill="none" xmlns="http://www.w3.org/2000/svg">
<g clip-path="url(#clip0_13_67)">
<path d="M25 49.5002C38.531 49.5002 49.5 38.5312 49.5 25.0002C49.5 11.4692 38.531 0.500183 25 0.500183C11.469 0.500183 0.5 11.4692 0.5 25.0002C0.5 38.5312 11.469 49.5002 25 49.5002Z" fill="#FFB852" stroke="black"/>
<path d="M16.4639 31.9473C16.467 32.1069 16.4694 32.2004 16.2487 32.2029L13.3906 32.2314L13.4226 34.8238L18.4045 34.7698L18.4512 38.537L20.928 38.5076L20.8814 34.7404L22.421 34.7242L22.4663 38.4862L24.8225 38.4608L24.781 34.6923L26.553 34.676C27.733 34.66 31.9458 33.6112 31.8897 29.7026C31.9228 28.6449 31.5972 27.6071 30.9657 26.7579C30.3343 25.9087 29.4341 25.2981 28.4117 25.0253C28.4117 25.0253 30.793 23.5545 30.5339 21.0881C30.2747 18.6216 28.3339 17.9517 27.2173 17.5969C26.3497 17.3592 25.4577 17.2216 24.5588 17.187L24.5115 13.2484L22.2477 13.2884L22.3 17.2035L20.48 17.2268L20.4444 13.2907L18.1547 13.3375L18.2006 17.2708L13.4014 17.3279L13.4225 19.6465L16.0539 19.6153C16.3187 19.6123 16.3202 19.7447 16.3212 19.833L16.4639 31.9473ZM20.5 19.5622L23.2975 19.5318C23.7779 19.5276 26.1165 19.8996 26.1273 21.8834C26.1455 22.4271 25.9683 22.9594 25.6277 23.3837C25.2872 23.808 24.8058 24.0961 24.271 24.196C24.0568 24.2516 23.8375 24.285 23.6165 24.2956L20.5321 24.3293L20.5 19.5622ZM20.6198 26.7964L24.9921 26.7571C25.3086 26.7593 25.6213 26.826 25.9111 26.9531C26.201 27.0802 26.4619 27.2651 26.6779 27.4964C26.8939 27.7278 27.0604 28.0007 27.1674 28.2986C27.2744 28.5965 27.3195 28.913 27.3 29.2289C27.3205 30.8061 25.951 31.5137 25.2313 31.7023C25.126 31.7334 25.0171 31.7508 24.9073 31.754L20.6884 31.8084L20.6198 26.7964Z" fill="#FFE3BD"/>
<path fill-rule="evenodd" clip-rule="evenodd" d="M15.4548 31.2108L12.3779 31.2415L12.4346 35.8346L17.4166 35.7806L17.4632 39.5488L21.94 39.4957L21.9399 39.492L25.833 39.4499L25.7915 35.683L26.5618 35.676L26.5661 35.6759C27.3304 35.6656 28.8602 35.3511 30.2179 34.4949C31.6172 33.6124 32.9153 32.0903 32.8895 29.7109C32.9243 28.4356 32.5294 27.1853 31.7678 26.1612C31.3458 25.5937 30.8249 25.114 30.2348 24.7423C30.2692 24.703 30.3036 24.6628 30.338 24.6215C31.0003 23.8262 31.6958 22.5812 31.528 20.9836C31.3683 19.4635 30.6699 18.4412 29.8174 17.7665C29.0031 17.122 28.0797 16.8218 27.5196 16.6438L27.5005 16.6378L27.4812 16.6325C26.8467 16.4586 26.2001 16.3341 25.5474 16.2599L25.499 12.2308L21.4351 12.3026L21.4348 12.2702L17.1428 12.3579L17.1886 16.2828L12.392 16.3399L12.4313 20.6583L15.3301 20.624L15.4548 31.2108ZM18.2003 17.2708L13.401 17.3279L13.4221 19.6465L16.0535 19.6153C16.3183 19.6123 16.3198 19.7447 16.3208 19.833L16.4635 31.9473L16.4636 31.9484C16.4667 32.1074 16.4685 32.2004 16.2483 32.2029L13.3902 32.2314L13.4222 34.8238L18.4041 34.7698L18.4508 38.537L20.9275 38.5076L20.881 34.7404L22.4206 34.7242L22.4659 38.4862L24.8221 38.4608L24.7806 34.6922L26.5526 34.676C27.7326 34.66 31.9454 33.6112 31.8893 29.7026C31.9225 28.6449 31.5968 27.6071 30.9654 26.7579C30.5687 26.2244 30.066 25.7851 29.4935 25.4646C29.1547 25.2748 28.7914 25.1267 28.4113 25.0253C28.4113 25.0253 28.8375 24.762 29.3097 24.2715C29.9536 23.6025 30.6829 22.511 30.5335 21.0881C30.2744 18.6216 28.3336 17.9517 27.2169 17.5969C26.3493 17.3592 25.4573 17.2216 24.5585 17.187L24.5111 13.2484L22.2473 13.2884L22.2996 17.2035L20.4796 17.2268L20.444 13.2907L18.1543 13.3375L18.2003 17.2708ZM26.1269 21.8833C26.1161 19.8996 23.7775 19.5276 23.2971 19.5318L20.4996 19.5622L20.5317 24.3293L23.6161 24.2956C23.8371 24.285 24.0565 24.2516 24.2706 24.196C24.8054 24.0961 25.2868 23.808 25.6274 23.3837C25.9679 22.9594 26.1452 22.4271 26.1269 21.8833ZM23.585 23.2958C23.7316 23.2877 23.877 23.265 24.0191 23.2281L24.0528 23.2193L24.0872 23.2129C24.3869 23.157 24.6566 22.9955 24.8475 22.7577C25.0384 22.5199 25.1377 22.2216 25.1275 21.9169L25.127 21.9029L25.1269 21.8888C25.1242 21.3865 24.8638 21.0797 24.4219 20.8468C24.1943 20.7269 23.9433 20.6447 23.7186 20.5936C23.608 20.5684 23.5102 20.5522 23.433 20.5426C23.3946 20.5379 23.3632 20.535 23.3396 20.5334C23.3185 20.5319 23.3075 20.5318 23.3058 20.5317C23.3056 20.5317 23.3056 20.5317 23.3058 20.5317L21.5063 20.5513L21.5249 23.3184L23.585 23.2958ZM27.2996 29.2289C27.3191 28.913 27.274 28.5964 27.167 28.2986C27.06 28.0007 26.8935 27.7278 26.6775 27.4964C26.4615 27.2651 26.2006 27.0802 25.9107 26.9531C25.6209 26.826 25.3082 26.7593 24.9917 26.7571L20.6194 26.7964L20.688 31.8078L24.9069 31.754C25.0167 31.7508 25.1256 31.7334 25.2309 31.7023C25.9506 31.5137 27.3201 30.8061 27.2996 29.2289ZM24.8825 30.7543C24.9047 30.7532 24.9267 30.7495 24.9479 30.7432L24.9626 30.7389L24.9774 30.735C25.2175 30.6721 25.581 30.5138 25.8637 30.2523C26.1229 30.0125 26.3056 29.7001 26.2997 29.2419L26.2992 29.2046L26.3015 29.1673C26.3126 28.9871 26.2869 28.8065 26.2258 28.6365C26.1648 28.4666 26.0698 28.3109 25.9466 28.1789C25.8233 28.0469 25.6745 27.9415 25.5091 27.8689C25.3458 27.7973 25.1698 27.7593 24.9916 27.7572L21.6331 27.7873L21.6742 30.7956L24.8825 30.7543Z" fill="black"/>
<path d="M23.4968 5.28596C27.3988 4.98838 31.2975 5.8556 34.701 7.77197L34.1163 8.75163C30.9151 6.95568 27.2509 6.14347 23.5836 6.42316C19.7498 6.71554 16.1005 8.18681 13.136 10.6352C10.1715 13.0836 8.03707 16.3891 7.02546 20.0985C6.01386 23.8079 6.17461 27.7394 7.48569 31.3538C8.79676 34.9682 11.1939 38.0884 14.3484 40.2866C17.5029 42.4848 21.2602 43.6532 25.105 43.6316C28.9498 43.61 32.6937 42.3995 35.8233 40.166C38.8171 38.0295 41.1084 35.057 42.4137 31.6264L43.4906 32.0033C42.1072 35.656 39.6712 38.8211 36.4858 41.0943C33.1646 43.4645 29.1915 44.7492 25.1114 44.7721C21.0313 44.795 17.044 43.5551 13.6964 41.2223C10.3488 38.8896 7.80488 35.5783 6.41355 31.7427C5.02222 27.907 4.85162 23.7349 5.92515 19.7984C6.99868 15.862 9.26376 12.3541 12.4097 9.75583C15.5557 7.15758 19.4284 5.59624 23.4968 5.28596Z" fill="black"/>
<path d="M43.9183 25.7287H36.1592V23.6077L38.7153 21.0153C39.6218 20.0847 40.2502 19.3716 40.6007 18.8761C40.9633 18.3806 41.1446 17.8548 41.1446 17.2989C41.1446 16.7309 40.9935 16.332 40.6913 16.1024C40.4013 15.8728 39.9843 15.758 39.4405 15.758C38.6307 15.758 37.7485 15.8305 36.7937 15.9755L36.3586 16.0299L36.2317 14.0901C37.4161 13.7276 38.6428 13.5463 39.9118 13.5463C42.4498 13.5463 43.7188 14.6884 43.7188 16.9726C43.7188 17.8669 43.5255 18.6404 43.1387 19.2931C42.752 19.9457 42.051 20.7373 41.0358 21.6679L38.951 23.5533H43.9183V25.7287Z" fill="#FFDFB6"/>
<path fill-rule="evenodd" clip-rule="evenodd" d="M44.9183 26.7287H35.1592V23.1976L37.999 20.3175L38.0011 20.3153C38.9013 19.391 39.4822 18.7257 39.7843 18.2986L39.7889 18.2921L39.7937 18.2856C40.0446 17.9426 40.1446 17.6203 40.1446 17.2989C40.1446 17.0981 40.1171 16.9836 40.0961 16.928C40.0891 16.9096 40.0836 16.8992 40.0805 16.8942L40.0784 16.8926L40.0706 16.8865C40.0234 16.8491 39.8611 16.758 39.4405 16.758C38.6895 16.758 37.8581 16.8253 36.9439 16.9642L36.9308 16.9661L35.43 17.1538L35.1822 13.3656L35.939 13.1339C37.2206 12.7416 38.5461 12.5463 39.9118 12.5463C41.3105 12.5463 42.5462 12.8587 43.436 13.6596C44.3459 14.4784 44.7188 15.6475 44.7188 16.9726C44.7188 18.0139 44.4924 18.9702 43.999 19.8029C43.5371 20.5824 42.7504 21.4528 41.7115 22.4051L41.7066 22.4096L41.5476 22.5533H44.9183V26.7287ZM38.951 23.5533L41.0358 21.6679C42.051 20.7373 42.752 19.9457 43.1387 19.2931C43.5255 18.6404 43.7188 17.8669 43.7188 16.9726C43.7188 14.6884 42.4498 13.5463 39.9118 13.5463C38.6428 13.5463 37.4161 13.7276 36.2317 14.0901L36.3586 16.0299L36.7937 15.9755C36.9827 15.9468 37.1688 15.9209 37.3521 15.8979C38.0949 15.8046 38.791 15.758 39.4405 15.758C39.9843 15.758 40.4013 15.8728 40.6913 16.1024C40.9935 16.332 41.1446 16.7309 41.1446 17.2989C41.1446 17.8548 40.9633 18.3806 40.6007 18.8761C40.2502 19.3716 39.6218 20.0847 38.7153 21.0153L36.1592 23.6077V25.7287H43.9183V23.5533H38.951Z" fill="black"/>
</g>
<defs>
<clipPath id="clip0_13_67">
<rect width="50" height="50" fill="white"/>
</clipPath>
</defs>
</svg>
