<svg xmlns="http://www.w3.org/2000/svg" width="32" height="32" viewBox="0 0 32 32" fill="none">
  <circle cx="16" cy="16" r="16" fill="#F5F5F5"/>
  <path d="M31.3606 15.9987C31.3606 24.4818 24.4837 31.3587 16.0006 31.3587C7.51753 31.3587 0.640625 24.4818 0.640625 15.9987C0.640625 7.51558 7.51753 0.638672 16.0006 0.638672C24.4837 0.638672 31.3606 7.51558 31.3606 15.9987Z" fill="#FFB852"/>
  <path fill-rule="evenodd" clip-rule="evenodd" d="M32 16C32 24.8366 24.8366 32 16 32C7.16344 32 0 24.8366 0 16C0 7.16345 7.16344 0 16 0C24.8366 0 32 7.16345 32 16ZM16 31.36C24.4831 31.36 31.36 24.4831 31.36 16C31.36 7.51691 24.4831 0.64 16 0.64C7.51691 0.64 0.64 7.51691 0.64 16C0.64 24.4831 7.51691 31.36 16 31.36Z" fill="black"/>
  <path d="M10.5384 20.4457C10.5403 20.5479 10.5419 20.6077 10.4006 20.6093L8.57139 20.6276L8.59189 22.2867L11.7803 22.2522L11.8102 24.6632L13.3954 24.6443L13.3655 22.2333L14.3509 22.223L14.3799 24.6307L15.8878 24.6144L15.8613 22.2025L16.9953 22.1921C17.7505 22.1819 20.4467 21.5106 20.4109 19.0091C20.4321 18.3322 20.2236 17.668 19.8195 17.1245C19.4154 16.581 18.8393 16.1902 18.1849 16.0157C18.1849 16.0157 19.7089 15.0744 19.5431 13.4958C19.3773 11.9173 18.1352 11.4885 17.4205 11.2615C16.8652 11.1093 16.2944 11.0213 15.7191 10.9991L15.6888 8.47844L14.24 8.50403L14.2734 11.0097L13.1086 11.0246L13.0858 8.5055L11.6204 8.53543L11.6498 11.0528L8.57834 11.0893L8.59186 12.5732L10.2759 12.5533C10.4454 12.5513 10.4464 12.6361 10.447 12.6926L10.5384 20.4457ZM13.1214 12.5193L14.9119 12.4998C15.2193 12.4971 16.716 12.7352 16.7229 14.0048C16.7346 14.3528 16.6212 14.6935 16.4032 14.965C16.1852 15.2366 15.8772 15.421 15.5349 15.4849C15.3978 15.5205 15.2574 15.5419 15.116 15.5486L13.142 15.5702L13.1214 12.5193ZM13.1981 17.1491L15.9964 17.124C16.1989 17.1254 16.3991 17.1681 16.5846 17.2495C16.7701 17.3308 16.937 17.4491 17.0753 17.5972C17.2135 17.7452 17.3201 17.9199 17.3886 18.1105C17.457 18.3012 17.4859 18.5038 17.4734 18.7059C17.4866 19.7154 16.6101 20.1682 16.1495 20.2889C16.082 20.3088 16.0124 20.3199 15.9421 20.322L13.242 20.3568L13.1981 17.1491Z" fill="#FFE3BD"/>
  <path fill-rule="evenodd" clip-rule="evenodd" d="M9.88898 19.9763L7.91973 19.9959L7.95605 22.9355L11.1445 22.9009L11.1744 25.3126L14.0395 25.2786L14.0395 25.2762L16.531 25.2493L16.5045 22.8385L16.9974 22.834L17.0002 22.834C17.4893 22.8273 18.4684 22.6261 19.3374 22.0781C20.2329 21.5133 21.0637 20.5391 21.0472 19.0164C21.0695 18.2001 20.8167 17.4 20.3293 16.7445C20.0592 16.3813 19.7259 16.0743 19.3482 15.8364C19.3702 15.8113 19.3922 15.7855 19.4142 15.7591C19.8381 15.2501 20.2832 14.4533 20.1758 13.4309C20.0736 12.458 19.6266 11.8038 19.081 11.3719C18.5599 10.9594 17.9689 10.7673 17.6105 10.6534L17.5982 10.6495L17.5858 10.6461C17.1798 10.5349 16.766 10.4552 16.3482 10.4077L16.3173 7.82908L13.7164 7.87502L13.7162 7.85433L10.9693 7.91043L10.9986 10.4224L7.92877 10.4589L7.95396 13.2227L9.80915 13.2007L9.88898 19.9763ZM11.6461 11.0547L8.57456 11.0912L8.58808 12.5751L10.2721 12.5552C10.4416 12.5532 10.4426 12.638 10.4432 12.6945L10.5346 20.4476L10.5346 20.4484C10.5366 20.5501 10.5377 20.6096 10.3968 20.6112L8.56761 20.6295L8.58811 22.2886L11.7765 22.2541L11.8064 24.6651L13.3915 24.6462L13.3617 22.2352L14.3471 22.2249L14.3761 24.6326L15.884 24.6163L15.8575 22.2044L16.9916 22.194C17.7468 22.1838 20.443 21.5125 20.4071 19.011C20.4283 18.3341 20.2199 17.6699 19.8157 17.1264C19.5619 16.785 19.2401 16.5038 18.8737 16.2987C18.6569 16.1773 18.4244 16.0825 18.1811 16.0176C18.1811 16.0176 18.4539 15.8491 18.7561 15.5351C19.1682 15.107 19.635 14.4084 19.5393 13.4977C19.3735 11.9192 18.1314 11.4904 17.4167 11.2634C16.8615 11.1112 16.2906 11.0232 15.7153 11.001L15.685 8.48035L14.2362 8.50594L14.2696 11.0116L13.1048 11.0265L13.0821 8.50741L11.6167 8.53734L11.6461 11.0547ZM16.7191 14.0067C16.7122 12.7371 15.2155 12.499 14.9081 12.5017L13.1177 12.5212L13.1382 15.5721L15.1122 15.5505C15.2537 15.5438 15.394 15.5224 15.5311 15.4868C15.8734 15.4229 16.1815 15.2385 16.3994 14.9669C16.6174 14.6954 16.7308 14.3547 16.7191 14.0067ZM15.0923 14.9107C15.1861 14.9055 15.2792 14.891 15.3701 14.8674L15.3917 14.8617L15.4137 14.8576C15.6055 14.8218 15.7782 14.7185 15.9003 14.5663C16.0225 14.4141 16.086 14.2232 16.0795 14.0282L16.0792 14.0192L16.0791 14.0102C16.0774 13.6887 15.9107 13.4924 15.6279 13.3433C15.4823 13.2666 15.3216 13.214 15.1778 13.1813C15.107 13.1652 15.0444 13.1548 14.995 13.1487C14.9704 13.1456 14.9503 13.1438 14.9353 13.1427C14.9217 13.1418 14.9147 13.1417 14.9136 13.1417C14.9135 13.1417 14.9135 13.1417 14.9136 13.1417L13.7619 13.1542L13.7738 14.9251L15.0923 14.9107ZM17.4697 18.7079C17.4821 18.5057 17.4532 18.3031 17.3848 18.1125C17.3163 17.9218 17.2097 17.7471 17.0715 17.5991C16.9333 17.451 16.7663 17.3327 16.5808 17.2514C16.3953 17.17 16.1951 17.1273 15.9926 17.1259L13.1943 17.1511L13.2382 20.3584L15.9383 20.3239C16.0086 20.3219 16.0783 20.3107 16.1457 20.2908C16.6063 20.1701 17.4828 19.7173 17.4697 18.7079ZM15.9227 19.6841C15.9369 19.6834 15.951 19.681 15.9646 19.677L15.974 19.6742L15.9834 19.6718C16.1371 19.6315 16.3698 19.5302 16.5507 19.3628C16.7166 19.2094 16.8335 19.0095 16.8297 18.7162L16.8294 18.6923L16.8309 18.6685C16.838 18.5531 16.8215 18.4375 16.7824 18.3288C16.7434 18.22 16.6826 18.1203 16.6037 18.0359C16.5248 17.9514 16.4296 17.8839 16.3237 17.8375C16.2192 17.7917 16.1066 17.7673 15.9925 17.766L13.8431 17.7853L13.8694 19.7106L15.9227 19.6841Z" fill="black"/>
  <path d="M15.0433 3.38235C17.5406 3.1919 20.0357 3.74692 22.2139 4.9734L21.8397 5.60038C19.791 4.45097 17.4459 3.93116 15.0988 4.11016C12.6452 4.29728 10.3096 5.2389 8.41234 6.80586C6.51507 8.37282 5.14904 10.4884 4.50161 12.8624C3.85418 15.2364 3.95707 17.7525 4.79615 20.0657C5.63524 22.379 7.16943 24.3759 9.1883 25.7828C11.2072 27.1896 13.6118 27.9374 16.0725 27.9236C18.5332 27.9097 20.9293 27.135 22.9322 25.7056C24.8482 24.3382 26.3147 22.4358 27.1501 20.2402L27.8393 20.4815C26.9539 22.8192 25.3949 24.8448 23.3562 26.2997C21.2307 27.8166 18.6879 28.6388 16.0766 28.6535C13.4653 28.6681 10.9134 27.8746 8.77099 26.3816C6.62854 24.8887 5.00043 22.7695 4.10998 20.3146C3.21953 17.8598 3.11035 15.1896 3.79741 12.6703C4.48447 10.151 5.93412 7.90595 7.94754 6.24307C9.96095 4.58019 12.4395 3.58093 15.0433 3.38235Z" fill="black"/>
  <path d="M28.1064 16.4647H23.1406V15.1073L24.7766 13.4481C25.3567 12.8525 25.7589 12.3962 25.9832 12.0791C26.2152 11.7619 26.3313 11.4255 26.3313 11.0697C26.3313 10.7061 26.2346 10.4509 26.0412 10.3039C25.8556 10.1569 25.5887 10.0835 25.2407 10.0835C24.7224 10.0835 24.1578 10.1299 23.5467 10.2227L23.2683 10.2575L23.187 9.01604C23.9451 8.78399 24.7301 8.66797 25.5423 8.66797C27.1666 8.66797 27.9788 9.39892 27.9788 10.8608C27.9788 11.4332 27.855 11.9282 27.6075 12.3459C27.36 12.7636 26.9114 13.2702 26.2617 13.8658L24.9274 15.0725H28.1064V16.4647Z" fill="#FFDFB6"/>
  <path fill-rule="evenodd" clip-rule="evenodd" d="M28.7458 17.1061H22.5V14.8461L24.3175 13.0029C24.3179 13.0024 24.3184 13.002 24.3188 13.0015C24.895 12.41 25.2667 11.9841 25.4601 11.7108L25.463 11.7066L25.4661 11.7025C25.6267 11.483 25.6906 11.2767 25.6906 11.071C25.6906 10.9425 25.6731 10.8692 25.6596 10.8336C25.6552 10.8218 25.6516 10.8152 25.6496 10.812L25.6483 10.8109L25.6433 10.807C25.6131 10.7831 25.5093 10.7248 25.24 10.7248C24.7594 10.7248 24.2273 10.7679 23.6422 10.8568L23.6338 10.858L22.6733 10.9781L22.5147 8.55368L22.9991 8.4054C23.8193 8.15431 24.6676 8.0293 25.5417 8.0293C26.4368 8.0293 27.2277 8.22925 27.7972 8.7418C28.3795 9.26589 28.6182 10.0141 28.6182 10.8621C28.6182 11.5286 28.4733 12.1406 28.1575 12.6735C27.8618 13.1724 27.3584 13.7295 26.6935 14.3389L26.6903 14.3418L26.5886 14.4338H28.7458V17.1061ZM24.9268 15.0738L26.261 13.8672C26.9108 13.2716 27.3594 12.7649 27.6069 12.3472C27.8544 11.9296 27.9782 11.4345 27.9782 10.8621C27.9782 9.40025 27.166 8.6693 25.5417 8.6693C24.7295 8.6693 23.9444 8.78532 23.1864 9.01737L23.2676 10.2588L23.5461 10.224C23.667 10.2056 23.7862 10.1891 23.9035 10.1744C24.3788 10.1146 24.8244 10.0848 25.24 10.0848C25.5881 10.0848 25.8549 10.1583 26.0406 10.3052C26.234 10.4522 26.3306 10.7074 26.3306 11.071C26.3306 11.4268 26.2146 11.7633 25.9826 12.0804C25.7583 12.3975 25.356 12.8539 24.7759 13.4495L23.14 15.1086V16.4661H28.1058V15.0738H24.9268Z" fill="black"/>
</svg>