<svg xmlns="http://www.w3.org/2000/svg" width="140" height="140" viewBox="0 0 140 140" fill="none">
  <g clip-path="url(#clip0_6326_21)">
    <path d="M14.2773 102.887L45.3835 125.544V133.879L14.2773 111.222V102.887Z" fill="#FFA017"/>
    <path d="M137.678 102.887L106.096 125.553V133.888L137.678 111.222V102.887Z" fill="#FFD494"/>
    <path d="M44.6895 125.413H106.783V134.01H44.6895V125.413Z" fill="#FFBF60"/>
    <path d="M45.0245 83.0585L106.857 83.0585L137.773 103.468L106.857 126.497L45.0246 126.497L14.1085 103.468L45.0245 83.0585Z" fill="#FFF1DC"/>
    <path fill-rule="evenodd" clip-rule="evenodd" d="M76.0189 115.894C96.7108 115.894 113.485 110.322 113.485 103.449C113.485 103.317 113.479 103.187 113.467 103.056H113.485V98.8641H110.861C105.365 94.2599 91.8365 91.0039 76.0189 91.0039C60.2013 91.0039 46.6731 94.2599 41.1773 98.8641H38.5527V103.056H38.5712C38.559 103.187 38.5529 103.317 38.5529 103.449C38.5529 110.322 55.327 115.894 76.0189 115.894Z" fill="#FFA017"/>
    <ellipse cx="76.0188" cy="99.5192" rx="37.466" ry="12.445" fill="#FFD494"/>
    <path d="M112.985 92.5807C112.985 94.0794 112.071 95.5874 110.232 97.0317C108.398 98.4714 105.715 99.7898 102.354 100.906C95.6369 103.137 86.3261 104.526 76.0187 104.526C65.7114 104.526 56.4006 103.137 49.6839 100.906C46.3229 99.7898 43.6391 98.4714 41.8058 97.0317C39.9667 95.5874 39.0527 94.0794 39.0527 92.5807C39.0527 91.0821 39.9667 89.5741 41.8058 88.1298C43.6391 86.6901 46.3229 85.3717 49.6839 84.2553C56.4006 82.0242 65.7114 80.6357 76.0187 80.6357C86.3261 80.6357 95.6369 82.0242 102.354 84.2553C105.715 85.3717 108.398 86.6901 110.232 88.1298C112.071 89.5741 112.985 91.0821 112.985 92.5807Z" stroke="black"/>
    <path d="M47.431 27.1342C47.431 26.7765 47.4128 26.4233 47.3811 26.0746L49.7402 25.4566L48.6818 21.4165L46.2775 22.0447C45.7703 20.9886 45.1104 20.0207 44.3259 19.1672L45.8699 17.1681L42.5634 14.6166L41.0012 16.6417C39.9892 16.1256 38.8946 15.752 37.7422 15.546V12.9707H33.5652V15.5449C32.4706 15.7407 31.4269 16.0871 30.4579 16.5636L28.9252 14.517L25.5824 17.021L27.0993 19.045C26.5231 19.654 26.0092 20.3241 25.5722 21.0463L23.2256 20.1826L21.7823 24.1016L24.0836 24.9494C23.9501 25.6569 23.8765 26.3859 23.8765 27.1342C23.8765 27.3911 23.8889 27.6481 23.9048 27.9017L21.5684 28.5129L22.6268 32.5541L24.9111 31.9565C25.4069 33.0579 26.0658 34.071 26.8582 34.9619L25.4386 36.8025L28.7452 39.3551L30.1443 37.544C31.1993 38.1032 32.3517 38.505 33.5663 38.7224V40.9999H37.7434V38.7224C38.9003 38.5152 39.9983 38.1405 41.0103 37.6221L42.3834 39.4559L45.7273 36.9519L44.335 35.0943C44.9247 34.4514 45.442 33.7405 45.879 32.9775L48.0841 33.7903L49.5263 29.8713L47.2747 29.0427C47.3766 28.4179 47.431 27.7828 47.431 27.1342ZM35.6549 35.0038C31.2265 35.0038 27.6358 31.4131 27.6358 26.9847C27.6358 22.5564 31.2254 18.9657 35.6549 18.9657C40.0832 18.9657 43.6739 22.5553 43.6739 26.9847C43.6739 31.4131 40.0832 35.0038 35.6549 35.0038Z" fill="#FFB852" stroke="black" stroke-miterlimit="10"/>
    <path d="M64.5245 11.0956C64.5245 10.8659 64.513 10.6391 64.4927 10.4152L66 10.0183L65.3237 7.42377L63.7875 7.82723C63.4635 7.14898 63.0418 6.52744 62.5406 5.97932L63.5271 4.69553L61.4145 3.05698L60.4164 4.3575C59.7698 4.02601 59.0704 3.78612 58.3341 3.65381V2H55.6652V3.65308C54.9658 3.77885 54.299 4.00129 53.6798 4.30734L52.7005 2.99301L50.5647 4.60103L51.5339 5.90081C51.1657 6.29191 50.8374 6.72226 50.5582 7.18606L49.0589 6.6314L48.1367 9.1481L49.6071 9.69258C49.5218 10.1469 49.4747 10.6151 49.4747 11.0956C49.4747 11.2606 49.4827 11.4256 49.4928 11.5885L48 11.981L48.6763 14.5762L50.1358 14.1924C50.4526 14.8997 50.8735 15.5503 51.3798 16.1225L50.4729 17.3045L52.5855 18.9437L53.4795 17.7806C54.1536 18.1397 54.8899 18.3978 55.6659 18.5374V20H58.3348V18.5374C59.074 18.4043 59.7755 18.1637 60.4221 17.8308L61.2995 19.0084L63.436 17.4004L62.5464 16.2075C62.9232 15.7946 63.2537 15.3381 63.5329 14.8481L64.9419 15.3701L65.8633 12.8534L64.4247 12.3212C64.4898 11.92 64.5245 11.5121 64.5245 11.0956ZM57.0004 16.1493C54.1709 16.1493 51.8767 13.8435 51.8767 10.9996C51.8767 8.15581 54.1702 5.84993 57.0004 5.84993C59.8298 5.84993 62.124 8.15508 62.124 10.9996C62.124 13.8435 59.8298 16.1493 57.0004 16.1493Z" fill="#FFB852" stroke="black" stroke-miterlimit="10"/>
    <path d="M67.2925 82.5694L89.4648 64.832L96.2812 73.3527L74.1088 91.09L67.2925 82.5694Z" fill="#FFB852" stroke="black" stroke-miterlimit="10"/>
    <path d="M75.14 39.0355C75.14 39.0355 79.545 39.3334 81.6354 43.8575C81.6354 43.8575 84.6433 51.8014 83.3746 60.8439L87.6966 66.2467L68.8345 81.3359L64.7822 76.2703L60.4319 76.0977C60.4319 76.0977 57.4513 76.1531 55.4925 73.6802L44.3018 59.6914L54.2743 51.7136" fill="white"/>
    <path d="M75.14 39.0355C75.14 39.0355 79.545 39.3334 81.6354 43.8575C81.6354 43.8575 84.6433 51.8014 83.3746 60.8439L87.6966 66.2467L68.8345 81.3359L64.7822 76.2703L60.4319 76.0977C60.4319 76.0977 57.4513 76.1531 55.4925 73.6802L44.3018 59.6914L54.2743 51.7136" stroke="black" stroke-miterlimit="10"/>
    <path d="M41.2553 58.6719C41.2997 58.6299 41.3422 58.5894 41.3937 58.5482L74.0444 32.4285C74.2526 32.2619 74.4549 32.1326 74.6584 32.0251C73.257 27.3987 74.7022 22.1832 78.7067 18.9797C82.614 15.854 87.8509 15.5288 92.0108 17.7241L83.2858 24.7038L89.3469 32.2804L98.0718 25.3006C99.2987 29.839 97.8317 34.8767 93.9244 38.0025C89.9199 41.2059 84.5128 41.4689 80.3085 39.088C80.159 39.2629 79.988 39.4354 79.7817 39.6005L47.1291 65.7217C47.0994 65.7455 47.0708 65.7586 47.0411 65.7824C48.4635 70.4148 47.0227 75.656 43.0083 78.8674C39.103 81.9916 33.8621 82.3199 29.7042 80.1231L38.4291 73.1433L32.3681 65.5668L23.6431 72.5465C22.4147 68.0062 23.8853 62.9688 27.7906 59.8447C31.7474 56.6793 37.0716 56.3819 41.2553 58.6719Z" fill="#FFB852" stroke="black" stroke-miterlimit="10"/>
    <path d="M45.809 59.4274C45.2933 59.84 45.2092 60.5968 45.6217 61.1125C46.0358 61.6302 46.7911 61.7123 47.3068 61.2998L75.9054 38.4216C76.425 38.0059 76.5087 37.2527 76.0946 36.735C75.6805 36.2173 74.9272 36.1336 74.4076 36.5493L45.809 59.4274Z" fill="white" stroke="black" stroke-miterlimit="10"/>
    <path d="M80.2363 21.8672C76.4619 25.033 75.9723 30.6582 79.1381 34.4326" stroke="black" stroke-miterlimit="10"/>
    <path d="M39.646 77.4459C43.4168 74.2797 43.91 68.6548 40.7442 64.8804" stroke="black" stroke-miterlimit="10"/>
    <path d="M62.9788 47.0808C64.2433 48.6616 66.548 48.9159 68.1268 47.6529C69.7076 46.3883 69.9654 44.0841 68.7009 42.5033L64.4169 37.1481C63.1523 35.5674 60.8476 35.3131 59.2669 36.5776C57.6881 37.8406 57.4302 40.1449 58.6948 41.7257L62.9788 47.0808Z" fill="white" stroke="black" stroke-miterlimit="10"/>
    <path d="M56.5555 51.5556C57.8184 53.1344 60.1247 53.3907 61.7035 52.1277C63.2823 50.8647 63.5405 48.5569 62.2775 46.9781L57.3192 40.78C56.0546 39.1992 53.75 38.9449 52.1692 40.2095C50.5904 41.4725 50.3326 43.7767 51.5971 45.3575L56.5555 51.5556Z" fill="white" stroke="black" stroke-miterlimit="10"/>
    <path d="M50.0165 55.1017C51.2795 56.6805 53.5838 56.9384 55.1645 55.6738C56.7433 54.4108 56.9976 52.1062 55.7346 50.5274L52.5946 46.6022C51.33 45.0215 49.0274 44.7656 47.4486 46.0286C45.8698 47.2916 45.6119 49.5958 46.8765 51.1766L50.0165 55.1017Z" fill="white" stroke="black" stroke-miterlimit="10"/>
    <path d="M44.3004 59.6877C45.5634 61.2665 47.8697 61.5228 49.4465 60.2614C51.0253 58.9984 51.2835 56.6906 50.0205 55.1118L47.8817 52.4382C46.6171 50.8574 44.3125 50.6031 42.7317 51.8677C41.1529 53.1307 40.897 55.4334 42.1616 57.0141L44.3004 59.6877Z" fill="white" stroke="black" stroke-miterlimit="10"/>
    <path d="M73.6095 60.6253C65.6389 52.8817 71.2424 45.1594 71.2424 45.1594L62.934 51.8059C58.5185 54.0078 54.7375 49.2814 54.7375 49.2814L67.7883 38.8411L75.1398 39.0328C75.1398 39.0328 79.5794 39.7195 81.6353 43.8549C81.6353 43.8549 84.4924 51.0899 83.3744 60.8413" fill="white"/>
    <path d="M73.6095 60.6253C65.6389 52.8817 71.2424 45.1594 71.2424 45.1594L62.934 51.8059C58.5185 54.0078 54.7375 49.2814 54.7375 49.2814L67.7883 38.8411L75.1398 39.0328C75.1398 39.0328 79.5794 39.7195 81.6353 43.8549C81.6353 43.8549 84.4924 51.0899 83.3744 60.8413" stroke="black" stroke-miterlimit="10" stroke-linejoin="round"/>
    <path d="M72.6104 85.2993C73.2815 86.1383 74.5081 86.2728 75.347 85.6016C76.186 84.9304 76.3221 83.7059 75.6509 82.8669C74.9814 82.0299 73.7552 81.8919 72.9163 82.563C72.0793 83.2326 71.9408 84.4623 72.6104 85.2993Z" fill="white" stroke="black" stroke-miterlimit="10"/>
  </g>
  <defs>
    <clipPath id="clip0_6326_21">
      <rect width="140" height="140" fill="white"/>
    </clipPath>
  </defs>
</svg>