<svg width="280" height="190" viewBox="0 0 280 190" fill="none" xmlns="http://www.w3.org/2000/svg">
<rect width="280" height="190" fill="white"/>
<path opacity="0.7" d="M242.5 45.5H230.5C229.948 45.5 229.5 45.9477 229.5 46.5V58.5C229.5 59.0523 229.948 59.5 230.5 59.5H242.5C243.052 59.5 243.5 59.0523 243.5 58.5V46.5C243.5 45.9477 243.052 45.5 242.5 45.5Z" stroke="#D7D7D7"/>
<path opacity="0.45" d="M78.5 93C90.3741 93 100 83.3741 100 71.5C100 59.6259 90.3741 50 78.5 50C66.6259 50 57 59.6259 57 71.5C57 83.3741 66.6259 93 78.5 93Z" fill="#D7D7D7"/>
<path d="M194 151C198.971 151 203 146.971 203 142C203 137.029 198.971 133 194 133C189.029 133 185 137.029 185 142C185 146.971 189.029 151 194 151Z" fill="#76CE44"/>
<path opacity="0.7" d="M130.464 177.17L123.536 173.17C123.058 172.894 122.446 173.058 122.17 173.536L118.17 180.464C117.894 180.942 118.058 181.554 118.536 181.83L125.464 185.83C125.942 186.106 126.554 185.942 126.83 185.464L130.83 178.536C131.106 178.058 130.942 177.446 130.464 177.17Z" stroke="#D7D7D7"/>
<path opacity="0.5" d="M201.5 104C203.433 104 205 102.433 205 100.5C205 98.567 203.433 97 201.5 97C199.567 97 198 98.567 198 100.5C198 102.433 199.567 104 201.5 104Z" fill="#D7D7D7"/>
<path opacity="0.5" d="M133 7C134.105 7 135 6.10457 135 5C135 3.89543 134.105 3 133 3C131.895 3 131 3.89543 131 5C131 6.10457 131.895 7 133 7Z" fill="#D7D7D7"/>
<path opacity="0.6" d="M178 22C179.105 22 180 21.1046 180 20C180 18.8954 179.105 18 178 18C176.895 18 176 18.8954 176 20C176 21.1046 176.895 22 178 22Z" fill="#D7D7D7"/>
<path opacity="0.6" d="M71.5 127C72.3284 127 73 126.328 73 125.5C73 124.672 72.3284 124 71.5 124C70.6716 124 70 124.672 70 125.5C70 126.328 70.6716 127 71.5 127Z" fill="#D7D7D7"/>
<path fill-rule="evenodd" clip-rule="evenodd" d="M65.4207 154.913L63.9168 163.442C63.725 164.53 62.6877 165.256 61.5999 165.064C61.2542 165.003 60.9306 164.853 60.6617 164.627L54.0275 159.06C53.1814 158.35 53.071 157.089 53.781 156.243C54.0067 155.974 54.2991 155.769 54.629 155.649L62.767 152.687C63.805 152.309 64.9527 152.844 65.3304 153.882C65.4505 154.212 65.4816 154.568 65.4207 154.913Z" stroke="#D7D7D7"/>
<circle cx="140.5" cy="95.5" r="55.5" fill="#FFB852"/>
<path d="M103 20C107.418 20 111 23.5817 111 28C111 32.4183 107.418 36 103 36C98.5817 36 95 32.4183 95 28C95 23.5817 98.5817 20 103 20ZM103 23.5C100.515 23.5 98.5 25.5147 98.5 28C98.5 30.4853 100.515 32.5 103 32.5C105.485 32.5 107.5 30.4853 107.5 28C107.5 25.5147 105.485 23.5 103 23.5Z" fill="#FFD316"/>
<path d="M194.852 43H173.148C172.514 43 172 43.5153 172 44.1509V65.8491C172 66.4847 172.514 67 173.148 67H194.852C195.486 67 196 66.4847 196 65.8491V44.1509C196 43.5153 195.486 43 194.852 43Z" fill="#2F54EB"/>
<path d="M94 134C98.9706 134 103 129.971 103 125C103 120.029 98.9706 116 94 116C89.0294 116 85 120.029 85 125C85 129.971 89.0294 134 94 134Z" fill="#13C2C2"/>
<path fill-rule="evenodd" clip-rule="evenodd" d="M141.282 52L153.564 74.3797L141.282 72.5L129 74.3797L141.282 52Z" fill="#F46F21"/>
<g clip-path="url(#clip0_273_70)">
<path d="M157.971 78.0294C148.593 68.6699 133.408 68.6699 124.029 78.0294C114.67 87.4077 114.67 102.592 124.029 111.971C133.407 121.33 148.592 121.33 157.971 111.971C167.33 102.593 167.33 87.4072 157.971 78.0294ZM141 116C129.408 115.986 120.014 106.592 120 95C120.014 83.4079 129.408 74.0136 141 74C152.592 74.0136 161.986 83.4079 162 95C161.987 106.592 152.592 115.986 141 116ZM130.719 92.1763C129.338 92.1763 128.217 91.056 128.217 89.6741C128.217 88.2922 129.338 87.1719 130.719 87.1719C132.101 87.1719 133.222 88.2922 133.222 89.6741C133.222 91.056 132.102 92.1763 130.719 92.1763ZM150.895 92.1763C149.513 92.1763 148.393 91.056 148.393 89.6741C148.393 88.2922 149.513 87.1719 150.895 87.1719C152.277 87.1719 153.398 88.2922 153.398 89.6741C153.398 91.056 152.277 92.1763 150.895 92.1763ZM140.985 108.582C135.285 108.582 131.329 105.775 128.465 101.491C128 100.757 128.206 99.7869 128.93 99.305C129.653 98.8236 130.629 99.0069 131.128 99.7185C133.456 103.198 136.537 105.384 140.985 105.384C145.432 105.384 148.513 103.198 150.841 99.7185C150.997 99.4849 151.212 99.2964 151.463 99.172C151.715 99.0476 151.995 98.9916 152.275 99.0097C152.555 99.0277 152.826 99.1191 153.059 99.2747C153.293 99.4303 153.481 99.6446 153.606 99.8961C153.731 100.148 153.787 100.427 153.769 100.707C153.751 100.988 153.659 101.258 153.503 101.491C150.642 105.775 146.685 108.582 140.985 108.582Z" fill="white"/>
</g>
<defs>
<clipPath id="clip0_273_70">
<rect width="48" height="48" fill="white" transform="translate(117 71)"/>
</clipPath>
</defs>
</svg>
