<svg width="361" height="60" viewBox="0 0 361 60" fill="none" xmlns="http://www.w3.org/2000/svg">
<path d="M1.35 6.9V5.9H0.35V6.9H1.35ZM47.7 6.9H48.7V5.9H47.7V6.9ZM47.7 18.5V19.5H48.7V18.5H47.7ZM30.35 18.5V17.5H29.35V18.5H30.35ZM30.35 42V43H31.35V42H30.35ZM18.75 42H17.75V43H18.75V42ZM18.75 18.5H19.75V17.5H18.75V18.5ZM1.35 18.5H0.35V19.5H1.35V18.5ZM1.35 7.9H47.7V5.9H1.35V7.9ZM46.7 6.9V18.5H48.7V6.9H46.7ZM47.7 17.5H30.35V19.5H47.7V17.5ZM29.35 18.5V42H31.35V18.5H29.35ZM30.35 41H18.75V43H30.35V41ZM19.75 42V18.5H17.75V42H19.75ZM18.75 17.5H1.35V19.5H18.75V17.5ZM2.35 18.5V6.9H0.35V18.5H2.35ZM83.0211 6.9V5.9H82.0211V6.9H83.0211ZM94.6711 6.9H95.6711V5.9H94.6711V6.9ZM94.6711 42V43H95.6711V42H94.6711ZM83.0211 42H82.0211V43H83.0211V42ZM83.0211 29.8H84.0211V28.8H83.0211V29.8ZM62.1211 29.8V28.8H61.1211V29.8H62.1211ZM62.1211 42V43H63.1211V42H62.1211ZM50.4711 42H49.4711V43H50.4711V42ZM50.4711 6.9V5.9H49.4711V6.9H50.4711ZM62.1211 6.9H63.1211V5.9H62.1211V6.9ZM62.1211 19.05H61.1211V20.05H62.1211V19.05ZM83.0211 19.05V20.05H84.0211V19.05H83.0211ZM83.0211 7.9H94.6711V5.9H83.0211V7.9ZM93.6711 6.9V42H95.6711V6.9H93.6711ZM94.6711 41H83.0211V43H94.6711V41ZM84.0211 42V29.8H82.0211V42H84.0211ZM83.0211 28.8H62.1211V30.8H83.0211V28.8ZM61.1211 29.8V42H63.1211V29.8H61.1211ZM62.1211 41H50.4711V43H62.1211V41ZM51.4711 42V6.9H49.4711V42H51.4711ZM50.4711 7.9H62.1211V5.9H50.4711V7.9ZM61.1211 6.9V19.05H63.1211V6.9H61.1211ZM62.1211 20.05H83.0211V18.05H62.1211V20.05ZM84.0211 19.05V6.9H82.0211V19.05H84.0211ZM98.9668 6.9V5.9H97.9668V6.9H98.9668ZM137.717 6.9H138.717V5.9H137.717V6.9ZM137.717 16.65V17.65H138.717V16.65H137.717ZM110.617 16.65V15.65H109.617V16.65H110.617ZM110.617 19.75H109.617V20.75H110.617V19.75ZM136.017 19.75H137.017V18.75H136.017V19.75ZM136.017 29.1V30.1H137.017V29.1H136.017ZM110.617 29.1V28.1H109.617V29.1H110.617ZM110.617 32.25H109.617V33.25H110.617V32.25ZM137.717 32.25H138.717V31.25H137.717V32.25ZM137.717 42V43H138.717V42H137.717ZM98.9668 42H97.9668V43H98.9668V42ZM98.9668 7.9H137.717V5.9H98.9668V7.9ZM136.717 6.9V16.65H138.717V6.9H136.717ZM137.717 15.65H110.617V17.65H137.717V15.65ZM109.617 16.65V19.75H111.617V16.65H109.617ZM110.617 20.75H136.017V18.75H110.617V20.75ZM135.017 19.75V29.1H137.017V19.75H135.017ZM136.017 28.1H110.617V30.1H136.017V28.1ZM109.617 29.1V32.25H111.617V29.1H109.617ZM110.617 33.25H137.717V31.25H110.617V33.25ZM136.717 32.25V42H138.717V32.25H136.717ZM137.717 41H98.9668V43H137.717V41ZM99.9668 42V6.9H97.9668V42H99.9668ZM194.482 42V43H195.058L195.347 42.5021L194.482 42ZM184.882 42L184.011 42.4897L184.297 43H184.882V42ZM176.232 26.6L177.104 26.1103L175.232 22.7777V26.6H176.232ZM176.232 42V43H177.232V42H176.232ZM164.582 42H163.582V43H164.582V42ZM164.582 6.9V5.9H163.582V6.9H164.582ZM178.482 6.9L179.346 6.39599L179.057 5.9H178.482V6.9ZM189.832 26.35L188.969 26.854L189.832 28.3341L190.696 26.854L189.832 26.35ZM201.182 6.9V5.9H200.608L200.319 6.39599L201.182 6.9ZM215.132 6.9H216.132V5.9H215.132V6.9ZM215.132 42V43H216.132V42H215.132ZM203.482 42H202.482V43H203.482V42ZM203.482 26.5H204.482V22.7863L202.618 25.9979L203.482 26.5ZM194.482 41H184.882V43H194.482V41ZM185.754 41.5103L177.104 26.1103L175.361 27.0897L184.011 42.4897L185.754 41.5103ZM175.232 26.6V42H177.232V26.6H175.232ZM176.232 41H164.582V43H176.232V41ZM165.582 42V6.9H163.582V42H165.582ZM164.582 7.9H178.482V5.9H164.582V7.9ZM177.619 7.40401L188.969 26.854L190.696 25.846L179.346 6.39599L177.619 7.40401ZM190.696 26.854L202.046 7.40401L200.319 6.39599L188.969 25.846L190.696 26.854ZM201.182 7.9H215.132V5.9H201.182V7.9ZM214.132 6.9V42H216.132V6.9H214.132ZM215.132 41H203.482V43H215.132V41ZM204.482 42V26.5H202.482V42H204.482ZM202.618 25.9979L193.618 41.4979L195.347 42.5021L204.347 27.0021L202.618 25.9979ZM249.017 6.9L248.868 7.88892L248.881 7.89075L249.017 6.9ZM255.767 8.65L256.141 7.72256V7.72256L255.767 8.65ZM260.817 11.95L260.092 12.6392L260.101 12.6483L260.11 12.6571L260.817 11.95ZM263.917 17.05L262.974 17.3844L262.976 17.3893L263.917 17.05ZM264.017 31.35L263.068 31.0338L263.066 31.0409L263.063 31.0481L264.017 31.35ZM261.217 36.45L260.466 35.789L260.465 35.7902L261.217 36.45ZM256.417 39.8L256.807 40.7208L256.814 40.7176L256.417 39.8ZM249.717 41.6L249.572 40.6106L249.717 41.6ZM222.917 37.65L222.286 38.4262L222.294 38.4322L222.917 37.65ZM223.067 10.6L223.657 11.4075L223.661 11.4042L223.067 10.6ZM249.267 30.8L248.671 29.9967V29.9967L249.267 30.8ZM249.117 17.8L248.523 18.6048L248.532 18.611L249.117 17.8ZM236.167 16.15L236.426 17.1158L236.437 17.1129L236.448 17.1097L236.167 16.15ZM232.767 17.85L232.118 17.0888L232.111 17.0948L232.104 17.101L232.767 17.85ZM230.817 20.6L231.743 20.9764L230.817 20.6ZM232.917 30.6L232.259 31.3535L232.267 31.3602L232.917 30.6ZM240.617 7.35C243.747 7.35 246.495 7.53135 248.868 7.88884L249.166 5.91116C246.672 5.53531 243.82 5.35 240.617 5.35V7.35ZM248.881 7.89075C251.241 8.21401 253.41 8.77791 255.393 9.57744L256.141 7.72256C253.99 6.85542 251.659 6.25265 249.153 5.90925L248.881 7.89075ZM255.393 9.57744C257.351 10.3669 258.907 11.3932 260.092 12.6392L261.541 11.2608C260.127 9.77349 258.316 8.59975 256.141 7.72256L255.393 9.57744ZM260.11 12.6571C261.322 13.8694 262.283 15.4352 262.974 17.3844L264.859 16.7156C264.084 14.5315 262.978 12.6972 261.524 11.2429L260.11 12.6571ZM262.976 17.3893C263.661 19.2881 264.017 21.5682 264.017 24.25H266.017C266.017 21.3985 265.639 18.8785 264.857 16.7107L262.976 17.3893ZM264.017 24.25C264.017 26.906 263.692 29.1609 263.068 31.0338L264.965 31.6662C265.674 29.5391 266.017 27.0607 266.017 24.25H264.017ZM263.063 31.0481C262.467 32.9321 261.597 34.5055 260.466 35.789L261.967 37.111C263.303 35.5945 264.3 33.7679 264.97 31.6519L263.063 31.0481ZM260.465 35.7902C259.38 37.026 257.91 38.063 256.019 38.8824L256.814 40.7176C258.923 39.8037 260.653 38.6073 261.968 37.1098L260.465 35.7902ZM256.027 38.8792C254.151 39.674 252.002 40.2541 249.572 40.6106L249.862 42.5894C252.431 42.2126 254.749 41.5927 256.807 40.7208L256.027 38.8792ZM249.572 40.6106C247.132 40.9684 244.266 41.15 240.967 41.15V43.15C244.334 43.15 247.301 42.9649 249.862 42.5894L249.572 40.6106ZM240.967 41.15C232.78 41.15 227.041 39.6566 223.54 36.8678L222.294 38.4322C226.326 41.6434 232.621 43.15 240.967 43.15V41.15ZM223.547 36.8739C220.117 34.0868 218.317 29.7346 218.317 23.6H216.317C216.317 30.1321 218.25 35.1466 222.286 38.4261L223.547 36.8739ZM218.317 23.6C218.317 17.9683 220.142 13.9745 223.657 11.4075L222.477 9.79248C218.325 12.8255 216.317 17.4984 216.317 23.6H218.317ZM223.661 11.4042C227.243 8.75703 232.837 7.35 240.617 7.35V5.35C232.663 5.35 226.558 6.7763 222.472 9.79582L223.661 11.4042ZM241.067 33.95C244.719 33.95 247.693 33.2117 249.862 31.6033L248.671 29.9967C246.974 31.255 244.482 31.95 241.067 31.95V33.95ZM249.862 31.6033C252.107 29.9394 253.167 27.4224 253.167 24.25H251.167C251.167 26.9443 250.294 28.7939 248.671 29.9967L249.862 31.6033ZM253.167 24.25C253.167 21.1436 252.033 18.6701 249.702 16.989L248.532 18.611C250.268 19.8632 251.167 21.6898 251.167 24.25H253.167ZM249.71 16.9953C247.453 15.33 244.488 14.55 240.917 14.55V16.55C244.212 16.55 246.714 17.27 248.523 18.6047L249.71 16.9953ZM240.917 14.55C239.046 14.55 237.364 14.7576 235.886 15.1903L236.448 17.1097C237.703 16.7424 239.188 16.55 240.917 16.55V14.55ZM235.908 15.1842C234.426 15.5818 233.151 16.2087 232.118 17.0888L233.415 18.6112C234.182 17.9579 235.175 17.4515 236.426 17.1158L235.908 15.1842ZM232.104 17.101C231.123 17.9693 230.382 19.0133 229.89 20.2236L231.743 20.9764C232.118 20.0533 232.678 19.264 233.429 18.599L232.104 17.101ZM229.89 20.2236C229.4 21.43 229.167 22.778 229.167 24.25H231.167C231.167 22.9887 231.367 21.9034 231.743 20.9764L229.89 20.2236ZM229.167 24.25C229.167 27.1454 230.189 29.5466 232.259 31.3534L233.574 29.8466C231.978 28.4534 231.167 26.6213 231.167 24.25H229.167ZM232.267 31.3602C234.352 33.1422 237.342 33.95 241.067 33.95V31.95C237.591 31.95 235.148 31.1911 233.566 29.8398L232.267 31.3602ZM296.038 7.25L295.963 8.24722L295.971 8.24778L295.978 8.24822L296.038 7.25ZM301.988 8.05L301.763 9.02439L301.988 8.05ZM306.138 9.55L305.636 10.4148L305.652 10.4243L305.669 10.4331L306.138 9.55ZM308.738 11.9L307.906 12.4547L307.912 12.4642L307.919 12.4735L308.738 11.9ZM310.188 15.25L309.21 15.4613L309.212 15.4669L310.188 15.25ZM310.588 19.7V20.7H311.588V19.7H310.588ZM298.188 19.7H297.188V20.7H298.188V19.7ZM297.888 18.45L297.014 18.9356L297.033 18.971L297.056 19.0047L297.888 18.45ZM296.688 17.6L296.26 18.5037L296.28 18.5131L296.3 18.5216L296.688 17.6ZM293.688 17L293.591 17.9953L293.603 17.9965L293.615 17.9973L293.688 17ZM281.788 17L281.885 17.9953L281.788 17ZM279.188 17.5L279.667 18.3779L279.188 17.5ZM278.638 18.55H277.638V18.5884L277.641 18.6267L278.638 18.55ZM279.988 19.45L279.799 20.432L279.82 20.4361L279.841 20.4392L279.988 19.45ZM287.988 20.2L287.905 21.1966L287.947 21.2H287.988V20.2ZM288.138 20.25L287.431 20.9571L287.691 21.2176L288.059 21.2468L288.138 20.25ZM304.888 22.15L304.655 23.1225L304.658 23.1231L304.888 22.15ZM310.888 25.9L311.782 25.4528L311.779 25.4461L310.888 25.9ZM311.438 35.05L310.462 34.8297L310.459 34.8448L310.456 34.86L311.438 35.05ZM310.138 37.9L309.345 37.2903L309.338 37.3L309.331 37.31L310.138 37.9ZM307.638 39.95L308.049 40.8614L308.062 40.8559L308.073 40.8502L307.638 39.95ZM303.338 41.15L303.159 40.1661L303.338 41.15ZM297.038 41.85L297.081 42.8492L297.094 42.8484L297.038 41.85ZM282.038 41.9L281.999 42.8993L282 42.8993L282.038 41.9ZM277.138 41.55L277.027 42.5439L277.03 42.5441L277.138 41.55ZM273.388 40.9L273.646 39.9338L273.388 40.9ZM270.688 39.8L270.184 40.6638L270.688 39.8ZM268.788 38.3L267.994 38.9075L268.014 38.9337L268.035 38.9585L268.788 38.3ZM267.688 36.15L266.743 36.4771L267.688 36.15ZM267.088 33.4L268.083 33.2971L267.088 33.4ZM266.938 29.95V28.95H265.938V29.95H266.938ZM278.988 29.95H279.988V28.95H278.988V29.95ZM279.238 31.25L278.364 31.7356L278.383 31.771L278.406 31.8047L279.238 31.25ZM280.588 32L280.313 32.9615L280.588 32ZM283.488 32.4L283.434 33.3985L283.435 33.3986L283.488 32.4ZM296.938 32.3L296.78 31.3125L296.773 31.3136L296.938 32.3ZM297.338 30.15L297.567 29.1766L297.338 30.15ZM292.638 29.7L292.567 30.6975L292.573 30.6979L292.638 29.7ZM287.988 29.35L287.903 30.3464L287.907 30.3467L287.988 29.35ZM283.438 28.95L283.342 29.9454L283.345 29.9456L283.438 28.95ZM279.538 28.55L279.409 29.5416L279.42 29.5431L279.432 29.5444L279.538 28.55ZM276.038 28L275.795 28.9701L275.815 28.9749L275.834 28.979L276.038 28ZM273.188 27.3L272.925 28.2648L272.938 28.2685L272.952 28.2719L273.188 27.3ZM270.688 26.3L270.121 27.124L270.133 27.132L270.145 27.1396L270.688 26.3ZM268.888 25L268.268 25.7849L268.278 25.7926L268.288 25.8L268.888 25ZM267.488 23.3L266.566 23.6881L266.575 23.7083L266.584 23.7281L267.488 23.3ZM266.738 21.15L265.766 21.3834L265.771 21.4068L265.778 21.43L266.738 21.15ZM266.688 15.3L267.672 15.4758L266.688 15.3ZM267.388 12.8L266.462 12.4214V12.4214L267.388 12.8ZM268.638 10.85L267.91 10.1646L268.638 10.85ZM270.338 9.4L270.893 10.2321L270.908 10.2217L270.923 10.2107L270.338 9.4ZM272.638 8.35L272.913 9.31152L272.923 9.30841L272.934 9.30506L272.638 8.35ZM275.488 7.65L275.318 6.66452L275.312 6.66557L275.488 7.65ZM279.038 7.25L278.967 6.25254L279.038 7.25ZM283.138 7.05L283.113 6.05029L283.113 6.05031L283.138 7.05ZM287.988 8C291.105 8 293.762 8.08297 295.963 8.24722L296.112 6.25277C293.847 6.08369 291.137 6 287.988 6V8ZM295.978 8.24822C298.169 8.37904 300.096 8.63964 301.763 9.02439L302.213 7.07561C300.413 6.66036 298.373 6.38763 296.097 6.25177L295.978 8.24822ZM301.763 9.02439C303.442 9.41177 304.72 9.88304 305.636 10.4148L306.64 8.68521C305.489 8.01695 304.001 7.48823 302.213 7.07561L301.763 9.02439ZM305.669 10.4331C306.59 10.9225 307.332 11.5933 307.906 12.4547L309.57 11.3453C308.811 10.2067 307.819 9.31087 306.607 8.66688L305.669 10.4331ZM307.919 12.4735C308.54 13.3608 308.971 14.3535 309.21 15.4613L311.165 15.0387C310.871 13.6798 310.336 12.4392 309.557 11.3265L307.919 12.4735ZM309.212 15.4669C309.457 16.5722 309.588 17.9775 309.588 19.7H311.588C311.588 17.8891 311.452 16.3278 311.164 15.0331L309.212 15.4669ZM310.588 18.7H298.188V20.7H310.588V18.7ZM299.188 19.7C299.188 19.0585 299.07 18.4207 298.72 17.8953L297.056 19.0047C297.106 19.0793 297.188 19.2748 297.188 19.7H299.188ZM298.762 17.9644C298.421 17.351 297.742 16.9587 297.076 16.6784L296.3 18.5216C296.574 18.6371 296.763 18.7418 296.885 18.8285C297.011 18.9181 297.027 18.9603 297.014 18.9356L298.762 17.9644ZM297.116 16.6963C296.309 16.3141 295.156 16.1047 293.761 16.0027L293.615 17.9973C294.953 18.0953 295.8 18.2859 296.26 18.5037L297.116 16.6963ZM293.785 16.0047C292.372 15.8669 290.536 15.8 288.288 15.8V17.8C290.506 17.8 292.27 17.8664 293.591 17.9953L293.785 16.0047ZM288.288 15.8C285.317 15.8 283.109 15.8664 281.691 16.0047L281.885 17.9953C283.2 17.867 285.325 17.8 288.288 17.8V15.8ZM281.691 16.0047C280.992 16.0729 280.4 16.1516 279.924 16.243C279.476 16.3291 279.037 16.4431 278.709 16.6221L279.667 18.3779C279.666 18.3781 279.67 18.3763 279.678 18.3727C279.685 18.3691 279.697 18.3642 279.712 18.3583C279.743 18.3462 279.785 18.3315 279.842 18.3148C279.955 18.2811 280.107 18.2446 280.302 18.207C280.693 18.1318 281.218 18.0604 281.885 17.9953L281.691 16.0047ZM278.709 16.6221C277.952 17.0351 277.638 17.7702 277.638 18.55H279.638C279.638 18.4856 279.644 18.4415 279.65 18.414C279.656 18.3871 279.661 18.3766 279.661 18.3765C279.661 18.3763 279.661 18.3775 279.659 18.3796C279.658 18.3818 279.656 18.3837 279.654 18.3852C279.651 18.3888 279.653 18.3855 279.667 18.3779L278.709 16.6221ZM277.641 18.6267C277.687 19.2237 278.034 19.6575 278.446 19.932C278.83 20.188 279.307 20.3374 279.799 20.432L280.177 18.468C279.802 18.3959 279.621 18.312 279.555 18.2679C279.529 18.2505 279.548 18.257 279.576 18.2997C279.608 18.3481 279.63 18.4107 279.635 18.4733L277.641 18.6267ZM279.841 20.4392C280.781 20.5785 283.488 20.8313 287.905 21.1966L288.07 19.2034C283.621 18.8354 280.994 18.5882 280.134 18.4608L279.841 20.4392ZM287.988 21.2C287.9 21.2 287.651 21.1775 287.431 20.9571L288.845 19.5429C288.558 19.2559 288.209 19.2 287.988 19.2V21.2ZM288.059 21.2468C296.883 21.9488 302.38 22.5778 304.655 23.1225L305.121 21.1775C302.662 20.5889 296.993 19.9512 288.217 19.2531L288.059 21.2468ZM304.658 23.1231C307.643 23.8293 309.293 24.973 309.997 26.3539L311.779 25.4461C310.682 23.2937 308.333 21.9374 305.118 21.1769L304.658 23.1231ZM309.993 26.3472C310.492 27.3438 310.788 28.8952 310.788 31.1H312.788C312.788 28.7714 312.484 26.8562 311.782 25.4528L309.993 26.3472ZM310.788 31.1C310.788 32.6594 310.673 33.8953 310.462 34.8297L312.413 35.2703C312.669 34.138 312.788 32.7406 312.788 31.1H310.788ZM310.456 34.86C310.287 35.7346 309.921 36.542 309.345 37.2903L310.931 38.5097C311.688 37.5247 312.189 36.4321 312.42 35.24L310.456 34.86ZM309.331 37.31C308.801 38.0352 308.099 38.6161 307.202 39.0498L308.073 40.8502C309.244 40.2839 310.209 39.4981 310.945 38.49L309.331 37.31ZM307.226 39.0386C306.299 39.4572 304.956 39.8393 303.159 40.1661L303.517 42.1339C305.386 41.794 306.91 41.3761 308.049 40.8614L307.226 39.0386ZM303.159 40.1661C301.375 40.4904 299.318 40.72 296.982 40.8516L297.094 42.8484C299.491 42.7134 301.634 42.4762 303.517 42.1339L303.159 40.1661ZM296.995 40.8509C294.681 40.9501 291.78 41 288.288 41V43C291.796 43 294.728 42.9499 297.081 42.8491L296.995 40.8509ZM288.288 41C285.896 41 283.826 40.9668 282.076 40.9007L282 42.8993C283.783 42.9666 285.879 43 288.288 43V41ZM282.076 40.9007C280.363 40.8349 278.754 40.7197 277.246 40.5559L277.03 42.5441C278.589 42.7136 280.246 42.8318 281.999 42.8993L282.076 40.9007ZM277.248 40.5561C275.778 40.3927 274.581 40.1832 273.646 39.9338L273.13 41.8662C274.195 42.1502 275.498 42.374 277.027 42.5439L277.248 40.5561ZM273.646 39.9338C272.722 39.6874 271.906 39.353 271.192 38.9362L270.184 40.6638C271.07 41.1804 272.054 41.5792 273.13 41.8662L273.646 39.9338ZM271.192 38.9362C270.458 38.5083 269.918 38.0728 269.54 37.6415L268.035 38.9585C268.591 39.5939 269.318 40.1584 270.184 40.6638L271.192 38.9362ZM269.582 37.6926C269.229 37.2309 268.907 36.616 268.633 35.8229L266.743 36.4771C267.068 37.4174 267.48 38.2357 267.994 38.9075L269.582 37.6926ZM268.633 35.8229C268.359 35.033 268.175 34.1919 268.083 33.2971L266.093 33.5029C266.201 34.5414 266.416 35.5337 266.743 36.4771L268.633 35.8229ZM268.083 33.2971C267.987 32.3745 267.938 31.2606 267.938 29.95H265.938C265.938 31.3061 265.989 32.4921 266.093 33.5029L268.083 33.2971ZM266.938 30.95H278.988V28.95H266.938V30.95ZM277.988 29.95C277.988 30.5884 278.077 31.22 278.364 31.7356L280.112 30.7644C280.065 30.68 279.988 30.4449 279.988 29.95H277.988ZM278.406 31.8047C278.818 32.4232 279.581 32.7525 280.313 32.9615L280.863 31.0385C280.558 30.9516 280.348 30.8645 280.211 30.7883C280.07 30.7098 280.052 30.6683 280.07 30.6953L278.406 31.8047ZM280.313 32.9615C281.118 33.1914 282.17 33.3302 283.434 33.3985L283.542 31.4015C282.339 31.3365 281.458 31.2086 280.863 31.0385L280.313 32.9615ZM283.435 33.3986C284.728 33.4667 286.532 33.5 288.838 33.5V31.5C286.544 31.5 284.781 31.4667 283.54 31.4014L283.435 33.3986ZM288.838 33.5C288.838 33.5 288.839 33.5 288.839 33.5C288.84 33.5 288.841 33.5 288.841 33.5C288.842 33.5 288.842 33.5 288.843 33.5C288.843 33.5 288.844 33.5 288.844 33.5C288.845 33.5 288.845 33.5 288.846 33.5C288.846 33.5 288.847 33.5 288.847 33.5C288.848 33.5 288.848 33.5 288.849 33.5C288.849 33.5 288.85 33.5 288.85 33.5C288.851 33.5 288.852 33.5 288.852 33.5C288.853 33.5 288.853 33.5 288.854 33.5C288.854 33.5 288.855 33.5 288.855 33.5C288.856 33.5 288.856 33.5 288.857 33.5C288.857 33.5 288.858 33.5 288.858 33.5C288.859 33.5 288.86 33.5 288.86 33.5C288.861 33.5 288.861 33.5 288.862 33.5C288.862 33.5 288.863 33.5 288.863 33.5C288.864 33.5 288.864 33.5 288.865 33.5C288.865 33.5 288.866 33.5 288.867 33.5C288.867 33.5 288.868 33.5 288.868 33.5C288.869 33.5 288.869 33.5 288.87 33.5C288.87 33.5 288.871 33.5 288.871 33.5C288.872 33.5 288.872 33.5 288.873 33.5C288.874 33.5 288.874 33.5 288.875 33.5C288.875 33.5 288.876 33.5 288.876 33.5C288.877 33.5 288.877 33.5 288.878 33.5C288.878 33.5 288.879 33.5 288.88 33.5C288.88 33.5 288.881 33.5 288.881 33.5C288.882 33.5 288.882 33.5 288.883 33.5C288.883 33.5 288.884 33.5 288.884 33.5C288.885 33.5 288.886 33.5 288.886 33.5C288.887 33.5 288.887 33.5 288.888 33.5C288.888 33.5 288.889 33.5 288.889 33.5C288.89 33.5 288.891 33.5 288.891 33.5C288.892 33.5 288.892 33.5 288.893 33.5C288.893 33.5 288.894 33.5 288.894 33.5C288.895 33.5 288.896 33.5 288.896 33.5C288.897 33.5 288.897 33.5 288.898 33.5C288.898 33.5 288.899 33.5 288.899 33.5C288.9 33.5 288.901 33.5 288.901 33.5C288.902 33.5 288.902 33.5 288.903 33.5C288.903 33.5 288.904 33.5 288.905 33.5C288.905 33.5 288.906 33.5 288.906 33.5C288.907 33.5 288.907 33.5 288.908 33.5C288.908 33.5 288.909 33.5 288.91 33.5C288.91 33.5 288.911 33.5 288.911 33.5C288.912 33.5 288.912 33.5 288.913 33.5C288.914 33.5 288.914 33.5 288.915 33.5C288.915 33.5 288.916 33.5 288.916 33.5C288.917 33.5 288.918 33.5 288.918 33.5C288.919 33.5 288.919 33.5 288.92 33.5C288.92 33.5 288.921 33.5 288.922 33.5C288.922 33.5 288.923 33.5 288.923 33.5C288.924 33.5 288.924 33.5 288.925 33.5C288.926 33.5 288.926 33.5 288.927 33.5C288.927 33.5 288.928 33.5 288.928 33.5C288.929 33.5 288.93 33.5 288.93 33.5C288.931 33.5 288.931 33.5 288.932 33.5C288.932 33.5 288.933 33.5 288.934 33.5C288.934 33.5 288.935 33.5 288.935 33.5C288.936 33.5 288.937 33.5 288.937 33.5C288.938 33.5 288.938 33.5 288.939 33.5C288.939 33.5 288.94 33.5 288.941 33.5C288.941 33.5 288.942 33.5 288.942 33.5C288.943 33.5 288.944 33.5 288.944 33.5C288.945 33.5 288.945 33.5 288.946 33.5C288.947 33.5 288.947 33.5 288.948 33.5C288.948 33.5 288.949 33.5 288.949 33.5C288.95 33.5 288.951 33.5 288.951 33.5C288.952 33.5 288.952 33.5 288.953 33.5C288.954 33.5 288.954 33.5 288.955 33.5C288.955 33.5 288.956 33.5 288.957 33.5C288.957 33.5 288.958 33.5 288.958 33.5C288.959 33.5 288.96 33.5 288.96 33.5C288.961 33.5 288.961 33.5 288.962 33.5C288.962 33.5 288.963 33.5 288.964 33.5C288.964 33.5 288.965 33.5 288.965 33.5C288.966 33.5 288.967 33.5 288.967 33.5C288.968 33.5 288.968 33.5 288.969 33.5C288.97 33.5 288.97 33.5 288.971 33.5C288.971 33.5 288.972 33.5 288.973 33.5C288.973 33.5 288.974 33.5 288.974 33.5C288.975 33.5 288.976 33.5 288.976 33.5C288.977 33.5 288.977 33.5 288.978 33.5C288.979 33.5 288.979 33.5 288.98 33.5C288.98 33.5 288.981 33.5 288.982 33.5C288.982 33.5 288.983 33.5 288.984 33.5C288.984 33.5 288.985 33.5 288.985 33.5C288.986 33.5 288.987 33.5 288.987 33.5C288.988 33.5 288.988 33.5 288.989 33.5C288.99 33.5 288.99 33.5 288.991 33.5C288.991 33.5 288.992 33.5 288.993 33.5C288.993 33.5 288.994 33.5 288.995 33.5C288.995 33.5 288.996 33.5 288.996 33.5C288.997 33.5 288.998 33.5 288.998 33.5C288.999 33.5 288.999 33.5 289 33.5C289.001 33.5 289.001 33.5 289.002 33.5C289.003 33.5 289.003 33.5 289.004 33.5C289.004 33.5 289.005 33.5 289.006 33.5C289.006 33.5 289.007 33.5 289.008 33.5C289.008 33.5 289.009 33.5 289.009 33.5C289.01 33.5 289.011 33.5 289.011 33.5C289.012 33.5 289.013 33.5 289.013 33.5C289.014 33.5 289.014 33.5 289.015 33.5C289.016 33.5 289.016 33.5 289.017 33.5C289.018 33.5 289.018 33.5 289.019 33.5C289.019 33.5 289.02 33.5 289.021 33.5C289.021 33.5 289.022 33.5 289.023 33.5C289.023 33.5 289.024 33.5 289.024 33.5C289.025 33.5 289.026 33.5 289.026 33.5C289.027 33.5 289.028 33.5 289.028 33.5C289.029 33.5 289.03 33.5 289.03 33.5C289.031 33.5 289.031 33.5 289.032 33.5C289.033 33.5 289.033 33.5 289.034 33.5C289.035 33.5 289.035 33.5 289.036 33.5C289.036 33.5 289.037 33.5 289.038 33.5C289.038 33.5 289.039 33.5 289.04 33.5C289.04 33.5 289.041 33.5 289.042 33.5C289.042 33.5 289.043 33.5 289.044 33.5C289.044 33.5 289.045 33.5 289.045 33.5C289.046 33.5 289.047 33.5 289.047 33.5C289.048 33.5 289.049 33.5 289.049 33.5C289.05 33.5 289.051 33.5 289.051 33.5C289.052 33.5 289.053 33.5 289.053 33.5C289.054 33.5 289.054 33.5 289.055 33.5C289.056 33.5 289.056 33.5 289.057 33.5C289.058 33.5 289.058 33.5 289.059 33.5C289.06 33.5 289.06 33.5 289.061 33.5C289.062 33.5 289.062 33.5 289.063 33.5C289.064 33.5 289.064 33.5 289.065 33.5C289.065 33.5 289.066 33.5 289.067 33.5C289.067 33.5 289.068 33.5 289.069 33.5C289.069 33.5 289.07 33.5 289.071 33.5C289.071 33.5 289.072 33.5 289.073 33.5C289.073 33.5 289.074 33.5 289.075 33.5C289.075 33.5 289.076 33.5 289.077 33.5C289.077 33.5 289.078 33.5 289.079 33.5C289.079 33.5 289.08 33.5 289.081 33.5C289.081 33.5 289.082 33.5 289.083 33.5C289.083 33.5 289.084 33.5 289.085 33.5C289.085 33.5 289.086 33.5 289.087 33.5C289.087 33.5 289.088 33.5 289.089 33.5C289.089 33.5 289.09 33.5 289.091 33.5C289.091 33.5 289.092 33.5 289.093 33.5C289.093 33.5 289.094 33.5 289.095 33.5C289.095 33.5 289.096 33.5 289.097 33.5C289.097 33.5 289.098 33.5 289.099 33.5C289.099 33.5 289.1 33.5 289.101 33.5C289.101 33.5 289.102 33.5 289.103 33.5C289.103 33.5 289.104 33.5 289.105 33.5C289.105 33.5 289.106 33.5 289.107 33.5C289.107 33.5 289.108 33.5 289.109 33.5C289.109 33.5 289.11 33.5 289.111 33.5C289.111 33.5 289.112 33.5 289.113 33.5C289.113 33.5 289.114 33.5 289.115 33.5C289.115 33.5 289.116 33.5 289.117 33.5C289.117 33.5 289.118 33.5 289.119 33.5C289.119 33.5 289.12 33.5 289.121 33.5C289.121 33.5 289.122 33.5 289.123 33.5C289.124 33.5 289.124 33.5 289.125 33.5C289.126 33.5 289.126 33.5 289.127 33.5C289.128 33.5 289.128 33.5 289.129 33.5C289.13 33.5 289.13 33.5 289.131 33.5C289.132 33.5 289.132 33.5 289.133 33.5C289.134 33.5 289.134 33.5 289.135 33.5C289.136 33.5 289.137 33.5 289.137 33.5C289.138 33.5 289.139 33.5 289.139 33.5C289.14 33.5 289.141 33.5 289.141 33.5C289.142 33.5 289.143 33.5 289.143 33.5C289.144 33.5 289.145 33.5 289.146 33.5C289.146 33.5 289.147 33.5 289.148 33.5C289.148 33.5 289.149 33.5 289.15 33.5C289.15 33.5 289.151 33.5 289.152 33.5C289.152 33.5 289.153 33.5 289.154 33.5C289.155 33.5 289.155 33.5 289.156 33.5C289.157 33.5 289.157 33.5 289.158 33.5C289.159 33.5 289.159 33.5 289.16 33.5C289.161 33.5 289.162 33.5 289.162 33.5C289.163 33.5 289.164 33.5 289.164 33.5C289.165 33.5 289.166 33.5 289.166 33.5C289.167 33.5 289.168 33.5 289.169 33.5C289.169 33.5 289.17 33.5 289.171 33.5C289.171 33.5 289.172 33.5 289.173 33.5C289.174 33.5 289.174 33.5 289.175 33.5C289.176 33.5 289.176 33.5 289.177 33.5C289.178 33.5 289.178 33.5 289.179 33.5C289.18 33.5 289.181 33.5 289.181 33.5C289.182 33.5 289.183 33.5 289.183 33.5C289.184 33.5 289.185 33.5 289.186 33.5C289.186 33.5 289.187 33.5 289.188 33.5C289.188 33.5 289.189 33.5 289.19 33.5C289.191 33.5 289.191 33.5 289.192 33.5C289.193 33.5 289.193 33.5 289.194 33.5C289.195 33.5 289.196 33.5 289.196 33.5C289.197 33.5 289.198 33.5 289.198 33.5C289.199 33.5 289.2 33.5 289.201 33.5C289.201 33.5 289.202 33.5 289.203 33.5C289.203 33.5 289.204 33.5 289.205 33.5C289.206 33.5 289.206 33.5 289.207 33.5C289.208 33.5 289.209 33.5 289.209 33.5C289.21 33.5 289.211 33.5 289.211 33.5C289.212 33.5 289.213 33.5 289.214 33.5C289.214 33.5 289.215 33.5 289.216 33.5C289.216 33.5 289.217 33.5 289.218 33.5C289.219 33.5 289.219 33.5 289.22 33.5C289.221 33.5 289.222 33.5 289.222 33.5C289.223 33.5 289.224 33.5 289.225 33.5C289.225 33.5 289.226 33.5 289.227 33.5C289.227 33.5 289.228 33.5 289.229 33.5C289.23 33.5 289.23 33.5 289.231 33.5C289.232 33.5 289.233 33.5 289.233 33.5C289.234 33.5 289.235 33.5 289.236 33.5C289.236 33.5 289.237 33.5 289.238 33.5C289.238 33.5 289.239 33.5 289.24 33.5C289.241 33.5 289.241 33.5 289.242 33.5C289.243 33.5 289.244 33.5 289.244 33.5C289.245 33.5 289.246 33.5 289.247 33.5C289.247 33.5 289.248 33.5 289.249 33.5C289.25 33.5 289.25 33.5 289.251 33.5C289.252 33.5 289.253 33.5 289.253 33.5C289.254 33.5 289.255 33.5 289.255 33.5C289.256 33.5 289.257 33.5 289.258 33.5C289.258 33.5 289.259 33.5 289.26 33.5C289.261 33.5 289.261 33.5 289.262 33.5C289.263 33.5 289.264 33.5 289.264 33.5C289.265 33.5 289.266 33.5 289.267 33.5C289.267 33.5 289.268 33.5 289.269 33.5C289.27 33.5 289.27 33.5 289.271 33.5C289.272 33.5 289.273 33.5 289.273 33.5C289.274 33.5 289.275 33.5 289.276 33.5C289.276 33.5 289.277 33.5 289.278 33.5C289.279 33.5 289.28 33.5 289.28 33.5C289.281 33.5 289.282 33.5 289.283 33.5C289.283 33.5 289.284 33.5 289.285 33.5C289.286 33.5 289.286 33.5 289.287 33.5C289.288 33.5 289.289 33.5 289.289 33.5C289.29 33.5 289.291 33.5 289.292 33.5C289.292 33.5 289.293 33.5 289.294 33.5C289.295 33.5 289.295 33.5 289.296 33.5C289.297 33.5 289.298 33.5 289.298 33.5C289.299 33.5 289.3 33.5 289.301 33.5C289.302 33.5 289.302 33.5 289.303 33.5C289.304 33.5 289.305 33.5 289.305 33.5C289.306 33.5 289.307 33.5 289.308 33.5C289.308 33.5 289.309 33.5 289.31 33.5C289.311 33.5 289.312 33.5 289.312 33.5C289.313 33.5 289.314 33.5 289.315 33.5C289.315 33.5 289.316 33.5 289.317 33.5C289.318 33.5 289.318 33.5 289.319 33.5C289.32 33.5 289.321 33.5 289.322 33.5C289.322 33.5 289.323 33.5 289.324 33.5C289.325 33.5 289.325 33.5 289.326 33.5C289.327 33.5 289.328 33.5 289.329 33.5C289.329 33.5 289.33 33.5 289.331 33.5C289.332 33.5 289.332 33.5 289.333 33.5C289.334 33.5 289.335 33.5 289.336 33.5C289.336 33.5 289.337 33.5 289.338 33.5C289.339 33.5 289.339 33.5 289.34 33.5C289.341 33.5 289.342 33.5 289.343 33.5C289.343 33.5 289.344 33.5 289.345 33.5C289.346 33.5 289.346 33.5 289.347 33.5C289.348 33.5 289.349 33.5 289.35 33.5C289.35 33.5 289.351 33.5 289.352 33.5C289.353 33.5 289.354 33.5 289.354 33.5C289.355 33.5 289.356 33.5 289.357 33.5C289.358 33.5 289.358 33.5 289.359 33.5C289.36 33.5 289.361 33.5 289.361 33.5C289.362 33.5 289.363 33.5 289.364 33.5C289.365 33.5 289.365 33.5 289.366 33.5C289.367 33.5 289.368 33.5 289.369 33.5C289.369 33.5 289.37 33.5 289.371 33.5C289.372 33.5 289.373 33.5 289.373 33.5C289.374 33.5 289.375 33.5 289.376 33.5C289.377 33.5 289.377 33.5 289.378 33.5C289.379 33.5 289.38 33.5 289.381 33.5C289.381 33.5 289.382 33.5 289.383 33.5C289.384 33.5 289.385 33.5 289.385 33.5C289.386 33.5 289.387 33.5 289.388 33.5C289.389 33.5 289.389 33.5 289.39 33.5C289.391 33.5 289.392 33.5 289.393 33.5C289.393 33.5 289.394 33.5 289.395 33.5C289.396 33.5 289.397 33.5 289.397 33.5C289.398 33.5 289.399 33.5 289.4 33.5C289.401 33.5 289.401 33.5 289.402 33.5C289.403 33.5 289.404 33.5 289.405 33.5C289.406 33.5 289.406 33.5 289.407 33.5C289.408 33.5 289.409 33.5 289.41 33.5C289.41 33.5 289.411 33.5 289.412 33.5C289.413 33.5 289.414 33.5 289.414 33.5C289.415 33.5 289.416 33.5 289.417 33.5C289.418 33.5 289.419 33.5 289.419 33.5C289.42 33.5 289.421 33.5 289.422 33.5C289.423 33.5 289.423 33.5 289.424 33.5C289.425 33.5 289.426 33.5 289.427 33.5C289.428 33.5 289.428 33.5 289.429 33.5C289.43 33.5 289.431 33.5 289.432 33.5C289.432 33.5 289.433 33.5 289.434 33.5C289.435 33.5 289.436 33.5 289.437 33.5C289.437 33.5 289.438 33.5 289.439 33.5C289.44 33.5 289.441 33.5 289.441 33.5C289.442 33.5 289.443 33.5 289.444 33.5C289.445 33.5 289.446 33.5 289.446 33.5C289.447 33.5 289.448 33.5 289.449 33.5C289.45 33.5 289.451 33.5 289.451 33.5C289.452 33.5 289.453 33.5 289.454 33.5C289.455 33.5 289.456 33.5 289.456 33.5C289.457 33.5 289.458 33.5 289.459 33.5C289.46 33.5 289.461 33.5 289.461 33.5C289.462 33.5 289.463 33.5 289.464 33.5C289.465 33.5 289.466 33.5 289.466 33.5C289.467 33.5 289.468 33.5 289.469 33.5C289.47 33.5 289.471 33.5 289.471 33.5C289.472 33.5 289.473 33.5 289.474 33.5C289.475 33.5 289.476 33.5 289.476 33.5C289.477 33.5 289.478 33.5 289.479 33.5C289.48 33.5 289.481 33.5 289.481 33.5C289.482 33.5 289.483 33.5 289.484 33.5C289.485 33.5 289.486 33.5 289.487 33.5C289.487 33.5 289.488 33.5 289.489 33.5C289.49 33.5 289.491 33.5 289.492 33.5C289.492 33.5 289.493 33.5 289.494 33.5C289.495 33.5 289.496 33.5 289.497 33.5C289.498 33.5 289.498 33.5 289.499 33.5C289.5 33.5 289.501 33.5 289.502 33.5C289.503 33.5 289.503 33.5 289.504 33.5C289.505 33.5 289.506 33.5 289.507 33.5C289.508 33.5 289.509 33.5 289.509 33.5C289.51 33.5 289.511 33.5 289.512 33.5C289.513 33.5 289.514 33.5 289.515 33.5C289.515 33.5 289.516 33.5 289.517 33.5C289.518 33.5 289.519 33.5 289.52 33.5C289.521 33.5 289.521 33.5 289.522 33.5C289.523 33.5 289.524 33.5 289.525 33.5C289.526 33.5 289.527 33.5 289.527 33.5C289.528 33.5 289.529 33.5 289.53 33.5C289.531 33.5 289.532 33.5 289.533 33.5C289.533 33.5 289.534 33.5 289.535 33.5C289.536 33.5 289.537 33.5 289.538 33.5C289.539 33.5 289.539 33.5 289.54 33.5C289.541 33.5 289.542 33.5 289.543 33.5C289.544 33.5 289.545 33.5 289.546 33.5C289.546 33.5 289.547 33.5 289.548 33.5C289.549 33.5 289.55 33.5 289.551 33.5C289.552 33.5 289.552 33.5 289.553 33.5C289.554 33.5 289.555 33.5 289.556 33.5C289.557 33.5 289.558 33.5 289.559 33.5C289.559 33.5 289.56 33.5 289.561 33.5C289.562 33.5 289.563 33.5 289.564 33.5C289.565 33.5 289.566 33.5 289.566 33.5C289.567 33.5 289.568 33.5 289.569 33.5C289.57 33.5 289.571 33.5 289.572 33.5C289.573 33.5 289.573 33.5 289.574 33.5C289.575 33.5 289.576 33.5 289.577 33.5C289.578 33.5 289.579 33.5 289.58 33.5C289.58 33.5 289.581 33.5 289.582 33.5C289.583 33.5 289.584 33.5 289.585 33.5C289.586 33.5 289.587 33.5 289.588 33.5C289.588 33.5 289.589 33.5 289.59 33.5C289.591 33.5 289.592 33.5 289.593 33.5C289.594 33.5 289.595 33.5 289.595 33.5C289.596 33.5 289.597 33.5 289.598 33.5C289.599 33.5 289.6 33.5 289.601 33.5C289.602 33.5 289.603 33.5 289.603 33.5C289.604 33.5 289.605 33.5 289.606 33.5C289.607 33.5 289.608 33.5 289.609 33.5C289.61 33.5 289.611 33.5 289.611 33.5C289.612 33.5 289.613 33.5 289.614 33.5C289.615 33.5 289.616 33.5 289.617 33.5C289.618 33.5 289.619 33.5 289.62 33.5C289.62 33.5 289.621 33.5 289.622 33.5C289.623 33.5 289.624 33.5 289.625 33.5C289.626 33.5 289.627 33.5 289.628 33.5C289.629 33.5 289.629 33.5 289.63 33.5C289.631 33.5 289.632 33.5 289.633 33.5C289.634 33.5 289.635 33.5 289.636 33.5C289.637 33.5 289.638 33.5 289.638 33.5C289.639 33.5 289.64 33.5 289.641 33.5C289.642 33.5 289.643 33.5 289.644 33.5C289.645 33.5 289.646 33.5 289.647 33.5C289.647 33.5 289.648 33.5 289.649 33.5C289.65 33.5 289.651 33.5 289.652 33.5C289.653 33.5 289.654 33.5 289.655 33.5C289.656 33.5 289.657 33.5 289.657 33.5C289.658 33.5 289.659 33.5 289.66 33.5C289.661 33.5 289.662 33.5 289.663 33.5C289.664 33.5 289.665 33.5 289.666 33.5C289.667 33.5 289.667 33.5 289.668 33.5C289.669 33.5 289.67 33.5 289.671 33.5C289.672 33.5 289.673 33.5 289.674 33.5C289.675 33.5 289.676 33.5 289.677 33.5C289.678 33.5 289.678 33.5 289.679 33.5C289.68 33.5 289.681 33.5 289.682 33.5C289.683 33.5 289.684 33.5 289.685 33.5C289.686 33.5 289.687 33.5 289.688 33.5C289.689 33.5 289.689 33.5 289.69 33.5C289.691 33.5 289.692 33.5 289.693 33.5C289.694 33.5 289.695 33.5 289.696 33.5C289.697 33.5 289.698 33.5 289.699 33.5C289.7 33.5 289.701 33.5 289.701 33.5C289.702 33.5 289.703 33.5 289.704 33.5C289.705 33.5 289.706 33.5 289.707 33.5C289.708 33.5 289.709 33.5 289.71 33.5C289.711 33.5 289.712 33.5 289.713 33.5C289.714 33.5 289.714 33.5 289.715 33.5C289.716 33.5 289.717 33.5 289.718 33.5C289.719 33.5 289.72 33.5 289.721 33.5C289.722 33.5 289.723 33.5 289.724 33.5C289.725 33.5 289.726 33.5 289.727 33.5C289.728 33.5 289.728 33.5 289.729 33.5C289.73 33.5 289.731 33.5 289.732 33.5C289.733 33.5 289.734 33.5 289.735 33.5C289.736 33.5 289.737 33.5 289.738 33.5C289.739 33.5 289.74 33.5 289.741 33.5C289.742 33.5 289.743 33.5 289.743 33.5C289.744 33.5 289.745 33.5 289.746 33.5C289.747 33.5 289.748 33.5 289.749 33.5C289.75 33.5 289.751 33.5 289.752 33.5C289.753 33.5 289.754 33.5 289.755 33.5C289.756 33.5 289.757 33.5 289.758 33.5C289.759 33.5 289.76 33.5 289.76 33.5C289.761 33.5 289.762 33.5 289.763 33.5C289.764 33.5 289.765 33.5 289.766 33.5C289.767 33.5 289.768 33.5 289.769 33.5C289.77 33.5 289.771 33.5 289.772 33.5C289.773 33.5 289.774 33.5 289.775 33.5C289.776 33.5 289.777 33.5 289.778 33.5C289.779 33.5 289.779 33.5 289.78 33.5C289.781 33.5 289.782 33.5 289.783 33.5C289.784 33.5 289.785 33.5 289.786 33.5C289.787 33.5 289.788 33.5 289.789 33.5C289.79 33.5 289.791 33.5 289.792 33.5C289.793 33.5 289.794 33.5 289.795 33.5C289.796 33.5 289.797 33.5 289.798 33.5C289.799 33.5 289.8 33.5 289.801 33.5C289.802 33.5 289.802 33.5 289.803 33.5C289.804 33.5 289.805 33.5 289.806 33.5C289.807 33.5 289.808 33.5 289.809 33.5C289.81 33.5 289.811 33.5 289.812 33.5C289.813 33.5 289.814 33.5 289.815 33.5C289.816 33.5 289.817 33.5 289.818 33.5C289.819 33.5 289.82 33.5 289.821 33.5C289.822 33.5 289.823 33.5 289.824 33.5C289.825 33.5 289.826 33.5 289.827 33.5C289.828 33.5 289.829 33.5 289.83 33.5C289.831 33.5 289.831 33.5 289.832 33.5C289.833 33.5 289.834 33.5 289.835 33.5C289.836 33.5 289.837 33.5 289.838 33.5C289.839 33.5 289.84 33.5 289.841 33.5C289.842 33.5 289.843 33.5 289.844 33.5C289.845 33.5 289.846 33.5 289.847 33.5C289.848 33.5 289.849 33.5 289.85 33.5C289.851 33.5 289.852 33.5 289.853 33.5C289.854 33.5 289.855 33.5 289.856 33.5C289.857 33.5 289.858 33.5 289.859 33.5C289.86 33.5 289.861 33.5 289.862 33.5C289.863 33.5 289.864 33.5 289.865 33.5C289.866 33.5 289.867 33.5 289.868 33.5C289.869 33.5 289.87 33.5 289.871 33.5C289.872 33.5 289.873 33.5 289.874 33.5C289.875 33.5 289.876 33.5 289.877 33.5C289.878 33.5 289.879 33.5 289.88 33.5C289.88 33.5 289.882 33.5 289.882 33.5C289.883 33.5 289.884 33.5 289.885 33.5C289.886 33.5 289.887 33.5 289.888 33.5C289.889 33.5 289.89 33.5 289.891 33.5C289.892 33.5 289.893 33.5 289.894 33.5C289.895 33.5 289.896 33.5 289.897 33.5C289.898 33.5 289.899 33.5 289.9 33.5C289.901 33.5 289.902 33.5 289.903 33.5C289.904 33.5 289.905 33.5 289.906 33.5C289.907 33.5 289.908 33.5 289.909 33.5C289.91 33.5 289.911 33.5 289.912 33.5C289.913 33.5 289.914 33.5 289.915 33.5C289.916 33.5 289.917 33.5 289.918 33.5C289.919 33.5 289.92 33.5 289.921 33.5C289.922 33.5 289.923 33.5 289.924 33.5C289.925 33.5 289.926 33.5 289.927 33.5C289.928 33.5 289.929 33.5 289.93 33.5C289.931 33.5 289.932 33.5 289.933 33.5C289.934 33.5 289.935 33.5 289.936 33.5C289.937 33.5 289.938 33.5 289.939 33.5C289.94 33.5 289.941 33.5 289.942 33.5C289.943 33.5 289.944 33.5 289.946 33.5C289.947 33.5 289.948 33.5 289.949 33.5C289.95 33.5 289.951 33.5 289.952 33.5C289.953 33.5 289.954 33.5 289.955 33.5C289.956 33.5 289.957 33.5 289.958 33.5C289.959 33.5 289.96 33.5 289.961 33.5C289.962 33.5 289.963 33.5 289.964 33.5C289.965 33.5 289.966 33.5 289.967 33.5C289.968 33.5 289.969 33.5 289.97 33.5C289.971 33.5 289.972 33.5 289.973 33.5C289.974 33.5 289.975 33.5 289.976 33.5C289.977 33.5 289.978 33.5 289.979 33.5C289.98 33.5 289.981 33.5 289.982 33.5C289.983 33.5 289.984 33.5 289.985 33.5C289.986 33.5 289.987 33.5 289.988 33.5C289.989 33.5 289.99 33.5 289.991 33.5C289.992 33.5 289.993 33.5 289.994 33.5C289.995 33.5 289.996 33.5 289.998 33.5C289.999 33.5 290 33.5 290.001 33.5C290.002 33.5 290.003 33.5 290.004 33.5C290.005 33.5 290.006 33.5 290.007 33.5C290.008 33.5 290.009 33.5 290.01 33.5C290.011 33.5 290.012 33.5 290.013 33.5C290.014 33.5 290.015 33.5 290.016 33.5C290.017 33.5 290.018 33.5 290.019 33.5C290.02 33.5 290.021 33.5 290.022 33.5C290.023 33.5 290.024 33.5 290.025 33.5C290.026 33.5 290.027 33.5 290.029 33.5C290.03 33.5 290.031 33.5 290.032 33.5C290.033 33.5 290.034 33.5 290.035 33.5C290.036 33.5 290.037 33.5 290.038 33.5V31.5C290.037 31.5 290.036 31.5 290.035 31.5C290.034 31.5 290.033 31.5 290.032 31.5C290.031 31.5 290.03 31.5 290.029 31.5C290.027 31.5 290.026 31.5 290.025 31.5C290.024 31.5 290.023 31.5 290.022 31.5C290.021 31.5 290.02 31.5 290.019 31.5C290.018 31.5 290.017 31.5 290.016 31.5C290.015 31.5 290.014 31.5 290.013 31.5C290.012 31.5 290.011 31.5 290.01 31.5C290.009 31.5 290.008 31.5 290.007 31.5C290.006 31.5 290.005 31.5 290.004 31.5C290.003 31.5 290.002 31.5 290.001 31.5C290 31.5 289.999 31.5 289.998 31.5C289.996 31.5 289.995 31.5 289.994 31.5C289.993 31.5 289.992 31.5 289.991 31.5C289.99 31.5 289.989 31.5 289.988 31.5C289.987 31.5 289.986 31.5 289.985 31.5C289.984 31.5 289.983 31.5 289.982 31.5C289.981 31.5 289.98 31.5 289.979 31.5C289.978 31.5 289.977 31.5 289.976 31.5C289.975 31.5 289.974 31.5 289.973 31.5C289.972 31.5 289.971 31.5 289.97 31.5C289.969 31.5 289.968 31.5 289.967 31.5C289.966 31.5 289.965 31.5 289.964 31.5C289.963 31.5 289.962 31.5 289.961 31.5C289.96 31.5 289.959 31.5 289.958 31.5C289.957 31.5 289.956 31.5 289.955 31.5C289.954 31.5 289.953 31.5 289.952 31.5C289.951 31.5 289.95 31.5 289.949 31.5C289.948 31.5 289.947 31.5 289.946 31.5C289.944 31.5 289.943 31.5 289.942 31.5C289.941 31.5 289.94 31.5 289.939 31.5C289.938 31.5 289.937 31.5 289.936 31.5C289.935 31.5 289.934 31.5 289.933 31.5C289.932 31.5 289.931 31.5 289.93 31.5C289.929 31.5 289.928 31.5 289.927 31.5C289.926 31.5 289.925 31.5 289.924 31.5C289.923 31.5 289.922 31.5 289.921 31.5C289.92 31.5 289.919 31.5 289.918 31.5C289.917 31.5 289.916 31.5 289.915 31.5C289.914 31.5 289.913 31.5 289.912 31.5C289.911 31.5 289.91 31.5 289.909 31.5C289.908 31.5 289.907 31.5 289.906 31.5C289.905 31.5 289.904 31.5 289.903 31.5C289.902 31.5 289.901 31.5 289.9 31.5C289.899 31.5 289.898 31.5 289.897 31.5C289.896 31.5 289.895 31.5 289.894 31.5C289.893 31.5 289.892 31.5 289.891 31.5C289.89 31.5 289.889 31.5 289.888 31.5C289.887 31.5 289.886 31.5 289.885 31.5C289.884 31.5 289.883 31.5 289.882 31.5C289.882 31.5 289.88 31.5 289.88 31.5C289.879 31.5 289.878 31.5 289.877 31.5C289.876 31.5 289.875 31.5 289.874 31.5C289.873 31.5 289.872 31.5 289.871 31.5C289.87 31.5 289.869 31.5 289.868 31.5C289.867 31.5 289.866 31.5 289.865 31.5C289.864 31.5 289.863 31.5 289.862 31.5C289.861 31.5 289.86 31.5 289.859 31.5C289.858 31.5 289.857 31.5 289.856 31.5C289.855 31.5 289.854 31.5 289.853 31.5C289.852 31.5 289.851 31.5 289.85 31.5C289.849 31.5 289.848 31.5 289.847 31.5C289.846 31.5 289.845 31.5 289.844 31.5C289.843 31.5 289.842 31.5 289.841 31.5C289.84 31.5 289.839 31.5 289.838 31.5C289.837 31.5 289.836 31.5 289.835 31.5C289.834 31.5 289.833 31.5 289.832 31.5C289.831 31.5 289.831 31.5 289.83 31.5C289.829 31.5 289.828 31.5 289.827 31.5C289.826 31.5 289.825 31.5 289.824 31.5C289.823 31.5 289.822 31.5 289.821 31.5C289.82 31.5 289.819 31.5 289.818 31.5C289.817 31.5 289.816 31.5 289.815 31.5C289.814 31.5 289.813 31.5 289.812 31.5C289.811 31.5 289.81 31.5 289.809 31.5C289.808 31.5 289.807 31.5 289.806 31.5C289.805 31.5 289.804 31.5 289.803 31.5C289.802 31.5 289.802 31.5 289.801 31.5C289.8 31.5 289.799 31.5 289.798 31.5C289.797 31.5 289.796 31.5 289.795 31.5C289.794 31.5 289.793 31.5 289.792 31.5C289.791 31.5 289.79 31.5 289.789 31.5C289.788 31.5 289.787 31.5 289.786 31.5C289.785 31.5 289.784 31.5 289.783 31.5C289.782 31.5 289.781 31.5 289.78 31.5C289.779 31.5 289.779 31.5 289.778 31.5C289.777 31.5 289.776 31.5 289.775 31.5C289.774 31.5 289.773 31.5 289.772 31.5C289.771 31.5 289.77 31.5 289.769 31.5C289.768 31.5 289.767 31.5 289.766 31.5C289.765 31.5 289.764 31.5 289.763 31.5C289.762 31.5 289.761 31.5 289.76 31.5C289.76 31.5 289.759 31.5 289.758 31.5C289.757 31.5 289.756 31.5 289.755 31.5C289.754 31.5 289.753 31.5 289.752 31.5C289.751 31.5 289.75 31.5 289.749 31.5C289.748 31.5 289.747 31.5 289.746 31.5C289.745 31.5 289.744 31.5 289.743 31.5C289.743 31.5 289.742 31.5 289.741 31.5C289.74 31.5 289.739 31.5 289.738 31.5C289.737 31.5 289.736 31.5 289.735 31.5C289.734 31.5 289.733 31.5 289.732 31.5C289.731 31.5 289.73 31.5 289.729 31.5C289.728 31.5 289.728 31.5 289.727 31.5C289.726 31.5 289.725 31.5 289.724 31.5C289.723 31.5 289.722 31.5 289.721 31.5C289.72 31.5 289.719 31.5 289.718 31.5C289.717 31.5 289.716 31.5 289.715 31.5C289.714 31.5 289.714 31.5 289.713 31.5C289.712 31.5 289.711 31.5 289.71 31.5C289.709 31.5 289.708 31.5 289.707 31.5C289.706 31.5 289.705 31.5 289.704 31.5C289.703 31.5 289.702 31.5 289.701 31.5C289.701 31.5 289.7 31.5 289.699 31.5C289.698 31.5 289.697 31.5 289.696 31.5C289.695 31.5 289.694 31.5 289.693 31.5C289.692 31.5 289.691 31.5 289.69 31.5C289.689 31.5 289.689 31.5 289.688 31.5C289.687 31.5 289.686 31.5 289.685 31.5C289.684 31.5 289.683 31.5 289.682 31.5C289.681 31.5 289.68 31.5 289.679 31.5C289.678 31.5 289.678 31.5 289.677 31.5C289.676 31.5 289.675 31.5 289.674 31.5C289.673 31.5 289.672 31.5 289.671 31.5C289.67 31.5 289.669 31.5 289.668 31.5C289.667 31.5 289.667 31.5 289.666 31.5C289.665 31.5 289.664 31.5 289.663 31.5C289.662 31.5 289.661 31.5 289.66 31.5C289.659 31.5 289.658 31.5 289.657 31.5C289.657 31.5 289.656 31.5 289.655 31.5C289.654 31.5 289.653 31.5 289.652 31.5C289.651 31.5 289.65 31.5 289.649 31.5C289.648 31.5 289.647 31.5 289.647 31.5C289.646 31.5 289.645 31.5 289.644 31.5C289.643 31.5 289.642 31.5 289.641 31.5C289.64 31.5 289.639 31.5 289.638 31.5C289.638 31.5 289.637 31.5 289.636 31.5C289.635 31.5 289.634 31.5 289.633 31.5C289.632 31.5 289.631 31.5 289.63 31.5C289.629 31.5 289.629 31.5 289.628 31.5C289.627 31.5 289.626 31.5 289.625 31.5C289.624 31.5 289.623 31.5 289.622 31.5C289.621 31.5 289.62 31.5 289.62 31.5C289.619 31.5 289.618 31.5 289.617 31.5C289.616 31.5 289.615 31.5 289.614 31.5C289.613 31.5 289.612 31.5 289.611 31.5C289.611 31.5 289.61 31.5 289.609 31.5C289.608 31.5 289.607 31.5 289.606 31.5C289.605 31.5 289.604 31.5 289.603 31.5C289.603 31.5 289.602 31.5 289.601 31.5C289.6 31.5 289.599 31.5 289.598 31.5C289.597 31.5 289.596 31.5 289.595 31.5C289.595 31.5 289.594 31.5 289.593 31.5C289.592 31.5 289.591 31.5 289.59 31.5C289.589 31.5 289.588 31.5 289.588 31.5C289.587 31.5 289.586 31.5 289.585 31.5C289.584 31.5 289.583 31.5 289.582 31.5C289.581 31.5 289.58 31.5 289.58 31.5C289.579 31.5 289.578 31.5 289.577 31.5C289.576 31.5 289.575 31.5 289.574 31.5C289.573 31.5 289.573 31.5 289.572 31.5C289.571 31.5 289.57 31.5 289.569 31.5C289.568 31.5 289.567 31.5 289.566 31.5C289.566 31.5 289.565 31.5 289.564 31.5C289.563 31.5 289.562 31.5 289.561 31.5C289.56 31.5 289.559 31.5 289.559 31.5C289.558 31.5 289.557 31.5 289.556 31.5C289.555 31.5 289.554 31.5 289.553 31.5C289.552 31.5 289.552 31.5 289.551 31.5C289.55 31.5 289.549 31.5 289.548 31.5C289.547 31.5 289.546 31.5 289.546 31.5C289.545 31.5 289.544 31.5 289.543 31.5C289.542 31.5 289.541 31.5 289.54 31.5C289.539 31.5 289.539 31.5 289.538 31.5C289.537 31.5 289.536 31.5 289.535 31.5C289.534 31.5 289.533 31.5 289.533 31.5C289.532 31.5 289.531 31.5 289.53 31.5C289.529 31.5 289.528 31.5 289.527 31.5C289.527 31.5 289.526 31.5 289.525 31.5C289.524 31.5 289.523 31.5 289.522 31.5C289.521 31.5 289.521 31.5 289.52 31.5C289.519 31.5 289.518 31.5 289.517 31.5C289.516 31.5 289.515 31.5 289.515 31.5C289.514 31.5 289.513 31.5 289.512 31.5C289.511 31.5 289.51 31.5 289.509 31.5C289.509 31.5 289.508 31.5 289.507 31.5C289.506 31.5 289.505 31.5 289.504 31.5C289.503 31.5 289.503 31.5 289.502 31.5C289.501 31.5 289.5 31.5 289.499 31.5C289.498 31.5 289.498 31.5 289.497 31.5C289.496 31.5 289.495 31.5 289.494 31.5C289.493 31.5 289.492 31.5 289.492 31.5C289.491 31.5 289.49 31.5 289.489 31.5C289.488 31.5 289.487 31.5 289.487 31.5C289.486 31.5 289.485 31.5 289.484 31.5C289.483 31.5 289.482 31.5 289.481 31.5C289.481 31.5 289.48 31.5 289.479 31.5C289.478 31.5 289.477 31.5 289.476 31.5C289.476 31.5 289.475 31.5 289.474 31.5C289.473 31.5 289.472 31.5 289.471 31.5C289.471 31.5 289.47 31.5 289.469 31.5C289.468 31.5 289.467 31.5 289.466 31.5C289.466 31.5 289.465 31.5 289.464 31.5C289.463 31.5 289.462 31.5 289.461 31.5C289.461 31.5 289.46 31.5 289.459 31.5C289.458 31.5 289.457 31.5 289.456 31.5C289.456 31.5 289.455 31.5 289.454 31.5C289.453 31.5 289.452 31.5 289.451 31.5C289.451 31.5 289.45 31.5 289.449 31.5C289.448 31.5 289.447 31.5 289.446 31.5C289.446 31.5 289.445 31.5 289.444 31.5C289.443 31.5 289.442 31.5 289.441 31.5C289.441 31.5 289.44 31.5 289.439 31.5C289.438 31.5 289.437 31.5 289.437 31.5C289.436 31.5 289.435 31.5 289.434 31.5C289.433 31.5 289.432 31.5 289.432 31.5C289.431 31.5 289.43 31.5 289.429 31.5C289.428 31.5 289.428 31.5 289.427 31.5C289.426 31.5 289.425 31.5 289.424 31.5C289.423 31.5 289.423 31.5 289.422 31.5C289.421 31.5 289.42 31.5 289.419 31.5C289.419 31.5 289.418 31.5 289.417 31.5C289.416 31.5 289.415 31.5 289.414 31.5C289.414 31.5 289.413 31.5 289.412 31.5C289.411 31.5 289.41 31.5 289.41 31.5C289.409 31.5 289.408 31.5 289.407 31.5C289.406 31.5 289.406 31.5 289.405 31.5C289.404 31.5 289.403 31.5 289.402 31.5C289.401 31.5 289.401 31.5 289.4 31.5C289.399 31.5 289.398 31.5 289.397 31.5C289.397 31.5 289.396 31.5 289.395 31.5C289.394 31.5 289.393 31.5 289.393 31.5C289.392 31.5 289.391 31.5 289.39 31.5C289.389 31.5 289.389 31.5 289.388 31.5C289.387 31.5 289.386 31.5 289.385 31.5C289.385 31.5 289.384 31.5 289.383 31.5C289.382 31.5 289.381 31.5 289.381 31.5C289.38 31.5 289.379 31.5 289.378 31.5C289.377 31.5 289.377 31.5 289.376 31.5C289.375 31.5 289.374 31.5 289.373 31.5C289.373 31.5 289.372 31.5 289.371 31.5C289.37 31.5 289.369 31.5 289.369 31.5C289.368 31.5 289.367 31.5 289.366 31.5C289.365 31.5 289.365 31.5 289.364 31.5C289.363 31.5 289.362 31.5 289.361 31.5C289.361 31.5 289.36 31.5 289.359 31.5C289.358 31.5 289.358 31.5 289.357 31.5C289.356 31.5 289.355 31.5 289.354 31.5C289.354 31.5 289.353 31.5 289.352 31.5C289.351 31.5 289.35 31.5 289.35 31.5C289.349 31.5 289.348 31.5 289.347 31.5C289.346 31.5 289.346 31.5 289.345 31.5C289.344 31.5 289.343 31.5 289.343 31.5C289.342 31.5 289.341 31.5 289.34 31.5C289.339 31.5 289.339 31.5 289.338 31.5C289.337 31.5 289.336 31.5 289.336 31.5C289.335 31.5 289.334 31.5 289.333 31.5C289.332 31.5 289.332 31.5 289.331 31.5C289.33 31.5 289.329 31.5 289.329 31.5C289.328 31.5 289.327 31.5 289.326 31.5C289.325 31.5 289.325 31.5 289.324 31.5C289.323 31.5 289.322 31.5 289.322 31.5C289.321 31.5 289.32 31.5 289.319 31.5C289.318 31.5 289.318 31.5 289.317 31.5C289.316 31.5 289.315 31.5 289.315 31.5C289.314 31.5 289.313 31.5 289.312 31.5C289.312 31.5 289.311 31.5 289.31 31.5C289.309 31.5 289.308 31.5 289.308 31.5C289.307 31.5 289.306 31.5 289.305 31.5C289.305 31.5 289.304 31.5 289.303 31.5C289.302 31.5 289.302 31.5 289.301 31.5C289.3 31.5 289.299 31.5 289.298 31.5C289.298 31.5 289.297 31.5 289.296 31.5C289.295 31.5 289.295 31.5 289.294 31.5C289.293 31.5 289.292 31.5 289.292 31.5C289.291 31.5 289.29 31.5 289.289 31.5C289.289 31.5 289.288 31.5 289.287 31.5C289.286 31.5 289.286 31.5 289.285 31.5C289.284 31.5 289.283 31.5 289.283 31.5C289.282 31.5 289.281 31.5 289.28 31.5C289.28 31.5 289.279 31.5 289.278 31.5C289.277 31.5 289.276 31.5 289.276 31.5C289.275 31.5 289.274 31.5 289.273 31.5C289.273 31.5 289.272 31.5 289.271 31.5C289.27 31.5 289.27 31.5 289.269 31.5C289.268 31.5 289.267 31.5 289.267 31.5C289.266 31.5 289.265 31.5 289.264 31.5C289.264 31.5 289.263 31.5 289.262 31.5C289.261 31.5 289.261 31.5 289.26 31.5C289.259 31.5 289.258 31.5 289.258 31.5C289.257 31.5 289.256 31.5 289.255 31.5C289.255 31.5 289.254 31.5 289.253 31.5C289.253 31.5 289.252 31.5 289.251 31.5C289.25 31.5 289.25 31.5 289.249 31.5C289.248 31.5 289.247 31.5 289.247 31.5C289.246 31.5 289.245 31.5 289.244 31.5C289.244 31.5 289.243 31.5 289.242 31.5C289.241 31.5 289.241 31.5 289.24 31.5C289.239 31.5 289.238 31.5 289.238 31.5C289.237 31.5 289.236 31.5 289.236 31.5C289.235 31.5 289.234 31.5 289.233 31.5C289.233 31.5 289.232 31.5 289.231 31.5C289.23 31.5 289.23 31.5 289.229 31.5C289.228 31.5 289.227 31.5 289.227 31.5C289.226 31.5 289.225 31.5 289.225 31.5C289.224 31.5 289.223 31.5 289.222 31.5C289.222 31.5 289.221 31.5 289.22 31.5C289.219 31.5 289.219 31.5 289.218 31.5C289.217 31.5 289.216 31.5 289.216 31.5C289.215 31.5 289.214 31.5 289.214 31.5C289.213 31.5 289.212 31.5 289.211 31.5C289.211 31.5 289.21 31.5 289.209 31.5C289.209 31.5 289.208 31.5 289.207 31.5C289.206 31.5 289.206 31.5 289.205 31.5C289.204 31.5 289.203 31.5 289.203 31.5C289.202 31.5 289.201 31.5 289.201 31.5C289.2 31.5 289.199 31.5 289.198 31.5C289.198 31.5 289.197 31.5 289.196 31.5C289.196 31.5 289.195 31.5 289.194 31.5C289.193 31.5 289.193 31.5 289.192 31.5C289.191 31.5 289.191 31.5 289.19 31.5C289.189 31.5 289.188 31.5 289.188 31.5C289.187 31.5 289.186 31.5 289.186 31.5C289.185 31.5 289.184 31.5 289.183 31.5C289.183 31.5 289.182 31.5 289.181 31.5C289.181 31.5 289.18 31.5 289.179 31.5C289.178 31.5 289.178 31.5 289.177 31.5C289.176 31.5 289.176 31.5 289.175 31.5C289.174 31.5 289.174 31.5 289.173 31.5C289.172 31.5 289.171 31.5 289.171 31.5C289.17 31.5 289.169 31.5 289.169 31.5C289.168 31.5 289.167 31.5 289.166 31.5C289.166 31.5 289.165 31.5 289.164 31.5C289.164 31.5 289.163 31.5 289.162 31.5C289.162 31.5 289.161 31.5 289.16 31.5C289.159 31.5 289.159 31.5 289.158 31.5C289.157 31.5 289.157 31.5 289.156 31.5C289.155 31.5 289.155 31.5 289.154 31.5C289.153 31.5 289.152 31.5 289.152 31.5C289.151 31.5 289.15 31.5 289.15 31.5C289.149 31.5 289.148 31.5 289.148 31.5C289.147 31.5 289.146 31.5 289.146 31.5C289.145 31.5 289.144 31.5 289.143 31.5C289.143 31.5 289.142 31.5 289.141 31.5C289.141 31.5 289.14 31.5 289.139 31.5C289.139 31.5 289.138 31.5 289.137 31.5C289.137 31.5 289.136 31.5 289.135 31.5C289.134 31.5 289.134 31.5 289.133 31.5C289.132 31.5 289.132 31.5 289.131 31.5C289.13 31.5 289.13 31.5 289.129 31.5C289.128 31.5 289.128 31.5 289.127 31.5C289.126 31.5 289.126 31.5 289.125 31.5C289.124 31.5 289.124 31.5 289.123 31.5C289.122 31.5 289.121 31.5 289.121 31.5C289.12 31.5 289.119 31.5 289.119 31.5C289.118 31.5 289.117 31.5 289.117 31.5C289.116 31.5 289.115 31.5 289.115 31.5C289.114 31.5 289.113 31.5 289.113 31.5C289.112 31.5 289.111 31.5 289.111 31.5C289.11 31.5 289.109 31.5 289.109 31.5C289.108 31.5 289.107 31.5 289.107 31.5C289.106 31.5 289.105 31.5 289.105 31.5C289.104 31.5 289.103 31.5 289.103 31.5C289.102 31.5 289.101 31.5 289.101 31.5C289.1 31.5 289.099 31.5 289.099 31.5C289.098 31.5 289.097 31.5 289.097 31.5C289.096 31.5 289.095 31.5 289.095 31.5C289.094 31.5 289.093 31.5 289.093 31.5C289.092 31.5 289.091 31.5 289.091 31.5C289.09 31.5 289.089 31.5 289.089 31.5C289.088 31.5 289.087 31.5 289.087 31.5C289.086 31.5 289.085 31.5 289.085 31.5C289.084 31.5 289.083 31.5 289.083 31.5C289.082 31.5 289.081 31.5 289.081 31.5C289.08 31.5 289.079 31.5 289.079 31.5C289.078 31.5 289.077 31.5 289.077 31.5C289.076 31.5 289.075 31.5 289.075 31.5C289.074 31.5 289.073 31.5 289.073 31.5C289.072 31.5 289.071 31.5 289.071 31.5C289.07 31.5 289.069 31.5 289.069 31.5C289.068 31.5 289.067 31.5 289.067 31.5C289.066 31.5 289.065 31.5 289.065 31.5C289.064 31.5 289.064 31.5 289.063 31.5C289.062 31.5 289.062 31.5 289.061 31.5C289.06 31.5 289.06 31.5 289.059 31.5C289.058 31.5 289.058 31.5 289.057 31.5C289.056 31.5 289.056 31.5 289.055 31.5C289.054 31.5 289.054 31.5 289.053 31.5C289.053 31.5 289.052 31.5 289.051 31.5C289.051 31.5 289.05 31.5 289.049 31.5C289.049 31.5 289.048 31.5 289.047 31.5C289.047 31.5 289.046 31.5 289.045 31.5C289.045 31.5 289.044 31.5 289.044 31.5C289.043 31.5 289.042 31.5 289.042 31.5C289.041 31.5 289.04 31.5 289.04 31.5C289.039 31.5 289.038 31.5 289.038 31.5C289.037 31.5 289.036 31.5 289.036 31.5C289.035 31.5 289.035 31.5 289.034 31.5C289.033 31.5 289.033 31.5 289.032 31.5C289.031 31.5 289.031 31.5 289.03 31.5C289.03 31.5 289.029 31.5 289.028 31.5C289.028 31.5 289.027 31.5 289.026 31.5C289.026 31.5 289.025 31.5 289.024 31.5C289.024 31.5 289.023 31.5 289.023 31.5C289.022 31.5 289.021 31.5 289.021 31.5C289.02 31.5 289.019 31.5 289.019 31.5C289.018 31.5 289.018 31.5 289.017 31.5C289.016 31.5 289.016 31.5 289.015 31.5C289.014 31.5 289.014 31.5 289.013 31.5C289.013 31.5 289.012 31.5 289.011 31.5C289.011 31.5 289.01 31.5 289.009 31.5C289.009 31.5 289.008 31.5 289.008 31.5C289.007 31.5 289.006 31.5 289.006 31.5C289.005 31.5 289.004 31.5 289.004 31.5C289.003 31.5 289.003 31.5 289.002 31.5C289.001 31.5 289.001 31.5 289 31.5C288.999 31.5 288.999 31.5 288.998 31.5C288.998 31.5 288.997 31.5 288.996 31.5C288.996 31.5 288.995 31.5 288.995 31.5C288.994 31.5 288.993 31.5 288.993 31.5C288.992 31.5 288.991 31.5 288.991 31.5C288.99 31.5 288.99 31.5 288.989 31.5C288.988 31.5 288.988 31.5 288.987 31.5C288.987 31.5 288.986 31.5 288.985 31.5C288.985 31.5 288.984 31.5 288.984 31.5C288.983 31.5 288.982 31.5 288.982 31.5C288.981 31.5 288.98 31.5 288.98 31.5C288.979 31.5 288.979 31.5 288.978 31.5C288.977 31.5 288.977 31.5 288.976 31.5C288.976 31.5 288.975 31.5 288.974 31.5C288.974 31.5 288.973 31.5 288.973 31.5C288.972 31.5 288.971 31.5 288.971 31.5C288.97 31.5 288.97 31.5 288.969 31.5C288.968 31.5 288.968 31.5 288.967 31.5C288.967 31.5 288.966 31.5 288.965 31.5C288.965 31.5 288.964 31.5 288.964 31.5C288.963 31.5 288.962 31.5 288.962 31.5C288.961 31.5 288.961 31.5 288.96 31.5C288.96 31.5 288.959 31.5 288.958 31.5C288.958 31.5 288.957 31.5 288.957 31.5C288.956 31.5 288.955 31.5 288.955 31.5C288.954 31.5 288.954 31.5 288.953 31.5C288.952 31.5 288.952 31.5 288.951 31.5C288.951 31.5 288.95 31.5 288.949 31.5C288.949 31.5 288.948 31.5 288.948 31.5C288.947 31.5 288.947 31.5 288.946 31.5C288.945 31.5 288.945 31.5 288.944 31.5C288.944 31.5 288.943 31.5 288.942 31.5C288.942 31.5 288.941 31.5 288.941 31.5C288.94 31.5 288.939 31.5 288.939 31.5C288.938 31.5 288.938 31.5 288.937 31.5C288.937 31.5 288.936 31.5 288.935 31.5C288.935 31.5 288.934 31.5 288.934 31.5C288.933 31.5 288.932 31.5 288.932 31.5C288.931 31.5 288.931 31.5 288.93 31.5C288.93 31.5 288.929 31.5 288.928 31.5C288.928 31.5 288.927 31.5 288.927 31.5C288.926 31.5 288.926 31.5 288.925 31.5C288.924 31.5 288.924 31.5 288.923 31.5C288.923 31.5 288.922 31.5 288.922 31.5C288.921 31.5 288.92 31.5 288.92 31.5C288.919 31.5 288.919 31.5 288.918 31.5C288.918 31.5 288.917 31.5 288.916 31.5C288.916 31.5 288.915 31.5 288.915 31.5C288.914 31.5 288.914 31.5 288.913 31.5C288.912 31.5 288.912 31.5 288.911 31.5C288.911 31.5 288.91 31.5 288.91 31.5C288.909 31.5 288.908 31.5 288.908 31.5C288.907 31.5 288.907 31.5 288.906 31.5C288.906 31.5 288.905 31.5 288.905 31.5C288.904 31.5 288.903 31.5 288.903 31.5C288.902 31.5 288.902 31.5 288.901 31.5C288.901 31.5 288.9 31.5 288.899 31.5C288.899 31.5 288.898 31.5 288.898 31.5C288.897 31.5 288.897 31.5 288.896 31.5C288.896 31.5 288.895 31.5 288.894 31.5C288.894 31.5 288.893 31.5 288.893 31.5C288.892 31.5 288.892 31.5 288.891 31.5C288.891 31.5 288.89 31.5 288.889 31.5C288.889 31.5 288.888 31.5 288.888 31.5C288.887 31.5 288.887 31.5 288.886 31.5C288.886 31.5 288.885 31.5 288.884 31.5C288.884 31.5 288.883 31.5 288.883 31.5C288.882 31.5 288.882 31.5 288.881 31.5C288.881 31.5 288.88 31.5 288.88 31.5C288.879 31.5 288.878 31.5 288.878 31.5C288.877 31.5 288.877 31.5 288.876 31.5C288.876 31.5 288.875 31.5 288.875 31.5C288.874 31.5 288.874 31.5 288.873 31.5C288.872 31.5 288.872 31.5 288.871 31.5C288.871 31.5 288.87 31.5 288.87 31.5C288.869 31.5 288.869 31.5 288.868 31.5C288.868 31.5 288.867 31.5 288.867 31.5C288.866 31.5 288.865 31.5 288.865 31.5C288.864 31.5 288.864 31.5 288.863 31.5C288.863 31.5 288.862 31.5 288.862 31.5C288.861 31.5 288.861 31.5 288.86 31.5C288.86 31.5 288.859 31.5 288.858 31.5C288.858 31.5 288.857 31.5 288.857 31.5C288.856 31.5 288.856 31.5 288.855 31.5C288.855 31.5 288.854 31.5 288.854 31.5C288.853 31.5 288.853 31.5 288.852 31.5C288.852 31.5 288.851 31.5 288.85 31.5C288.85 31.5 288.849 31.5 288.849 31.5C288.848 31.5 288.848 31.5 288.847 31.5C288.847 31.5 288.846 31.5 288.846 31.5C288.845 31.5 288.845 31.5 288.844 31.5C288.844 31.5 288.843 31.5 288.843 31.5C288.842 31.5 288.842 31.5 288.841 31.5C288.841 31.5 288.84 31.5 288.839 31.5C288.839 31.5 288.838 31.5 288.838 31.5V33.5ZM290.038 33.5C293.798 33.5 296.2 33.4367 297.102 33.2864L296.773 31.3136C296.076 31.4299 293.878 31.5 290.038 31.5V33.5ZM297.096 33.2874C297.643 33.2 298.187 32.9936 298.596 32.5681C299.021 32.1259 299.188 31.565 299.188 31H297.188C297.188 31.0893 297.175 31.1373 297.168 31.1574C297.162 31.1742 297.158 31.1787 297.155 31.1819C297.147 31.1897 297.066 31.2667 296.78 31.3126L297.096 33.2874ZM299.188 31C299.188 30.542 299.028 30.1008 298.682 29.7554C298.363 29.4356 297.954 29.2677 297.567 29.1766L297.109 31.1234C297.194 31.1433 297.244 31.1635 297.27 31.176C297.294 31.1882 297.288 31.1893 297.268 31.1696C297.246 31.1477 297.222 31.1135 297.205 31.0708C297.189 31.0296 297.188 31.0019 297.188 31H299.188ZM297.567 29.1766C296.899 29.0195 295.233 28.8664 292.703 28.7021L292.573 30.6979C295.177 30.867 296.643 31.0138 297.109 31.1234L297.567 29.1766ZM292.709 28.7025C290.844 28.5693 289.298 28.4529 288.069 28.3533L287.907 30.3467C289.145 30.4471 290.698 30.564 292.567 30.6975L292.709 28.7025ZM288.072 28.3536C286.107 28.187 284.593 28.0539 283.531 27.9544L283.345 29.9456C284.416 30.0461 285.936 30.1797 287.903 30.3464L288.072 28.3536ZM283.534 27.9546C282.505 27.8551 281.209 27.7221 279.644 27.5556L279.432 29.5444C281 29.7112 282.304 29.8449 283.342 29.9453L283.534 27.9546ZM279.667 27.5584C278.141 27.3593 277.004 27.1799 276.242 27.021L275.834 28.979C276.672 29.1535 277.868 29.3407 279.409 29.5416L279.667 27.5584ZM276.28 27.0299C275.477 26.8291 274.525 26.5952 273.423 26.3281L272.952 28.2719C274.051 28.5381 274.998 28.7709 275.795 28.9701L276.28 27.0299ZM273.451 26.3352C272.392 26.0464 271.672 25.7458 271.231 25.4604L270.145 27.1396C270.837 27.5875 271.784 27.9536 272.925 28.2648L273.451 26.3352ZM271.254 25.476C270.735 25.1189 270.147 24.694 269.488 24.2L268.288 25.8C268.963 26.306 269.574 26.7478 270.121 27.124L271.254 25.476ZM269.508 24.2151C268.977 23.7961 268.616 23.3463 268.392 22.8719L266.584 23.7281C266.959 24.5203 267.532 25.2039 268.268 25.7849L269.508 24.2151ZM268.41 22.9119C268.16 22.3203 267.923 21.6407 267.698 20.87L265.778 21.43C266.02 22.2593 266.282 23.013 266.566 23.6881L268.41 22.9119ZM267.71 20.9166C267.531 20.1687 267.438 19.3479 267.438 18.45H265.438C265.438 19.4854 265.545 20.4646 265.766 21.3834L267.71 20.9166ZM267.438 18.45C267.438 17.3294 267.518 16.3397 267.672 15.4758L265.703 15.1242C265.524 16.127 265.438 17.2373 265.438 18.45H267.438ZM267.672 15.4758C267.829 14.5989 268.045 13.8354 268.313 13.1786L266.462 12.4214C266.131 13.2313 265.88 14.1345 265.703 15.1242L267.672 15.4758ZM268.313 13.1786C268.568 12.5567 268.918 12.0111 269.366 11.5354L267.91 10.1646C267.291 10.8222 266.808 11.5767 266.462 12.4214L268.313 13.1786ZM269.366 11.5354C269.851 11.0197 270.361 10.5867 270.893 10.2321L269.783 8.56795C269.115 9.01327 268.491 9.54697 267.91 10.1646L269.366 11.5354ZM270.923 10.2107C271.405 9.86274 272.058 9.55569 272.913 9.31152L272.363 7.38847C271.351 7.67764 270.471 8.07059 269.752 8.58932L270.923 10.2107ZM272.934 9.30506C273.864 9.01652 274.774 8.79334 275.664 8.63443L275.312 6.66557C274.335 6.83999 273.345 7.08348 272.341 7.39493L272.934 9.30506ZM275.658 8.63546C276.581 8.47625 277.729 8.34601 279.109 8.24746L278.967 6.25254C277.546 6.35399 276.328 6.49042 275.318 6.66454L275.658 8.63546ZM279.109 8.24746C280.495 8.1485 281.846 8.08261 283.163 8.04968L283.113 6.05031C281.763 6.08405 280.381 6.1515 278.967 6.25254L279.109 8.24746ZM283.162 8.0497C284.518 8.01662 286.127 8 287.988 8V6C286.116 6 284.491 6.01671 283.113 6.05029L283.162 8.0497ZM312.873 6.9V5.9H311.873V6.9H312.873ZM359.223 6.9H360.223V5.9H359.223V6.9ZM359.223 18.5V19.5H360.223V18.5H359.223ZM341.873 18.5V17.5H340.873V18.5H341.873ZM341.873 42V43H342.873V42H341.873ZM330.273 42H329.273V43H330.273V42ZM330.273 18.5H331.273V17.5H330.273V18.5ZM312.873 18.5H311.873V19.5H312.873V18.5ZM312.873 7.9H359.223V5.9H312.873V7.9ZM358.223 6.9V18.5H360.223V6.9H358.223ZM359.223 17.5H341.873V19.5H359.223V17.5ZM340.873 18.5V42H342.873V18.5H340.873ZM341.873 41H330.273V43H341.873V41ZM331.273 42V18.5H329.273V42H331.273ZM330.273 17.5H312.873V19.5H330.273V17.5ZM313.873 18.5V6.9H311.873V18.5H313.873Z" fill="black"/>
<mask id="mask0_729_2347" style="mask-type:alpha" maskUnits="userSpaceOnUse" x="1" y="6" width="359" height="37">
<path fill-rule="evenodd" clip-rule="evenodd" d="M249.016 6.9001C246.583 6.53343 243.783 6.3501 240.616 6.3501C232.75 6.3501 226.9 7.76676 223.066 10.6001C219.233 13.4001 217.316 17.7334 217.316 23.6001C217.316 29.9334 219.183 34.6168 222.916 37.6501C226.683 40.6501 232.7 42.1501 240.966 42.1501C244.3 42.1501 247.216 41.9668 249.716 41.6001C252.216 41.2334 254.45 40.6334 256.416 39.8001C258.416 38.9334 260.016 37.8168 261.216 36.4501C262.45 35.0501 263.383 33.3501 264.016 31.3501C264.683 29.3501 265.016 26.9834 265.016 24.2501C265.016 21.4834 264.65 19.0834 263.916 17.0501C263.183 14.9834 262.15 13.2834 260.816 11.9501C259.516 10.5834 257.833 9.48343 255.766 8.6501C253.7 7.81677 251.45 7.23343 249.016 6.9001ZM249.266 30.8001C247.333 32.2334 244.6 32.9501 241.066 32.9501C237.466 32.9501 234.75 32.1668 232.916 30.6001C231.083 29.0001 230.166 26.8834 230.166 24.2501C230.166 22.8834 230.383 21.6668 230.816 20.6001C231.25 19.5334 231.9 18.6168 232.766 17.8501C233.666 17.0834 234.8 16.5168 236.166 16.1501C237.533 15.7501 239.116 15.5501 240.916 15.5501C244.35 15.5501 247.083 16.3001 249.116 17.8001C251.15 19.2668 252.166 21.4168 252.166 24.2501C252.166 27.1834 251.2 29.3668 249.266 30.8001Z" fill="black"/>
<path d="M312.873 6.90015H359.223V18.5001H341.873V42.0001H330.273V18.5001H312.873V6.90015Z" fill="black"/>
<path d="M287.987 7.00012C291.121 7.00012 293.804 7.08346 296.038 7.25012C298.271 7.38346 300.254 7.65012 301.987 8.05012C303.721 8.45012 305.104 8.95012 306.137 9.55012C307.204 10.1168 308.071 10.9001 308.737 11.9001C309.438 12.9001 309.921 14.0168 310.188 15.2501C310.454 16.4501 310.587 17.9335 310.587 19.7001H298.188C298.188 19.1668 298.087 18.7501 297.887 18.4501C297.721 18.1501 297.321 17.8668 296.688 17.6001C296.054 17.3001 295.054 17.1001 293.688 17.0001C292.321 16.8668 290.521 16.8001 288.288 16.8001C285.321 16.8001 283.154 16.8668 281.788 17.0001C280.421 17.1335 279.554 17.3001 279.188 17.5001C278.821 17.7001 278.637 18.0501 278.637 18.5501C278.671 18.9835 279.121 19.2835 279.987 19.4501C280.887 19.5835 283.554 19.8335 287.987 20.2001C288.054 20.2001 288.104 20.2168 288.137 20.2501C296.937 20.9501 302.521 21.5835 304.888 22.1501C307.988 22.8835 309.988 24.1335 310.888 25.9001C311.488 27.1001 311.788 28.8335 311.788 31.1001C311.788 32.7001 311.671 34.0168 311.438 35.0501C311.237 36.0835 310.804 37.0335 310.137 37.9001C309.504 38.7668 308.671 39.4501 307.637 39.9501C306.604 40.4168 305.171 40.8168 303.337 41.1501C301.504 41.4835 299.404 41.7168 297.038 41.8501C294.704 41.9501 291.788 42.0001 288.288 42.0001C285.888 42.0001 283.804 41.9668 282.038 41.9001C280.304 41.8335 278.671 41.7168 277.137 41.5501C275.637 41.3835 274.387 41.1668 273.387 40.9001C272.387 40.6335 271.487 40.2668 270.688 39.8001C269.888 39.3335 269.254 38.8335 268.788 38.3001C268.354 37.7335 267.987 37.0168 267.688 36.1501C267.388 35.2835 267.188 34.3668 267.087 33.4001C266.987 32.4335 266.938 31.2835 266.938 29.9501H278.987C278.987 30.5168 279.071 30.9501 279.237 31.2501C279.438 31.5501 279.887 31.8001 280.587 32.0001C281.288 32.2001 282.254 32.3335 283.487 32.4001C284.754 32.4668 286.538 32.5001 288.837 32.5001H290.038C293.837 32.5001 296.138 32.4335 296.938 32.3001C297.771 32.1668 298.188 31.7335 298.188 31.0001C298.188 30.5668 297.904 30.2835 297.337 30.1501C296.771 30.0168 295.204 29.8668 292.637 29.7001C290.771 29.5668 289.221 29.4501 287.987 29.3501C286.021 29.1835 284.504 29.0501 283.438 28.9501C282.404 28.8501 281.104 28.7168 279.538 28.5501C278.004 28.3501 276.837 28.1668 276.038 28.0001C275.238 27.8001 274.288 27.5668 273.188 27.3001C272.087 27.0001 271.254 26.6668 270.688 26.3001C270.154 25.9335 269.554 25.5001 268.887 25.0001C268.254 24.5001 267.787 23.9335 267.487 23.3001C267.221 22.6668 266.971 21.9501 266.737 21.1501C266.537 20.3168 266.438 19.4168 266.438 18.4501C266.438 17.2835 266.521 16.2335 266.688 15.3001C266.854 14.3668 267.087 13.5335 267.387 12.8001C267.687 12.0668 268.104 11.4168 268.637 10.8501C269.171 10.2835 269.737 9.80012 270.337 9.40012C270.938 8.96679 271.704 8.61679 272.637 8.35012C273.604 8.05012 274.554 7.81679 275.487 7.65012C276.454 7.48346 277.638 7.35012 279.038 7.25012C280.438 7.15012 281.804 7.08346 283.137 7.05012C284.504 7.01679 286.121 7.00012 287.987 7.00012Z" fill="black"/>
<path d="M194.482 42.0001H184.882L176.232 26.6001V42.0001H164.582V6.90015H178.482L189.832 26.3501L201.182 6.90015H215.132V42.0001H203.482V26.5001L194.482 42.0001Z" fill="black"/>
<path d="M137.716 6.90015H98.9663V42.0001H137.716V32.2501H110.616V29.1001H136.016V19.7501H110.616V16.6501H137.716V6.90015Z" fill="black"/>
<path d="M83.0207 6.90015H94.6707V42.0001H83.0207V29.8001H62.1207V42.0001H50.4707V6.90015H62.1207V19.0501H83.0207V6.90015Z" fill="black"/>
<path d="M47.6996 6.90015H1.34961V18.5001H18.7496V42.0001H30.3496V18.5001H47.6996V6.90015Z" fill="black"/>
</mask>
<g mask="url(#mask0_729_2347)">
<line x1="10.1768" y1="0.176777" x2="-31.8232" y2="42.1768" stroke="black" stroke-width="0.5"/>
<line x1="18.1768" y1="0.176777" x2="-23.8232" y2="42.1768" stroke="black" stroke-width="0.5"/>
<line x1="26.1768" y1="0.176777" x2="-15.8232" y2="42.1768" stroke="black" stroke-width="0.5"/>
<line x1="34.1768" y1="0.176777" x2="-7.82322" y2="42.1768" stroke="black" stroke-width="0.5"/>
<line x1="42.1768" y1="0.176777" x2="0.176778" y2="42.1768" stroke="black" stroke-width="0.5"/>
<line x1="50.1768" y1="0.176777" x2="8.17678" y2="42.1768" stroke="black" stroke-width="0.5"/>
<line x1="58.1768" y1="0.176777" x2="16.1768" y2="42.1768" stroke="black" stroke-width="0.5"/>
<line x1="66.1768" y1="0.176777" x2="24.1768" y2="42.1768" stroke="black" stroke-width="0.5"/>
<line x1="74.1768" y1="0.176777" x2="32.1768" y2="42.1768" stroke="black" stroke-width="0.5"/>
<line x1="82.1768" y1="0.176777" x2="40.1768" y2="42.1768" stroke="black" stroke-width="0.5"/>
<line x1="90.1768" y1="0.176777" x2="48.1768" y2="42.1768" stroke="black" stroke-width="0.5"/>
<line x1="98.1768" y1="0.176777" x2="56.1768" y2="42.1768" stroke="black" stroke-width="0.5"/>
<line x1="106.177" y1="0.176777" x2="64.1768" y2="42.1768" stroke="black" stroke-width="0.5"/>
<line x1="114.177" y1="0.176777" x2="72.1768" y2="42.1768" stroke="black" stroke-width="0.5"/>
<line x1="122.177" y1="0.176777" x2="80.1768" y2="42.1768" stroke="black" stroke-width="0.5"/>
<line x1="130.177" y1="0.176777" x2="88.1768" y2="42.1768" stroke="black" stroke-width="0.5"/>
<line x1="138.177" y1="0.176777" x2="96.1768" y2="42.1768" stroke="black" stroke-width="0.5"/>
<line x1="146.177" y1="0.176777" x2="104.177" y2="42.1768" stroke="black" stroke-width="0.5"/>
<line x1="154.177" y1="0.176777" x2="112.177" y2="42.1768" stroke="black" stroke-width="0.5"/>
<line x1="162.177" y1="0.176777" x2="120.177" y2="42.1768" stroke="black" stroke-width="0.5"/>
<line x1="170.177" y1="0.176777" x2="128.177" y2="42.1768" stroke="black" stroke-width="0.5"/>
<line x1="178.177" y1="0.176777" x2="136.177" y2="42.1768" stroke="black" stroke-width="0.5"/>
<line x1="186.177" y1="0.176777" x2="144.177" y2="42.1768" stroke="black" stroke-width="0.5"/>
<line x1="194.177" y1="0.176777" x2="152.177" y2="42.1768" stroke="black" stroke-width="0.5"/>
<line x1="202.177" y1="0.176777" x2="160.177" y2="42.1768" stroke="black" stroke-width="0.5"/>
<line x1="210.177" y1="0.176777" x2="168.177" y2="42.1768" stroke="black" stroke-width="0.5"/>
<line x1="218.177" y1="0.176777" x2="176.177" y2="42.1768" stroke="black" stroke-width="0.5"/>
<line x1="226.177" y1="0.176777" x2="184.177" y2="42.1768" stroke="black" stroke-width="0.5"/>
<line x1="234.177" y1="0.176777" x2="192.177" y2="42.1768" stroke="black" stroke-width="0.5"/>
<line x1="242.177" y1="0.176777" x2="200.177" y2="42.1768" stroke="black" stroke-width="0.5"/>
<line x1="250.177" y1="0.176777" x2="208.177" y2="42.1768" stroke="black" stroke-width="0.5"/>
<line x1="258.177" y1="0.176777" x2="216.177" y2="42.1768" stroke="black" stroke-width="0.5"/>
<line x1="266.177" y1="0.176777" x2="224.177" y2="42.1768" stroke="black" stroke-width="0.5"/>
<line x1="274.177" y1="0.176777" x2="232.177" y2="42.1768" stroke="black" stroke-width="0.5"/>
<line x1="282.177" y1="0.176777" x2="240.177" y2="42.1768" stroke="black" stroke-width="0.5"/>
<line x1="290.177" y1="0.176777" x2="248.177" y2="42.1768" stroke="black" stroke-width="0.5"/>
<line x1="298.177" y1="0.176777" x2="256.177" y2="42.1768" stroke="black" stroke-width="0.5"/>
<line x1="306.177" y1="0.176777" x2="264.177" y2="42.1768" stroke="black" stroke-width="0.5"/>
<line x1="314.177" y1="0.176777" x2="272.177" y2="42.1768" stroke="black" stroke-width="0.5"/>
<line x1="322.177" y1="0.176777" x2="280.177" y2="42.1768" stroke="black" stroke-width="0.5"/>
<line x1="330.177" y1="0.176777" x2="288.177" y2="42.1768" stroke="black" stroke-width="0.5"/>
<line x1="338.177" y1="0.176777" x2="296.177" y2="42.1768" stroke="black" stroke-width="0.5"/>
<line x1="346.177" y1="0.176777" x2="304.177" y2="42.1768" stroke="black" stroke-width="0.5"/>
<line x1="354.177" y1="0.176777" x2="312.177" y2="42.1768" stroke="black" stroke-width="0.5"/>
<line x1="362.177" y1="0.176777" x2="320.177" y2="42.1768" stroke="black" stroke-width="0.5"/>
<line x1="370.177" y1="0.176777" x2="328.177" y2="42.1768" stroke="black" stroke-width="0.5"/>
<line x1="378.177" y1="0.176777" x2="336.177" y2="42.1768" stroke="black" stroke-width="0.5"/>
<line x1="386.177" y1="0.176777" x2="344.177" y2="42.1768" stroke="black" stroke-width="0.5"/>
<line x1="394.177" y1="0.176777" x2="352.177" y2="42.1768" stroke="black" stroke-width="0.5"/>
</g>
</svg>
