<svg width="15" height="11" viewBox="0 0 15 11" fill="none" xmlns="http://www.w3.org/2000/svg">
<g filter="url(#filter0_d_7657_532)">
<path d="M1.00912 4.24056C1.00912 3.88077 1.10254 3.63878 1.2894 3.51456C1.47626 3.39035 1.77022 3.32825 2.17128 3.32825C2.35358 3.32825 2.64071 3.33039 3.03265 3.33467C3.4246 3.33895 3.84161 3.3411 4.28369 3.3411C4.72577 3.3411 5.15645 3.34324 5.57575 3.34752C5.99504 3.3518 6.32774 3.35395 6.57384 3.35395C6.92021 3.36251 7.19366 3.33467 7.3942 3.27042C7.59473 3.20618 7.69499 3.05841 7.69499 2.82712C7.69499 2.65579 7.70183 2.45234 7.7155 2.21677C7.72917 1.98119 7.73601 1.77774 7.73601 1.60642C7.74512 1.3066 7.83627 1.116 8.00946 1.03462C8.18265 0.953237 8.40141 1.01534 8.66574 1.22093C8.93919 1.42653 9.25822 1.67067 9.62282 1.95335C9.98742 2.23604 10.3657 2.52515 10.7576 2.82069C11.1496 3.11623 11.5324 3.40748 11.9061 3.69446C12.2799 3.98143 12.6126 4.23199 12.9042 4.44615C13.1686 4.65174 13.303 4.84662 13.3076 5.0308C13.3121 5.21498 13.1868 5.40558 12.9316 5.6026C12.6672 5.80819 12.3551 6.04377 11.995 6.30932C11.635 6.57488 11.2612 6.849 10.8739 7.13169C10.4865 7.41438 10.1059 7.69492 9.7322 7.97333C9.35849 8.25173 9.02579 8.49801 8.73411 8.71217C8.41508 8.95203 8.15302 9.04198 7.94793 8.98201C7.74285 8.92205 7.64486 8.73787 7.65397 8.42948V8.1211V7.74846C7.65397 7.61997 7.65169 7.49362 7.64714 7.3694C7.64258 7.24519 7.6403 7.13169 7.6403 7.02889C7.6403 6.81473 7.57194 6.67982 7.43521 6.62413C7.29849 6.56845 7.11163 6.54061 6.87464 6.54061C6.6103 6.54061 6.26393 6.53847 5.83552 6.53419C5.40712 6.5299 4.96048 6.52776 4.49562 6.52776C4.03075 6.52776 3.57955 6.52562 3.14203 6.52134C2.70451 6.51706 2.34902 6.51491 2.07557 6.51491C1.95708 6.51491 1.83403 6.50421 1.70642 6.48279C1.5788 6.46137 1.46259 6.42068 1.35777 6.36072C1.25294 6.30076 1.16863 6.21295 1.10482 6.09731C1.04102 5.98166 1.00912 5.82533 1.00912 5.6283C1.00912 5.39701 1.00684 5.17429 1.00228 4.96013C0.997721 4.74597 1 4.50611 1.00912 4.24056Z" fill="black"/>
<path d="M6.5862 2.8541L6.58621 2.85395H6.57384C6.33021 2.85395 5.99944 2.85182 5.58085 2.84755C5.15977 2.84325 4.72738 2.8411 4.28369 2.8411C3.84321 2.8411 3.42803 2.83896 3.03812 2.8347C2.64592 2.83042 2.35649 2.82825 2.17128 2.82825C1.73929 2.82825 1.32384 2.89128 1.01261 3.09817C0.620423 3.35887 0.510668 3.81093 0.509131 4.23155C0.5 4.50109 0.497645 4.74771 0.502392 4.97077C0.506868 5.18111 0.509115 5.40028 0.509115 5.6283C0.509115 5.87141 0.547204 6.12166 0.667035 6.33885C0.770865 6.52704 0.91766 6.68499 1.10949 6.79472C1.26912 6.88604 1.44201 6.94541 1.62366 6.97589L1.70642 6.48279L1.62366 6.97589C1.77615 7.00148 1.92695 7.01491 2.07557 7.01491C2.34673 7.01491 2.70041 7.01704 3.13714 7.02132C3.57639 7.02561 4.02922 7.02776 4.49562 7.02776C4.95895 7.02776 5.40392 7.0299 5.83053 7.03416C6.25972 7.03845 6.60794 7.04061 6.87464 7.04061C6.99075 7.04061 7.07749 7.04868 7.14036 7.05948C7.14077 7.16099 7.14317 7.2705 7.14747 7.38774C7.1518 7.50564 7.15397 7.62588 7.15397 7.74846V8.1211V8.42267C7.14891 8.62284 7.1758 8.83938 7.27921 9.03375C7.39317 9.24795 7.57932 9.39517 7.80762 9.46192C8.25422 9.5925 8.69031 9.37016 9.03222 9.11359C9.32452 8.89897 9.65745 8.65251 10.0309 8.3743C10.4033 8.0969 10.7825 7.81733 11.1686 7.53558C11.5566 7.25243 11.931 6.97781 12.2918 6.71171C12.6539 6.44465 12.9694 6.20661 13.2378 5.99784C13.5269 5.77451 13.8181 5.4499 13.8074 5.01843C13.797 4.59838 13.5031 4.27852 13.2112 4.05147L13.2113 4.05132L13.2001 4.04312C12.9121 3.8316 12.5823 3.58328 12.2107 3.29789L11.9061 3.69446L12.2107 3.29789C11.8357 3.00999 11.4517 2.71785 11.0587 2.42147C10.6684 2.12719 10.2919 1.83944 9.92919 1.55821C9.56462 1.27555 9.24458 1.0306 8.9693 0.823608C8.67218 0.593404 8.23956 0.374042 7.79682 0.582087C7.36848 0.783363 7.24753 1.2199 7.23624 1.59122L7.23601 1.59882V1.60642C7.23601 1.76526 7.22964 1.95856 7.21634 2.1878C7.20279 2.42119 7.19552 2.62821 7.19502 2.80757C7.06752 2.84001 6.8706 2.86113 6.5862 2.8541Z" stroke="white"/>
</g>
<defs>
<filter id="filter0_d_7657_532" x="0" y="-0.00390625" width="14.3076" height="10.7977" filterUnits="userSpaceOnUse" color-interpolation-filters="sRGB">
<feFlood flood-opacity="0" result="BackgroundImageFix"/>
<feColorMatrix in="SourceAlpha" type="matrix" values="0 0 0 0 0 0 0 0 0 0 0 0 0 0 0 0 0 0 127 0" result="hardAlpha"/>
<feOffset dy="0.79381"/>
<feComposite in2="hardAlpha" operator="out"/>
<feColorMatrix type="matrix" values="0 0 0 0 0 0 0 0 0 0 0 0 0 0 0 0 0 0 1 0"/>
<feBlend mode="normal" in2="BackgroundImageFix" result="effect1_dropShadow_7657_532"/>
<feBlend mode="normal" in="SourceGraphic" in2="effect1_dropShadow_7657_532" result="shape"/>
</filter>
</defs>
</svg>
