<svg width="36" height="36" viewBox="0 0 36 36" fill="none" xmlns="http://www.w3.org/2000/svg">
<path d="M28.6389 0C28.4897 0 28.3467 0.0592633 28.2412 0.164752L20.6228 7.7831C20.272 8.13391 20.5141 8.73406 21.0102 8.74325L26.7288 8.84915C27.0354 8.85483 27.2809 9.10495 27.2809 9.41155V14.8139C27.2809 15.315 27.8868 15.566 28.2412 15.2116L35.8349 7.61788C35.9404 7.51239 35.9997 7.36931 35.9997 7.22013V0.5625C35.9997 0.25184 35.7478 0 35.4372 0H28.6389Z" fill="#EE7D35"/>
<path d="M0.5625 0C0.25184 0 0 0.25184 0 0.5625V6.93848C0 7.0879 0.0594522 7.23118 0.165239 7.33671L10.0133 17.1607C10.2312 17.378 10.2339 17.7301 10.0195 17.9508L0.159019 28.1019C0.0570433 28.2069 0 28.3475 0 28.4939V35.2969C0 35.6075 0.25184 35.8594 0.5625 35.8594H11.5313C11.8419 35.8594 12.0938 35.6075 12.0938 35.2969V31.3814C12.0938 31.2322 12.153 31.0892 12.2585 30.9837L17.6049 25.6373C17.8235 25.4187 18.1776 25.4175 18.3977 25.6347L28.5935 35.6972C28.6988 35.8011 28.8407 35.8594 28.9886 35.8594H35.2969C35.6075 35.8594 35.8594 35.6075 35.8594 35.2969V28.5685C35.8594 28.4196 35.8003 28.2767 35.6951 28.1713L7.75859 0.165247C7.65306 0.0594552 7.50977 0 7.36035 0H0.5625Z" fill="white"/>
</svg>
