<svg width="52" height="52" viewBox="0 0 52 52" fill="none" xmlns="http://www.w3.org/2000/svg">
<circle cx="26" cy="26" r="24.96" fill="#FFB852" stroke="black" stroke-width="1.92"/>
<mask id="path-2-outside-1_110_3018" maskUnits="userSpaceOnUse" x="5.79347" y="8.39942" width="32.2963" height="37.2928" fill="black">
<rect fill="white" x="5.79347" y="8.39942" width="32.2963" height="37.2928"/>
<path d="M17.4628 32.9473C17.4659 33.1069 17.4682 33.2004 17.2476 33.2029L14.3894 33.2314L14.4214 35.8238L19.4033 35.7698L19.45 39.537L21.9269 39.5076L21.8802 35.7404L23.4198 35.7242L23.4651 39.4862L25.8213 39.4608L25.7798 35.6923L27.5518 35.676C28.7318 35.66 32.9446 34.6112 32.8886 30.7026C32.9217 29.6449 32.596 28.6071 31.9646 27.7579C31.3331 26.9087 30.433 26.2981 29.4105 26.0253C29.4105 26.0253 31.7918 24.5545 31.5327 22.0881C31.2736 19.6216 29.3328 18.9517 28.2161 18.5969C27.3485 18.3592 26.4566 18.2216 25.5577 18.187L25.5104 14.2484L23.2466 14.2884L23.2988 18.2035L21.4788 18.2268L21.4432 14.2907L19.1535 14.3375L19.1995 18.2708L14.4002 18.3279L14.4214 20.6465L17.0527 20.6153C17.3175 20.6123 17.319 20.7447 17.32 20.833L17.4628 32.9473ZM21.4988 20.5622L24.2964 20.5318C24.7767 20.5276 27.1153 20.8996 27.1261 22.8834C27.1444 23.4271 26.9671 23.9594 26.6266 24.3837C26.286 24.808 25.8047 25.0961 25.2698 25.196C25.0557 25.2516 24.8363 25.285 24.6153 25.2956L21.5309 25.3293L21.4988 20.5622ZM21.6186 27.7964L25.9909 27.7571C26.3074 27.7593 26.6201 27.826 26.91 27.9531C27.1998 28.0802 27.4607 28.2651 27.6767 28.4964C27.8927 28.7278 28.0593 29.0007 28.1662 29.2986C28.2732 29.5965 28.3183 29.913 28.2988 30.2289C28.3193 31.8061 26.9498 32.5137 26.2301 32.7023C26.1248 32.7334 26.0159 32.7508 25.9061 32.754L21.6872 32.8084L21.6186 27.7964Z"/>
</mask>
<path d="M17.4628 32.9473C17.4659 33.1069 17.4682 33.2004 17.2476 33.2029L14.3894 33.2314L14.4214 35.8238L19.4033 35.7698L19.45 39.537L21.9269 39.5076L21.8802 35.7404L23.4198 35.7242L23.4651 39.4862L25.8213 39.4608L25.7798 35.6923L27.5518 35.676C28.7318 35.66 32.9446 34.6112 32.8886 30.7026C32.9217 29.6449 32.596 28.6071 31.9646 27.7579C31.3331 26.9087 30.433 26.2981 29.4105 26.0253C29.4105 26.0253 31.7918 24.5545 31.5327 22.0881C31.2736 19.6216 29.3328 18.9517 28.2161 18.5969C27.3485 18.3592 26.4566 18.2216 25.5577 18.187L25.5104 14.2484L23.2466 14.2884L23.2988 18.2035L21.4788 18.2268L21.4432 14.2907L19.1535 14.3375L19.1995 18.2708L14.4002 18.3279L14.4214 20.6465L17.0527 20.6153C17.3175 20.6123 17.319 20.7447 17.32 20.833L17.4628 32.9473ZM21.4988 20.5622L24.2964 20.5318C24.7767 20.5276 27.1153 20.8996 27.1261 22.8834C27.1444 23.4271 26.9671 23.9594 26.6266 24.3837C26.286 24.808 25.8047 25.0961 25.2698 25.196C25.0557 25.2516 24.8363 25.285 24.6153 25.2956L21.5309 25.3293L21.4988 20.5622ZM21.6186 27.7964L25.9909 27.7571C26.3074 27.7593 26.6201 27.826 26.91 27.9531C27.1998 28.0802 27.4607 28.2651 27.6767 28.4964C27.8927 28.7278 28.0593 29.0007 28.1662 29.2986C28.2732 29.5965 28.3183 29.913 28.2988 30.2289C28.3193 31.8061 26.9498 32.5137 26.2301 32.7023C26.1248 32.7334 26.0159 32.7508 25.9061 32.754L21.6872 32.8084L21.6186 27.7964Z" fill="#FFE3BD"/>
<path d="M17.4628 32.9473L15.5988 32.9692L15.5989 32.9764L15.5991 32.9836L17.4628 32.9473ZM17.2476 33.2029L17.2662 35.0669L17.2687 35.0668L17.2476 33.2029ZM14.3894 33.2314L14.3708 31.3674L12.5024 31.3861L12.5255 33.2545L14.3894 33.2314ZM14.4214 35.8238L12.5575 35.8468L12.5805 37.7079L14.4416 37.6878L14.4214 35.8238ZM19.4033 35.7698L21.2673 35.7467L21.2442 33.8857L19.3832 33.9059L19.4033 35.7698ZM19.45 39.537L17.5861 39.5601L17.6092 41.4231L19.4722 41.401L19.45 39.537ZM21.9269 39.5076L21.949 41.3716L23.8139 41.3494L23.7908 39.4845L21.9269 39.5076ZM21.8802 35.7404L21.8606 33.8764L19.9931 33.8961L20.0163 35.7635L21.8802 35.7404ZM23.4198 35.7242L25.2838 35.7018L25.2613 33.8407L23.4002 33.8603L23.4198 35.7242ZM23.4651 39.4862L21.6012 39.5087L21.6236 41.3703L23.4853 41.3502L23.4651 39.4862ZM25.8213 39.4608L25.8414 41.3248L27.7058 41.3046L27.6853 39.4403L25.8213 39.4608ZM25.7798 35.6923L25.7627 33.8283L23.8953 33.8453L23.9158 35.7128L25.7798 35.6923ZM27.5518 35.676L27.5689 37.54L27.5771 37.5399L27.5518 35.676ZM32.8886 30.7026L31.0254 30.6443L31.0241 30.6868L31.0247 30.7293L32.8886 30.7026ZM29.4105 26.0253L28.4309 24.4393L24.7518 26.7117L28.93 27.8264L29.4105 26.0253ZM28.2161 18.5969L28.7805 16.8203L28.7448 16.809L28.7087 16.7991L28.2161 18.5969ZM25.5577 18.187L23.6937 18.2094L23.715 19.9814L25.4858 20.0497L25.5577 18.187ZM25.5104 14.2484L27.3743 14.226L27.3518 12.3515L25.4774 12.3846L25.5104 14.2484ZM23.2466 14.2884L23.2136 12.4246L21.3579 12.4574L21.3826 14.3133L23.2466 14.2884ZM23.2988 18.2035L23.3226 20.0675L25.1876 20.0436L25.1627 18.1787L23.2988 18.2035ZM21.4788 18.2268L19.6148 18.2436L19.6317 20.1146L21.5026 20.0907L21.4788 18.2268ZM21.4432 14.2907L23.3072 14.2738L23.2902 12.3885L21.4051 12.427L21.4432 14.2907ZM19.1535 14.3375L19.1154 12.4738L17.268 12.5115L17.2896 14.3592L19.1535 14.3375ZM19.1995 18.2708L19.2216 20.1348L21.0852 20.1126L21.0634 18.2491L19.1995 18.2708ZM14.4002 18.3279L14.3781 16.464L12.5193 16.4861L12.5362 18.3449L14.4002 18.3279ZM14.4214 20.6465L12.5574 20.6635L12.5744 22.5326L14.4435 22.5104L14.4214 20.6465ZM17.0527 20.6153L17.0315 18.7514L17.0306 18.7514L17.0527 20.6153ZM17.32 20.833L15.4561 20.8542L15.4561 20.855L17.32 20.833ZM21.4988 20.5622L21.4785 18.6983L19.6223 18.7185L19.6348 20.5748L21.4988 20.5622ZM24.2964 20.5318L24.2802 18.6678L24.2761 18.6678L24.2964 20.5318ZM27.1261 22.8834L25.2621 22.8935L25.2622 22.9197L25.2631 22.9459L27.1261 22.8834ZM25.2698 25.196L24.9279 23.3635L24.8639 23.3755L24.8009 23.3918L25.2698 25.196ZM24.6153 25.2956L24.6357 27.1595L24.67 27.1592L24.7043 27.1575L24.6153 25.2956ZM21.5309 25.3293L19.6669 25.3418L19.6794 27.2137L21.5513 27.1933L21.5309 25.3293ZM21.6186 27.7964L21.6019 25.9324L19.7291 25.9492L19.7547 27.8219L21.6186 27.7964ZM25.9909 27.7571L26.0038 25.8931L25.989 25.893L25.9742 25.8931L25.9909 27.7571ZM28.2988 30.2289L26.4383 30.1141L26.434 30.1836L26.4349 30.2531L28.2988 30.2289ZM26.2301 32.7023L25.7575 30.8991L25.73 30.9064L25.7027 30.9144L26.2301 32.7023ZM25.9061 32.754L25.9302 34.6179L25.9458 34.6177L25.9615 34.6173L25.9061 32.754ZM21.6872 32.8084L19.8233 32.8339L19.8488 34.6964L21.7112 34.6723L21.6872 32.8084ZM15.5991 32.9836C15.6004 33.0549 15.5967 32.9792 15.6048 32.8885C15.6135 32.791 15.6474 32.4917 15.8476 32.1635C16.3534 31.334 17.1997 31.3392 17.2264 31.3389L17.2687 35.0668C17.5161 35.064 18.4716 35.0212 19.0306 34.1045C19.2574 33.7326 19.3039 33.38 19.3182 33.2199C19.3319 33.0667 19.3267 32.9195 19.3265 32.9109L15.5991 32.9836ZM17.2289 31.3389L14.3708 31.3674L14.408 35.0954L17.2662 35.0669L17.2289 31.3389ZM12.5255 33.2545L12.5575 35.8468L16.2854 35.8008L16.2533 33.2084L12.5255 33.2545ZM14.4416 37.6878L19.4235 37.6338L19.3832 33.9059L14.4012 33.9598L14.4416 37.6878ZM17.5394 35.7929L17.5861 39.5601L21.3139 39.5139L21.2673 35.7467L17.5394 35.7929ZM19.4722 41.401L21.949 41.3716L21.9047 37.6437L19.4279 37.6731L19.4722 41.401ZM23.7908 39.4845L23.7441 35.7173L20.0163 35.7635L20.0629 39.5307L23.7908 39.4845ZM21.8998 37.6044L23.4394 37.5882L23.4002 33.8603L21.8606 33.8764L21.8998 37.6044ZM21.5559 35.7467L21.6012 39.5087L25.3291 39.4638L25.2838 35.7018L21.5559 35.7467ZM23.4853 41.3502L25.8414 41.3248L25.8012 37.5968L23.445 37.6223L23.4853 41.3502ZM27.6853 39.4403L27.6438 35.6717L23.9158 35.7128L23.9573 39.4813L27.6853 39.4403ZM25.7969 37.5563L27.5689 37.54L27.5347 33.812L25.7627 33.8283L25.7969 37.5563ZM27.5771 37.5399C28.4919 37.5275 30.1787 37.1713 31.678 36.2258C33.2633 35.2261 34.7922 33.4467 34.7524 30.6759L31.0247 30.7293C31.041 31.8671 30.4915 32.5665 29.6894 33.0723C28.8014 33.6323 27.7918 33.8085 27.5266 33.8121L27.5771 37.5399ZM34.7517 30.7609C34.798 29.2827 34.3429 27.8323 33.4604 26.6456L30.4687 28.8702C30.8492 29.3818 31.0453 30.007 31.0254 30.6443L34.7517 30.7609ZM33.4604 26.6456C32.5779 25.4588 31.3199 24.6054 29.891 24.2242L28.93 27.8264C29.546 27.9907 30.0883 28.3586 30.4687 28.8702L33.4604 26.6456ZM29.4105 26.0253C30.39 27.6113 30.3907 27.6109 30.3913 27.6105C30.3915 27.6103 30.3922 27.6099 30.3926 27.6097C30.3935 27.6091 30.3945 27.6085 30.3954 27.6079C30.3974 27.6067 30.3995 27.6054 30.4018 27.604C30.4063 27.6012 30.4114 27.5979 30.4171 27.5943C30.4285 27.5871 30.4422 27.5783 30.458 27.5679C30.4898 27.5471 30.5303 27.52 30.5782 27.4865C30.6739 27.4198 30.8006 27.3271 30.9473 27.2091C31.2375 26.9755 31.6223 26.6294 32.0012 26.1745C32.7494 25.276 33.5875 23.8058 33.3866 21.8933L29.6788 22.2828C29.737 22.8369 29.514 23.3352 29.1363 23.7888C28.9523 24.0098 28.7579 24.1856 28.6097 24.3048C28.5372 24.3632 28.4799 24.4047 28.4464 24.4281C28.4297 24.4397 28.4193 24.4465 28.4163 24.4485C28.4148 24.4495 28.4152 24.4492 28.4176 24.4477C28.4187 24.447 28.4204 24.4459 28.4227 24.4445C28.4238 24.4438 28.425 24.443 28.4264 24.4422C28.4271 24.4417 28.4278 24.4413 28.4286 24.4408C28.429 24.4406 28.4295 24.4402 28.4297 24.4401C28.4303 24.4397 28.4309 24.4393 29.4105 26.0253ZM33.3866 21.8933C33.2008 20.1254 32.3742 18.8973 31.3529 18.089C30.4028 17.337 29.342 16.9987 28.7805 16.8203L27.6517 20.3735C28.2069 20.5499 28.6748 20.7239 29.0391 21.0123C29.3321 21.2442 29.6054 21.5844 29.6788 22.2828L33.3866 21.8933ZM28.7087 16.7991C27.7038 16.5237 26.6707 16.3644 25.6295 16.3243L25.4858 20.0497C26.2424 20.0788 26.9932 20.1946 27.7234 20.3947L28.7087 16.7991ZM27.4216 18.1646L27.3743 14.226L23.6464 14.2708L23.6937 18.2094L27.4216 18.1646ZM25.4774 12.3846L23.2136 12.4246L23.2795 16.1522L25.5433 16.1122L25.4774 12.3846ZM21.3826 14.3133L21.4349 18.2284L25.1627 18.1787L25.1105 14.2635L21.3826 14.3133ZM23.275 16.3396L21.455 16.3629L21.5026 20.0907L23.3226 20.0675L23.275 16.3396ZM23.3428 18.2099L23.3072 14.2738L19.5792 14.3076L19.6148 18.2436L23.3428 18.2099ZM21.4051 12.427L19.1154 12.4738L19.1916 16.2012L21.4813 16.1544L21.4051 12.427ZM17.2896 14.3592L17.3355 18.2926L21.0634 18.2491L21.0175 14.3157L17.2896 14.3592ZM19.1773 16.4069L14.3781 16.464L14.4224 20.1919L19.2216 20.1348L19.1773 16.4069ZM12.5362 18.3449L12.5574 20.6635L16.2854 20.6295L16.2642 18.3109L12.5362 18.3449ZM14.4435 22.5104L17.0748 22.4793L17.0306 18.7514L14.3993 18.7825L14.4435 22.5104ZM17.0739 22.4793C16.9546 22.4806 16.2945 22.4603 15.8068 21.8252C15.4045 21.3013 15.4544 20.7086 15.4561 20.8542L19.184 20.8118C19.184 20.81 19.1859 20.634 19.1502 20.434C19.1108 20.2131 19.0147 19.8813 18.7638 19.5546C18.2089 18.832 17.4156 18.747 17.0315 18.7514L17.0739 22.4793ZM15.4561 20.855L15.5988 32.9692L19.3267 32.9253L19.184 20.811L15.4561 20.855ZM21.5191 22.4262L24.3167 22.3957L24.2761 18.6678L21.4785 18.6983L21.5191 22.4262ZM24.3125 22.3958C24.2508 22.3963 24.3384 22.3934 24.5261 22.4361C24.6971 22.475 24.8732 22.5348 25.0183 22.6112C25.1644 22.6882 25.2228 22.752 25.2396 22.7751C25.2399 22.7755 25.2615 22.7912 25.2621 22.8935L28.9902 22.8732C28.9798 20.9688 27.7829 19.854 26.7564 19.313C25.8057 18.812 24.7906 18.6633 24.2802 18.6678L24.3125 22.3958ZM25.2631 22.9459C25.2664 23.0441 25.2344 23.1402 25.1729 23.2168L28.0803 25.5505C28.6999 24.7786 29.0224 23.8101 28.9892 22.8208L25.2631 22.9459ZM25.1729 23.2168C25.1114 23.2934 25.0245 23.3455 24.9279 23.3635L25.6118 27.0284C26.5849 26.8468 27.4606 26.3225 28.0803 25.5505L25.1729 23.2168ZM24.8009 23.3918C24.7111 23.4152 24.619 23.4292 24.5263 23.4336L24.7043 27.1575C25.0536 27.1408 25.4003 27.0881 25.7387 27.0001L24.8009 23.3918ZM24.5949 23.4316L21.5105 23.4653L21.5513 27.1933L24.6357 27.1595L24.5949 23.4316ZM23.3949 25.3168L23.3629 20.5497L19.6348 20.5748L19.6669 25.3418L23.3949 25.3168ZM21.6354 29.6604L26.0076 29.6211L25.9742 25.8931L21.6019 25.9324L21.6354 29.6604ZM25.978 29.6212C26.0411 29.6216 26.1035 29.6349 26.1613 29.6603L27.6586 26.246C27.1367 26.0171 26.5737 25.8971 26.0038 25.8931L25.978 29.6212ZM26.1613 29.6603C26.2191 29.6856 26.2711 29.7225 26.3142 29.7686L29.0392 27.2243C28.6503 26.8077 28.1805 26.4749 27.6586 26.246L26.1613 29.6603ZM26.3142 29.7686C26.3573 29.8147 26.3905 29.8692 26.4118 29.9286L29.9206 28.6686C29.728 28.1322 29.4281 27.6408 29.0392 27.2243L26.3142 29.7686ZM26.4118 29.9286C26.4332 29.988 26.4422 30.0511 26.4383 30.1141L30.1594 30.3437C30.1944 29.7749 30.1132 29.2049 29.9206 28.6686L26.4118 29.9286ZM26.4349 30.2531C26.4364 30.3658 26.4148 30.4264 26.3983 30.4616C26.3788 30.5031 26.3432 30.556 26.2761 30.618C26.2068 30.6822 26.1154 30.745 26.0097 30.7991C25.903 30.8538 25.8093 30.8856 25.7575 30.8991L26.7027 34.5055C27.2859 34.3526 28.104 34.0059 28.808 33.3546C29.5557 32.6628 30.181 31.6091 30.1627 30.2047L26.4349 30.2531ZM25.7027 30.9144C25.7508 30.9002 25.8006 30.8923 25.8508 30.8908L25.9615 34.6173C26.2312 34.6093 26.4988 34.5666 26.7576 34.4902L25.7027 30.9144ZM25.8821 30.8901L21.6632 30.9445L21.7112 34.6723L25.9302 34.6179L25.8821 30.8901ZM23.5511 32.7829L23.4825 27.7709L19.7547 27.8219L19.8233 32.8339L23.5511 32.7829Z" fill="black" mask="url(#path-2-outside-1_110_3018)"/>
<mask id="path-4-inside-2_110_3018" fill="white">
<path d="M36.3898 8.59301C32.7976 6.44901 28.6301 5.46885 24.4588 5.78697C20.2875 6.10509 16.3168 7.70591 13.0913 10.3699C9.86581 13.0338 7.54345 16.6305 6.44277 20.6664C5.34209 24.7024 5.517 28.9801 6.94351 32.9127C8.37003 36.8454 10.9783 40.2404 14.4105 42.6321C17.8428 45.0238 21.9309 46.2951 26.1142 46.2716C30.2975 46.2481 34.3711 44.931 37.7763 42.5009C41.1814 40.0708 43.7514 36.6467 45.1336 32.6983L43.1134 31.991C41.8771 35.5225 39.5785 38.5851 36.5329 40.7586C33.4872 42.9321 29.8438 44.1102 26.1022 44.1312C22.3606 44.1522 18.7041 43.0151 15.6343 40.8759C12.5644 38.7368 10.2316 35.7002 8.95572 32.1828C7.67983 28.6654 7.52339 24.8394 8.50785 21.2296C9.4923 17.6198 11.5694 14.4029 14.4544 12.0203C17.3393 9.63759 20.8908 8.2058 24.6216 7.92127C28.3524 7.63674 32.0799 8.5134 35.2928 10.431L36.3898 8.59301Z"/>
</mask>
<path d="M36.3898 8.59301C32.7976 6.44901 28.6301 5.46885 24.4588 5.78697C20.2875 6.10509 16.3168 7.70591 13.0913 10.3699C9.86581 13.0338 7.54345 16.6305 6.44277 20.6664C5.34209 24.7024 5.517 28.9801 6.94351 32.9127C8.37003 36.8454 10.9783 40.2404 14.4105 42.6321C17.8428 45.0238 21.9309 46.2951 26.1142 46.2716C30.2975 46.2481 34.3711 44.931 37.7763 42.5009C41.1814 40.0708 43.7514 36.6467 45.1336 32.6983L43.1134 31.991C41.8771 35.5225 39.5785 38.5851 36.5329 40.7586C33.4872 42.9321 29.8438 44.1102 26.1022 44.1312C22.3606 44.1522 18.7041 43.0151 15.6343 40.8759C12.5644 38.7368 10.2316 35.7002 8.95572 32.1828C7.67983 28.6654 7.52339 24.8394 8.50785 21.2296C9.4923 17.6198 11.5694 14.4029 14.4544 12.0203C17.3393 9.63759 20.8908 8.2058 24.6216 7.92127C28.3524 7.63674 32.0799 8.5134 35.2928 10.431L36.3898 8.59301Z" stroke="black" stroke-width="7.45631" mask="url(#path-4-inside-2_110_3018)"/>
<path d="M44.919 26.7283H37.1599V24.6072L39.7161 22.0148C40.6225 21.0842 41.251 20.3712 41.6015 19.8756C41.964 19.3801 42.1453 18.8544 42.1453 18.2984C42.1453 17.7304 41.9943 17.3316 41.6921 17.1019C41.4021 16.8723 40.9851 16.7575 40.4412 16.7575C39.6315 16.7575 38.7492 16.83 37.7944 16.975L37.3594 17.0294L37.2325 15.0897C38.4169 14.7271 39.6436 14.5458 40.9126 14.5458C43.4506 14.5458 44.7196 15.6879 44.7196 17.9721C44.7196 18.8665 44.5262 19.64 44.1395 20.2926C43.7527 20.9452 43.0518 21.7368 42.0366 22.6674L39.9518 24.5528H44.919V26.7283Z" fill="#FFDFB6"/>
<path d="M44.919 26.7283V28.4203H46.611V26.7283H44.919ZM37.1599 26.7283H35.4679V28.4203H37.1599V26.7283ZM37.1599 24.6072L35.9551 23.4192L35.4679 23.9133V24.6072H37.1599ZM39.7161 22.0148L40.9209 23.2028L40.9282 23.1954L39.7161 22.0148ZM41.6015 19.8756L40.236 18.8765L40.2279 18.8875L40.2201 18.8986L41.6015 19.8756ZM41.6921 17.1019L40.6419 18.4286L40.655 18.4389L40.6683 18.4491L41.6921 17.1019ZM37.7944 16.975L38.0043 18.654L38.0265 18.6512L38.0485 18.6479L37.7944 16.975ZM37.3594 17.0294L35.671 17.1399L35.7881 18.931L37.5692 18.7084L37.3594 17.0294ZM37.2325 15.0897L36.7372 13.4718L35.4566 13.8638L35.5441 15.2001L37.2325 15.0897ZM42.0366 22.6674L43.1715 23.9224L43.1799 23.9147L42.0366 22.6674ZM39.9518 24.5528L38.8169 23.2979L35.5582 26.2448H39.9518V24.5528ZM44.919 24.5528H46.611V22.8608H44.919V24.5528ZM44.919 25.0363H37.1599V28.4203H44.919V25.0363ZM38.852 26.7283V24.6072H35.4679V26.7283H38.852ZM38.3648 25.7952L40.9209 23.2028L38.5113 20.8268L35.9551 23.4192L38.3648 25.7952ZM40.9282 23.1954C41.8431 22.256 42.5509 21.4635 42.9828 20.8527L40.2201 18.8986C39.9511 19.2788 39.4019 19.9124 38.504 20.8342L40.9282 23.1954ZM42.967 20.8748C43.5184 20.1212 43.8373 19.2512 43.8373 18.2984H40.4533C40.4533 18.4576 40.4097 18.6391 40.236 18.8765L42.967 20.8748ZM43.8373 18.2984C43.8373 17.4735 43.6164 16.4392 42.7159 15.7548L40.6683 18.4491C40.6078 18.4031 40.5572 18.3499 40.518 18.2956C40.4796 18.2424 40.4593 18.1979 40.4497 18.1726C40.4331 18.1287 40.4533 18.1552 40.4533 18.2984H43.8373ZM42.7423 15.7753C42.0414 15.2204 41.1935 15.0655 40.4412 15.0655V18.4495C40.5985 18.4495 40.6824 18.4666 40.7126 18.4749C40.7389 18.4821 40.7022 18.4763 40.6419 18.4286L42.7423 15.7753ZM40.4412 15.0655C39.5321 15.0655 38.5637 15.1468 37.5403 15.3022L38.0485 18.6479C38.9347 18.5133 39.7309 18.4495 40.4412 18.4495V15.0655ZM37.5846 15.2961L37.1495 15.3505L37.5692 18.7084L38.0043 18.654L37.5846 15.2961ZM39.0478 16.919L38.9209 14.9792L35.5441 15.2001L35.671 17.1399L39.0478 16.919ZM37.7277 16.7076C38.7477 16.3953 39.8073 16.2378 40.9126 16.2378V12.8538C39.4799 12.8538 38.086 13.0589 36.7372 13.4718L37.7277 16.7076ZM40.9126 16.2378C41.9622 16.2378 42.4335 16.4778 42.6359 16.66C42.8045 16.8118 43.0276 17.1396 43.0276 17.9721H46.4116C46.4116 16.5205 46.0002 15.1351 44.8997 14.1447C43.8332 13.1848 42.401 12.8538 40.9126 12.8538V16.2378ZM43.0276 17.9721C43.0276 18.6177 42.8901 19.0819 42.6839 19.43L45.5951 21.1552C46.1623 20.198 46.4116 19.1152 46.4116 17.9721H43.0276ZM42.6839 19.43C42.4244 19.8679 41.8684 20.5262 40.8932 21.4202L43.1799 23.9147C44.2351 22.9475 45.0811 22.0225 45.5951 21.1552L42.6839 19.43ZM40.9016 21.4125L38.8169 23.2979L41.0867 25.8078L43.1715 23.9224L40.9016 21.4125ZM39.9518 26.2448H44.919V22.8608H39.9518V26.2448ZM43.227 24.5528V26.7283H46.611V24.5528H43.227Z" fill="black"/>
</svg>
