<svg width="148" height="148" viewBox="0 0 148 148" fill="none" xmlns="http://www.w3.org/2000/svg">
<path d="M128.693 74C128.693 104.206 104.206 128.693 74 128.693C43.794 128.693 19.3071 104.206 19.3071 74C19.3071 43.794 43.794 19.3071 74 19.3071C104.206 19.3071 128.693 43.794 128.693 74Z" fill="#FFB852"/>
<path fill-rule="evenodd" clip-rule="evenodd" d="M133.068 74C133.068 106.623 106.622 133.068 73.9999 133.068C41.3774 133.068 14.9316 106.623 14.9316 74C14.9316 41.3775 41.3774 14.9317 73.9999 14.9317C106.622 14.9317 133.068 41.3775 133.068 74ZM73.9999 128.693C104.206 128.693 128.693 104.206 128.693 74C128.693 43.794 104.206 19.3071 73.9999 19.3071C43.7939 19.3071 19.3071 43.794 19.3071 74C19.3071 104.206 43.7939 128.693 73.9999 128.693Z" fill="black"/>
<path d="M54.5453 89.8322C54.5524 90.196 54.5578 90.409 54.0549 90.4147L47.5415 90.4798L47.6145 96.3874L58.9676 96.2644L59.074 104.849L64.7184 104.782L64.6121 96.1974L68.1207 96.1605L68.2239 104.734L73.5933 104.676L73.4987 96.0876L77.5369 96.0507C80.226 96.0142 89.8264 93.6241 89.6987 84.7169C89.7741 82.3065 89.032 79.9414 87.593 78.0062C86.154 76.0711 84.1027 74.6795 81.7726 74.0579C81.7726 74.0579 87.1993 70.7062 86.6088 65.0855C86.0184 59.4648 81.5955 57.938 79.0507 57.1296C77.0737 56.5878 75.041 56.2744 72.9926 56.1954L72.8847 47.2199L67.7258 47.311L67.8449 56.2331L63.6974 56.2861L63.6162 47.3163L58.3983 47.4229L58.503 56.3865L47.5662 56.5166L47.6144 61.8003L53.6108 61.7293C54.2143 61.7224 54.2178 62.0242 54.22 62.2253L54.5453 89.8322ZM63.743 61.6083L70.1182 61.5389C71.2128 61.5294 76.5422 62.3772 76.5669 66.8978C76.6085 68.137 76.2046 69.35 75.4284 70.3169C74.6523 71.2838 73.5554 71.9405 72.3366 72.1679C71.8486 72.2948 71.3487 72.3709 70.845 72.3949L63.816 72.4718L63.743 61.6083ZM64.016 78.094L73.9798 78.0045C74.7011 78.0095 75.4137 78.1615 76.0742 78.4512C76.7348 78.7409 77.3293 79.1622 77.8215 79.6893C78.3138 80.2165 78.6933 80.8385 78.9371 81.5173C79.1809 82.1961 79.2837 82.9175 79.2393 83.6374C79.286 87.2316 76.1651 88.8441 74.525 89.2739C74.2849 89.3448 74.0368 89.3844 73.7866 89.3918L64.1723 89.5158L64.016 78.094Z" fill="#FFE3BD"/>
<path fill-rule="evenodd" clip-rule="evenodd" d="M50.2542 86.2044L43.2411 86.2745L43.4191 100.681L54.7724 100.558L54.8788 109.147L69.0187 108.98L69.0186 108.973L77.8877 108.877L77.7932 100.293C79.9169 100.218 83.629 99.3915 86.94 97.3034C90.5342 95.0368 94.0014 91.0114 93.9473 84.7518C94.0298 81.4171 92.9934 78.1497 91.0018 75.4714C90.3263 74.563 89.5543 73.7404 88.7034 73.0154C90.0506 70.9699 91.1997 68.1282 90.8335 64.6417C90.4102 60.6127 88.5263 57.8141 86.1989 55.972C84.0339 54.2584 81.6164 53.4875 80.3368 53.081L80.2556 53.0552L80.1733 53.0326C79.1911 52.7635 78.1971 52.543 77.1948 52.3717L77.081 42.8971L67.8258 43.0606L67.8251 42.9814L54.1013 43.2617L54.2056 52.1893L43.2797 52.3193L43.4053 66.0984L50.0164 66.0201L50.2542 86.2044ZM50.2988 89.9792C50.2988 89.9788 50.2987 89.9715 50.2988 89.9586C50.2989 89.9732 50.2989 89.9796 50.2988 89.9792ZM49.9742 62.4356C49.9575 62.2396 49.971 62.1627 49.9723 62.2735L49.9742 62.4356ZM58.503 56.3865L47.5661 56.5166L47.6143 61.8003L53.6108 61.7292C54.2143 61.7224 54.2177 62.0241 54.22 62.2253L54.5453 89.8321L54.5453 89.8348C54.5524 90.197 54.5565 90.409 54.0548 90.4147L47.5422 90.4797L47.6144 96.3874L58.9676 96.2644L59.0739 104.849L64.7183 104.782L64.6121 96.2028L64.612 96.1974L68.1206 96.1605L68.2238 104.734L73.5932 104.676L73.4987 96.0876L77.5369 96.0507C77.6027 96.0498 77.6726 96.0475 77.7464 96.0437C80.6899 95.8933 89.8232 93.4061 89.6986 84.7169C89.7741 82.3065 89.032 79.9414 87.5929 78.0062C87.0998 77.343 86.5347 76.7436 85.9111 76.2172C84.7152 75.2077 83.3041 74.4665 81.7725 74.0579C81.7725 74.0579 83.6806 72.8794 85.1108 70.7482C86.0925 69.2852 86.8491 67.3733 86.6087 65.0855C86.0183 59.4648 81.5954 57.938 79.0507 57.1296C77.0736 56.5878 75.0409 56.2744 72.9925 56.1954L72.8847 47.2199L67.7257 47.311L67.8448 56.2331L63.6973 56.2861L63.6162 47.3163L58.3982 47.4229L58.503 56.3865ZM76.5668 66.8978C76.5421 62.3772 71.2127 61.5294 70.1181 61.5389L63.7429 61.6083L63.816 72.4718L70.845 72.3949C71.3486 72.3709 71.8485 72.2948 72.3365 72.1679C73.5553 71.9405 74.6523 71.2838 75.4284 70.3169C76.2045 69.35 76.6084 68.137 76.5668 66.8978ZM79.2392 83.6374C79.2836 82.9175 79.1808 82.1961 78.937 81.5173C78.6933 80.8385 78.3137 80.2165 77.8214 79.6893C77.3292 79.1621 76.7347 78.7409 76.0742 78.4512C75.4136 78.1615 74.701 78.0095 73.9798 78.0045L64.0159 78.094L64.1722 89.5157L73.7866 89.3918C74.0367 89.3844 74.2849 89.3447 74.5249 89.2739C76.1651 88.8441 79.2859 87.2316 79.2392 83.6374ZM73.5105 85.147C73.6339 85.1097 73.8177 85.0418 74.0226 84.9369C74.2635 84.8134 74.4718 84.6703 74.6297 84.5241C74.7825 84.3828 74.8637 84.2622 74.9081 84.1676C74.9458 84.0875 74.9949 83.9494 74.9916 83.6926L74.9895 83.534L74.9993 83.3758C75.0081 83.2322 74.9876 83.0884 74.939 82.953C74.8904 82.8176 74.8147 82.6936 74.7165 82.5884C74.6184 82.4833 74.4998 82.3993 74.3681 82.3415C74.2427 82.2865 74.1079 82.2564 73.9712 82.2528L68.3219 82.3035L68.3617 85.2134L73.5105 85.147ZM70.7035 68.1482C70.8941 68.1353 71.083 68.1046 71.2679 68.0565L71.4114 68.0192L71.5572 67.992C71.7773 67.951 71.9754 67.8324 72.1156 67.6577C72.2558 67.4831 72.3287 67.2641 72.3212 67.0403L72.3192 66.9807L72.3189 66.921C72.3176 66.6962 72.2717 66.6548 72.2678 66.6513C72.2677 66.6512 72.2679 66.6514 72.2678 66.6513C72.2296 66.5988 72.0962 66.4531 71.7632 66.2777C71.4326 66.1034 71.0313 65.9673 70.6416 65.8786C70.3054 65.8021 70.1101 65.7898 70.1102 65.7875C70.1102 65.7874 70.1109 65.7872 70.1124 65.7872L68.0193 65.81L68.0352 68.1774L70.7035 68.1482Z" fill="black"/>
<path fill-rule="evenodd" clip-rule="evenodd" d="M112.998 87.6525C110.181 95.7003 104.943 102.679 98.0021 107.633C91.0615 112.586 82.7585 115.27 74.2319 115.318C65.7053 115.366 57.3727 112.775 50.3769 107.9C43.3812 103.025 38.0649 96.1053 35.1574 88.0896C32.2498 80.0739 31.8933 71.355 34.1367 63.1287C36.3802 54.9024 41.1137 47.5716 47.6881 42.1418C54.2625 36.712 62.3557 33.4491 70.8578 32.8007C79.3599 32.1523 87.8543 34.1501 95.1761 38.5201L97.676 34.3315C97.6722 34.3292 97.6684 34.3269 97.6645 34.3246C95.2082 32.8595 92.6339 31.6332 89.9769 30.6538C83.7816 28.3704 77.1363 27.4298 70.4869 27.9369C60.9811 28.6619 51.9324 32.3099 44.5819 38.3807C37.2313 44.4516 31.939 52.6478 29.4307 61.8453C26.9224 71.0427 27.321 80.791 30.5718 89.753C33.8226 98.715 39.7665 106.452 47.5881 111.902C55.4098 117.353 64.7261 120.25 74.2593 120.196C83.7925 120.143 93.0757 117.141 100.836 111.603C106.264 107.729 110.761 102.747 114.051 97.0227C115.461 94.5698 116.65 91.9807 117.595 89.2842C117.597 89.2776 117.6 89.2709 117.602 89.2642L112.998 87.6525Z" fill="black"/>
<path d="M116.579 74.8031H98.8975V69.9695L104.723 64.0617C106.788 61.941 108.22 60.316 109.019 59.1868C109.845 58.0576 110.259 56.8595 110.259 55.5926C110.259 54.2981 109.914 53.3892 109.226 52.8659C108.565 52.3427 107.614 52.081 106.375 52.081C104.53 52.081 102.519 52.2463 100.343 52.5768L99.3519 52.7007L99.0627 48.2802C101.762 47.454 104.557 47.0408 107.449 47.0408C113.233 47.0408 116.125 49.6435 116.125 54.849C116.125 56.8871 115.684 58.6497 114.803 60.137C113.922 61.6243 112.324 63.4283 110.011 65.549L105.26 69.8455H116.579V74.8031Z" fill="#FFDFB6"/>
<path fill-rule="evenodd" clip-rule="evenodd" d="M120.435 78.659H95.0416V68.3882L101.968 61.3632C104.01 59.2668 105.259 57.8257 105.871 56.9602L105.889 56.9349L105.907 56.9099C106.184 56.5321 106.316 56.2165 106.37 55.9369C104.753 55.9372 102.94 56.0825 100.922 56.3889L100.872 56.3966L95.7713 57.0342L95.0159 45.4866L97.9341 44.5933C101.008 43.6523 104.184 43.185 107.449 43.185C110.841 43.185 114.105 43.9394 116.535 46.1269C119.043 48.3838 119.981 51.5408 119.981 54.849C119.981 57.454 119.413 59.9215 118.12 62.1028C117.382 63.3492 116.342 64.6477 115.072 65.9897H120.435V78.659ZM105.26 69.8456L110.011 65.549C112.324 63.4283 113.922 61.6243 114.803 60.137C115.684 58.6498 116.125 56.8871 116.125 54.849C116.125 49.6436 113.233 47.0409 107.449 47.0409C104.557 47.0409 101.762 47.454 99.0627 48.2803L99.3519 52.7007L100.343 52.5768C101.324 52.4278 102.272 52.3124 103.185 52.2306C104.298 52.1309 105.362 52.081 106.375 52.081C107.615 52.081 108.565 52.3427 109.226 52.866C109.914 53.3893 110.259 54.2982 110.259 55.5926C110.259 56.8596 109.845 58.0576 109.019 59.1869C108.22 60.3161 106.788 61.941 104.723 64.0618L98.8975 69.9695V74.8031H116.579V69.8456H105.26Z" fill="black"/>
</svg>
