<svg width="260" height="60" viewBox="0 0 260 60" fill="none" xmlns="http://www.w3.org/2000/svg">
<path d="M0.600925 30L20.2676 0.5H239.732L259.399 30L239.732 59.5H20.2676L0.600925 30Z" fill="#FFF8EE" stroke="black"/>
<path fill-rule="evenodd" clip-rule="evenodd" d="M164.811 19.48H157.5V15.3927L156.083 14H156.08V25.0182L157.5 26.4109V20.8764H164.811V24.9636L166.231 26.36V15.3927L164.811 14V19.48ZM79 26.4133H80.5683L85.5723 16.286L90.5762 26.4133H92.1483L86.0262 14.0242H85.1221L79 26.4133ZM93.7547 22.6788L95.1754 21.2788V16.7151L104.205 26.4133H105.814V14.0242H104.394V24.5479L94.5887 14.0242H93.7547V22.6788ZM108.301 14.0242V15.4169H113.623V26.4133L115.043 25.0169V15.4169H120.369V14.0242H108.301ZM118.749 26.4133H120.317L125.321 16.286L130.329 26.4133H131.897L125.775 14.0242H124.871L118.749 26.4133ZM135.837 25.0169V15.4169L134.416 14.0242V26.4133H143.288V26.4097L141.871 25.0169H135.837ZM149.078 21.5951H150.019C152.144 21.5951 153.875 19.8969 153.875 17.8097C153.875 15.7224 152.144 14.0242 150.019 14.0242H145.107V26.4133H146.528V15.4169H150.019C151.362 15.4169 152.458 16.4897 152.458 17.8097C152.458 19.1297 151.362 20.2024 150.019 20.2024H147.657L149.078 21.5951ZM174.563 14.0242L168.441 26.4133H170.009L175.013 16.286L180.021 26.4133H181.589L175.467 14.0242H174.563ZM80.5683 33.2699H79L85.1221 45.659H86.0262L92.1483 33.2699H90.5762L85.5723 43.3935L80.5683 33.2699ZM95.7817 44.2626H102.026L103.446 45.659H94.3609V33.2699H102.026L103.446 34.6626H95.7817V44.2626ZM116.516 43.7935L106.71 33.2699H105.876V41.9244L107.297 40.5281V35.9608L116.327 45.659H117.936V33.2699H116.516V43.7935ZM159.162 45.659L154.221 40.8044C156.114 40.5681 157.583 38.979 157.583 37.0553C157.583 34.9681 155.852 33.2699 153.726 33.2699H148.815V45.659H150.235V34.6626H153.726C155.07 34.6626 156.166 35.7353 156.166 37.0553C156.166 38.3753 155.07 39.4481 153.726 39.4481H150.829L151.837 40.4372L157.155 45.659H159.162ZM162.974 44.2626H169.218L170.639 45.659H161.553V33.2699H169.218L170.639 34.6626H162.974V44.2626ZM125.473 34.6695V45.6659L126.894 44.2695V34.6695H132.215V33.2768H120.148V34.6695H125.473ZM140.229 44.3896C137.871 44.3896 135.952 42.5095 135.952 40.1932V33.2768H134.649V40.1932C134.649 43.215 137.151 45.6695 140.229 45.6695C143.306 45.6695 145.808 43.215 145.808 40.1932V33.2768H144.506V40.1932C144.506 42.5095 142.587 44.3896 140.229 44.3896ZM174.268 42.6223L172.907 43.2586L172.958 43.4077C173.253 44.2114 173.763 44.8441 174.482 45.2914C175.239 45.7604 176.184 46.0005 177.291 46.0005C178.128 46.0005 178.877 45.8477 179.527 45.5422C180.176 45.2405 180.686 44.8077 181.044 44.2586C181.405 43.7095 181.59 43.0768 181.59 42.3823C181.59 41.3532 181.28 40.5386 180.671 39.9568C180.066 39.375 179.055 38.935 177.667 38.6477C176.995 38.5059 176.464 38.3423 176.088 38.1677C175.711 37.9896 175.438 37.775 175.276 37.5277C175.113 37.2841 175.028 36.9641 175.028 36.5859C175.028 35.9713 175.228 35.4986 175.626 35.175C176.025 34.855 176.63 34.6913 177.412 34.6913C178.667 34.6913 179.508 35.1859 179.914 36.1604L179.984 36.3277L181.346 35.7095L181.287 35.5604C181.029 34.8513 180.571 34.295 179.922 33.9023C179.235 33.4877 178.379 33.2768 177.379 33.2768C176.556 33.2768 175.833 33.4186 175.231 33.695C174.63 33.9713 174.161 34.3713 173.837 34.8804C173.512 35.3859 173.346 35.9823 173.346 36.6513C173.346 37.5641 173.645 38.3095 174.231 38.8586C174.818 39.4077 175.759 39.8186 177.032 40.0877C177.756 40.2404 178.335 40.4186 178.756 40.6223C179.169 40.8223 179.472 41.0696 179.652 41.3496C179.833 41.6295 179.925 41.9896 179.925 42.4113C179.925 43.0877 179.693 43.6223 179.232 44.0041C178.767 44.3859 178.117 44.5822 177.291 44.5822C176.527 44.5822 175.881 44.415 175.375 44.0877C174.907 43.7859 174.556 43.3532 174.338 42.7968L174.268 42.6223ZM98.2629 40.161L96.8459 38.7683V38.7647H101.831L103.252 40.161H98.2629ZM165.455 40.161L164.038 38.7683V38.7647H169.024L170.444 40.161H165.455Z" fill="#2222FF"/>
</svg>
