<svg width="260" height="60" viewBox="0 0 260 60" fill="none" xmlns="http://www.w3.org/2000/svg">
<path d="M0.600925 30L20.2676 0.5H239.732L259.399 30L239.732 59.5H20.2676L0.600925 30Z" fill="#FFF8EE" stroke="black"/>
<g clip-path="url(#clip0_6861_2141)">
<path fill-rule="evenodd" clip-rule="evenodd" d="M70.0381 22.879H70.4099H83.7968V9.37539V9H84.1687H97.5555H97.9274V9.37539V22.879H111.291H111.663H125.05H125.422V23.2544V36.7351V36.7685V37.1105V37.1439V50.6245V51H125.05H111.663H111.291V50.6245V37.1439H97.9274H97.9042H97.5555H97.5323H84.1687H83.7968H70.4099H70.0381V36.7685V23.2544V22.879ZM97.9274 23.2544H97.9042V23.2649V23.6298V36.3931V36.7685H97.9274H98.276H110.919H111.291V36.7351V36.3931V23.6298V23.2544H110.919H98.276H97.9274ZM111.663 36.7351V36.7685H112.035H124.678H125.05V36.7351V36.3931V23.6298V23.2544H124.678H112.035H111.663V23.6298V36.3931V36.7351ZM84.1687 22.879V22.8895H84.5405H97.1837H97.5323H97.5555V22.879V22.5141V9.75079V9.37539H97.1837H84.5405H84.1687V9.75079V22.5141V22.879ZM84.1687 23.2649V23.6298V36.3931V36.7685H84.5405H97.1837H97.5323H97.5555V36.3931V23.6298V23.2649V23.2544H97.5323H97.1837H84.5405H84.1687V23.2649ZM111.663 37.1439V37.4859V50.2493V50.6245H112.035H124.678H125.05V50.2493V37.4859V37.1439V37.1105H124.678H112.035H111.663V37.1439ZM70.7818 23.2544H70.4099V23.6298V36.3931V36.7685H70.7818H83.425H83.7968V36.3931V23.6298V23.2649V23.2544H83.425H70.7818ZM88.6072 19.0417V13.2607H91.1351C91.5277 13.2607 91.8604 13.3185 92.1331 13.4341C92.4058 13.5442 92.6104 13.7067 92.7467 13.9214C92.8885 14.1306 92.9594 14.3839 92.9594 14.6812C92.9594 15.0115 92.8776 15.2896 92.714 15.5153C92.6005 15.6772 92.4493 15.8008 92.2602 15.8862C92.4099 15.9407 92.5448 16.0126 92.6649 16.1017C92.8558 16.2393 93.003 16.41 93.1067 16.6137C93.2103 16.8119 93.2621 17.0376 93.2621 17.2909C93.2621 17.5827 93.213 17.8387 93.1148 18.0589C93.0167 18.2737 92.8749 18.4554 92.6894 18.604C92.504 18.7527 92.2858 18.8628 92.035 18.9344C91.7895 19.0059 91.5169 19.0417 91.2169 19.0417H88.6072ZM89.9161 17.869H91.1678C91.3205 17.869 91.4487 17.8442 91.5523 17.7947C91.6614 17.7451 91.7459 17.6736 91.8059 17.58C91.8659 17.4809 91.8959 17.3625 91.8959 17.2248C91.8959 17.0982 91.8632 16.9908 91.7977 16.9028C91.7377 16.8147 91.6505 16.7486 91.5359 16.7046C91.4214 16.655 91.285 16.6302 91.1269 16.6302H89.9161V17.869ZM89.9161 15.5814H90.9387C91.0805 15.5814 91.2005 15.5594 91.2987 15.5153C91.4023 15.4658 91.4786 15.3997 91.5277 15.3171C91.5823 15.229 91.6096 15.1244 91.6096 15.0033C91.6096 14.8271 91.5495 14.6894 91.4296 14.5903C91.3096 14.4857 91.1296 14.4334 90.8896 14.4334H89.9161V15.5814ZM76.3864 27.2335L74.1203 33.0146H75.4947L75.9035 31.9079H77.9995L78.4071 33.0146H79.8142L77.5645 27.2335H76.3864ZM77.6101 30.8508L77.3273 30.0828C77.2836 29.9671 77.24 29.8433 77.1963 29.7111C77.1527 29.579 77.1091 29.4441 77.0655 29.3064C77.0285 29.1851 76.9914 29.0676 76.9544 28.9541C76.92 29.0716 76.8833 29.189 76.8446 29.3064C76.8064 29.4331 76.7628 29.5625 76.7137 29.6946C76.6646 29.8213 76.6182 29.9534 76.5746 30.091L76.294 30.8508H77.6101ZM116.264 27.2335V33.0146H120.338V31.8171H117.614V30.6444H119.888V29.5047H117.614V28.4311H120.256V27.2335H116.264ZM115.892 40.9724V46.7534H118.289C118.709 46.7534 119.094 46.6845 119.443 46.547C119.792 46.4038 120.092 46.2057 120.343 45.9523C120.599 45.6936 120.795 45.3881 120.931 45.0356C121.068 44.6776 121.136 44.2866 121.136 43.8629C121.136 43.4389 121.068 43.0508 120.931 42.6984C120.795 42.346 120.599 42.0405 120.343 41.7817C120.092 41.5229 119.792 41.3247 119.443 41.1871C119.094 41.0439 118.709 40.9724 118.289 40.9724H115.892ZM117.283 45.5145H118.248C118.477 45.5145 118.682 45.4759 118.862 45.3989C119.042 45.3163 119.194 45.2036 119.32 45.0605C119.451 44.9174 119.552 44.7437 119.623 44.5401C119.694 44.3363 119.729 44.1106 119.729 43.8629C119.729 43.6151 119.694 43.3894 119.623 43.1857C119.552 42.982 119.451 42.8085 119.32 42.6654C119.194 42.5222 119.042 42.4121 118.862 42.335C118.682 42.2524 118.477 42.2112 118.248 42.2112H117.283V45.5145ZM104.921 33.0971C104.49 33.0971 104.092 33.0256 103.727 32.8824C103.367 32.7338 103.053 32.5273 102.786 32.263C102.518 31.9932 102.311 31.6767 102.164 31.3133C102.022 30.9444 101.951 30.5397 101.951 30.0993C101.951 29.6698 102.028 29.2734 102.18 28.91C102.333 28.5467 102.543 28.2328 102.81 27.9686C103.083 27.6988 103.402 27.4896 103.767 27.3409C104.138 27.1922 104.542 27.1179 104.978 27.1179C105.251 27.1179 105.518 27.1537 105.78 27.2253C106.042 27.2968 106.285 27.4042 106.508 27.5474C106.737 27.685 106.933 27.8502 107.097 28.0429L106.246 29.0257C106.132 28.9045 106.009 28.7999 105.878 28.7118C105.753 28.6182 105.614 28.5467 105.461 28.4971C105.308 28.4475 105.145 28.4228 104.97 28.4228C104.752 28.4228 104.545 28.4641 104.348 28.5467C104.157 28.6237 103.988 28.7366 103.841 28.8853C103.699 29.0284 103.587 29.2046 103.506 29.4138C103.424 29.623 103.383 29.857 103.383 30.1158C103.383 30.3691 103.424 30.6003 103.506 30.8095C103.587 31.0133 103.702 31.1894 103.849 31.3381C103.996 31.4867 104.174 31.5996 104.381 31.6767C104.594 31.7537 104.828 31.7923 105.085 31.7923C105.259 31.7923 105.425 31.7675 105.584 31.718C105.742 31.6684 105.886 31.6023 106.017 31.5198C106.154 31.4317 106.273 31.3326 106.377 31.2224L107.048 32.2961C106.912 32.4502 106.729 32.5879 106.5 32.709C106.276 32.8301 106.025 32.9265 105.747 32.9981C105.475 33.0641 105.199 33.0971 104.921 33.0971ZM162.323 34.9392C162.973 35.194 163.682 35.3214 164.449 35.3214C164.944 35.3214 165.434 35.2626 165.92 35.145C166.415 35.0176 166.861 34.8461 167.259 34.6305C167.667 34.4149 167.992 34.1699 168.235 33.8955L167.041 31.9845C166.856 32.1805 166.643 32.3569 166.4 32.5137C166.167 32.6607 165.91 32.7783 165.628 32.8665C165.347 32.9547 165.051 32.9988 164.74 32.9988C164.284 32.9988 163.866 32.9302 163.488 32.793C163.119 32.6558 162.803 32.4549 162.541 32.1903C162.279 31.9257 162.075 31.6121 161.93 31.2495C161.784 30.8771 161.711 30.4655 161.711 30.0147C161.711 29.5541 161.784 29.1376 161.93 28.7652C162.075 28.3928 162.274 28.0792 162.527 27.8244C162.789 27.5598 163.09 27.3589 163.43 27.2217C163.779 27.0747 164.148 27.0012 164.536 27.0012C164.847 27.0012 165.138 27.0453 165.41 27.1335C165.682 27.2217 165.929 27.3491 166.153 27.5157C166.386 27.6725 166.604 27.8587 166.808 28.0743L168.322 26.325C168.031 25.982 167.681 25.688 167.274 25.443C166.876 25.1882 166.444 24.9971 165.978 24.8697C165.512 24.7423 165.036 24.6786 164.551 24.6786C163.774 24.6786 163.056 24.8109 162.396 25.0755C161.745 25.3401 161.177 25.7125 160.692 26.1927C160.216 26.6631 159.842 27.2217 159.571 27.8685C159.299 28.5153 159.163 29.2209 159.163 29.9853C159.163 30.7693 159.289 31.4896 159.542 32.1462C159.804 32.793 160.173 33.3565 160.648 33.8367C161.124 34.3071 161.682 34.6746 162.323 34.9392ZM135.872 35.1744L139.905 24.8844H142.002L146.007 35.1744H143.502L142.776 33.2046H139.046L138.318 35.1744H135.872ZM141.58 29.9559L142.084 31.323H139.741L140.24 29.9706C140.318 29.7256 140.4 29.4904 140.488 29.265C140.575 29.0298 140.653 28.7995 140.721 28.5741C140.79 28.365 140.855 28.156 140.916 27.947C140.982 28.149 141.048 28.358 141.114 28.5741C141.192 28.8191 141.269 29.0592 141.347 29.2944C141.424 29.5296 141.502 29.7501 141.58 29.9559ZM148.443 35.1744V24.8844H152.943C153.642 24.8844 154.234 24.9873 154.719 25.1931C155.205 25.3891 155.569 25.6782 155.811 26.0604C156.064 26.4328 156.19 26.8836 156.19 27.4128C156.19 28.0008 156.044 28.4957 155.753 28.8975C155.551 29.1856 155.282 29.4057 154.945 29.5578C155.212 29.6548 155.452 29.7826 155.666 29.9412C156.006 30.1862 156.268 30.49 156.452 30.8526C156.637 31.2054 156.729 31.6072 156.729 32.058C156.729 32.5774 156.641 33.0331 156.467 33.4251C156.292 33.8073 156.039 34.1307 155.709 34.3953C155.379 34.6599 154.991 34.8559 154.545 34.9833C154.108 35.1107 153.622 35.1744 153.088 35.1744H148.443ZM150.773 33.087H153.001C153.273 33.087 153.501 33.0429 153.685 32.9547C153.88 32.8665 154.03 32.7391 154.137 32.5725C154.244 32.3961 154.297 32.1854 154.297 31.9404C154.297 31.715 154.239 31.5239 154.122 31.3671C154.015 31.2103 153.86 31.0927 153.656 31.0143C153.452 30.9261 153.21 30.882 152.928 30.882H150.773V33.087ZM150.773 29.0151H152.593C152.846 29.0151 153.059 28.9759 153.234 28.8975C153.418 28.8093 153.554 28.6917 153.642 28.5447C153.739 28.3879 153.787 28.2017 153.787 27.9861C153.787 27.6725 153.681 27.4275 153.467 27.2511C153.253 27.0649 152.933 26.9718 152.506 26.9718H150.773V29.0151ZM171.094 35.1744V24.8844H175.361C176.108 24.8844 176.793 25.0118 177.414 25.2666C178.035 25.5116 178.569 25.8644 179.016 26.325C179.472 26.7856 179.821 27.3295 180.064 27.9567C180.307 28.5839 180.428 29.2748 180.428 30.0294C180.428 30.784 180.307 31.4798 180.064 32.1168C179.821 32.744 179.472 33.2879 179.016 33.7485C178.569 34.1993 178.035 34.5521 177.414 34.8069C176.793 35.0519 176.108 35.1744 175.361 35.1744H171.094ZM175.288 32.9694H173.57V27.0894H175.288C175.696 27.0894 176.06 27.1629 176.38 27.3099C176.7 27.4471 176.972 27.6431 177.195 27.8979C177.428 28.1527 177.608 28.4614 177.734 28.824C177.86 29.1866 177.924 29.5884 177.924 30.0294C177.924 30.4704 177.86 30.8722 177.734 31.2348C177.608 31.5974 177.428 31.9061 177.195 32.1609C176.972 32.4157 176.7 32.6166 176.38 32.7636C176.06 32.9008 175.696 32.9694 175.288 32.9694ZM190.613 24.8844H183.507V35.1744H190.759V33.0429H185.91V30.9555H189.958V28.9269H185.91V27.0159H190.613V24.8844Z" fill="black"/>
</g>
<defs>
<clipPath id="clip0_6861_2141">
<rect width="121" height="42" fill="white" transform="translate(70 9)"/>
</clipPath>
</defs>
</svg>
