<svg width="260" height="60" viewBox="0 0 260 60" fill="none" xmlns="http://www.w3.org/2000/svg">
<path d="M0.600925 30L20.2676 0.5H239.732L259.399 30L239.732 59.5H20.2676L0.600925 30Z" fill="#FFF8EE" stroke="black"/>
<path d="M134.651 44.298C134.426 44.2568 134.199 44.2231 133.978 44.1725C132.591 43.8579 131.785 42.9329 131.755 41.5361C131.724 40.1917 131.749 38.8454 131.749 37.4991C131.749 37.4691 131.757 37.4373 131.765 37.3867C132.53 37.3867 133.293 37.3867 134.084 37.3867C134.084 37.4841 134.084 37.5758 134.084 37.6676C134.084 38.8491 134.082 40.0306 134.086 41.2121C134.086 41.3601 134.092 41.5099 134.121 41.6559C134.223 42.1896 134.557 42.4405 135.125 42.4236C135.643 42.4086 135.964 42.124 136.037 41.6091C136.056 41.478 136.058 41.3432 136.058 41.2103C136.06 40.0288 136.058 38.8472 136.058 37.6657C136.058 37.5815 136.058 37.4953 136.058 37.3886C136.839 37.3886 137.602 37.3886 138.385 37.3886C138.391 37.4579 138.402 37.5253 138.402 37.5927C138.402 38.8678 138.408 40.143 138.402 41.4181C138.397 42.3487 138.089 43.1595 137.238 43.7325C136.802 44.0265 136.299 44.1725 135.767 44.2455C135.686 44.2568 135.604 44.2792 135.522 44.2961C135.234 44.298 134.941 44.298 134.651 44.298Z" fill="black"/>
<path d="M156.967 44.2959C156.495 44.2004 156.006 44.1461 155.552 44.0001C155.114 43.8596 154.709 43.6312 154.296 43.4327C154.149 43.3616 154.139 43.2642 154.239 43.1275C154.584 42.6631 154.914 42.1894 155.263 41.7007C155.36 41.77 155.439 41.8262 155.517 41.8823C156.094 42.2943 156.746 42.5265 157.48 42.5414C157.681 42.5452 157.902 42.5302 158.08 42.4572C158.211 42.4029 158.354 42.2437 158.362 42.122C158.368 42.0246 158.198 41.8561 158.076 41.8243C157.642 41.7138 157.19 41.6539 156.75 41.5621C156.452 41.4985 156.149 41.4348 155.865 41.3337C154.897 40.9892 154.445 40.2964 154.566 39.3545C154.695 38.3415 155.362 37.7236 156.38 37.4352C157.777 37.0402 159.098 37.248 160.321 37.982C160.393 38.0251 160.458 38.0756 160.524 38.1262C160.55 38.1449 160.569 38.1711 160.612 38.2142C160.237 38.6917 159.863 39.171 159.481 39.6616C158.935 39.2291 158.331 38.9969 157.638 38.9913C157.462 38.9894 157.27 39.0025 157.112 39.0662C157.002 39.1111 156.877 39.2515 156.875 39.3526C156.873 39.4481 157.004 39.6073 157.108 39.6335C157.566 39.7515 158.039 39.832 158.503 39.9294C159.106 40.0567 159.699 40.2065 160.16 40.6184C160.749 41.1465 160.888 42.0864 160.487 42.8485C160.068 43.6462 159.307 44.0094 158.413 44.1948C158.223 44.2341 158.028 44.2603 157.836 44.2941C157.548 44.2959 157.257 44.2959 156.967 44.2959Z" fill="black"/>
<path d="M109.095 31.6667C106.273 31.6667 103.452 31.6667 100.63 31.6667C100.123 31.6667 100.021 31.5713 100.021 31.1013C100.021 25.9183 100.021 20.7372 100.021 15.5542C100.021 15.1105 100.139 15 100.624 15C106.275 15 111.928 15 117.578 15C118.114 15 118.212 15.0899 118.212 15.5711C118.212 20.7447 118.212 25.9202 118.212 31.0938C118.212 31.5862 118.125 31.6667 117.587 31.6667C114.756 31.6667 111.926 31.6667 109.095 31.6667ZM109.122 26.1205C109.968 26.1205 110.815 26.1224 111.66 26.1205C111.995 26.1187 112.159 25.9801 112.161 25.6824C112.165 24.1245 112.165 22.5666 112.161 21.0106C112.161 20.6885 112.007 20.5556 111.654 20.5556C109.97 20.5537 108.285 20.5537 106.602 20.5556C106.219 20.5556 106.08 20.6867 106.08 21.0424C106.078 22.576 106.08 24.1114 106.08 25.6449C106.08 25.9969 106.219 26.1205 106.608 26.1224C107.447 26.1205 108.283 26.1205 109.122 26.1205Z" fill="black"/>
<path d="M127.309 20.5556C127.45 20.5556 127.552 20.5556 127.653 20.5556C129.354 20.5556 131.056 20.5556 132.757 20.5556C133.273 20.5556 133.373 20.6473 133.373 21.1173C133.373 22.5966 133.373 24.0758 133.373 25.555C133.373 26.0213 133.273 26.1112 132.753 26.1112C131.052 26.1112 129.35 26.1112 127.649 26.1112C127.548 26.1112 127.446 26.1112 127.307 26.1112C127.307 26.2216 127.307 26.3134 127.307 26.4033C127.307 27.9836 127.307 29.5658 127.307 31.1462C127.307 31.5507 127.188 31.6611 126.747 31.6611C125.104 31.6611 123.464 31.6611 121.822 31.6611C121.368 31.6611 121.247 31.5488 121.247 31.1294C121.247 25.9558 121.247 20.7803 121.247 15.6067C121.247 15.0805 121.339 15 121.922 15C123.513 15 125.102 15 126.693 15C127.207 15 127.307 15.0936 127.307 15.5655C127.307 17.1309 127.307 18.6962 127.307 20.2616C127.309 20.3459 127.309 20.4301 127.309 20.5556Z" fill="black"/>
<path d="M115.828 37.3645C116.556 37.3645 117.266 37.3589 117.974 37.372C118.049 37.3738 118.145 37.46 118.196 37.5293C118.892 38.4599 119.581 39.3942 120.27 40.3267C120.315 40.3885 120.364 40.4465 120.463 40.4915C120.463 39.4635 120.463 38.4355 120.463 37.3851C121.219 37.3851 121.947 37.3851 122.69 37.3851C122.69 39.6339 122.69 41.879 122.69 44.1503C122.6 44.1559 122.51 44.1634 122.42 44.1634C121.925 44.1652 121.428 44.1559 120.933 44.169C120.749 44.1727 120.638 44.1166 120.534 43.9799C119.777 42.9744 119.012 41.9745 118.252 40.9727C118.205 40.9109 118.151 40.851 118.049 40.8004C118.049 41.9127 118.049 43.0249 118.049 44.1503C117.29 44.1503 116.568 44.1503 115.828 44.1503C115.828 41.8958 115.828 39.6451 115.828 37.3645Z" fill="black"/>
<path d="M139.89 37.3897C139.937 37.3803 139.978 37.3672 140.018 37.3672C141.266 37.3728 142.516 37.356 143.761 37.3971C144.551 37.4234 145.271 37.6743 145.796 38.2566C146.737 39.3014 146.424 40.9567 145.158 41.6532C145.101 41.6851 145.044 41.7188 144.964 41.7637C145.493 42.552 146.019 43.3328 146.561 44.1417C146.471 44.153 146.416 44.1642 146.361 44.1661C145.608 44.168 144.855 44.1642 144.105 44.1698C143.947 44.1717 143.859 44.1193 143.784 43.9957C143.438 43.4283 143.072 42.8722 142.735 42.3011C142.62 42.1083 142.487 42.039 142.231 42.112C142.231 42.7767 142.231 43.4527 142.231 44.1474C141.436 44.1474 140.673 44.1474 139.89 44.1474C139.89 41.8929 139.89 39.6441 139.89 37.3897ZM142.235 40.3893C142.653 40.3893 143.064 40.4193 143.465 40.38C143.829 40.3444 144.013 40.0972 144.009 39.7733C144.005 39.455 143.812 39.2134 143.446 39.1779C143.054 39.1404 142.651 39.1685 142.235 39.1685C142.235 39.5692 142.235 39.9774 142.235 40.3893Z" fill="black"/>
<path d="M157.648 20.5532C156.82 20.5532 155.989 20.5532 155.161 20.5532C154.76 20.5532 154.635 20.4428 154.635 20.0795C154.633 18.5535 154.633 17.0274 154.635 15.5032C154.635 15.1081 154.756 15.0014 155.183 15.0014C156.824 14.9995 158.466 14.9995 160.106 15.0014C160.568 15.0014 160.689 15.11 160.689 15.5276C160.689 17.0368 160.689 18.5478 160.687 20.057C160.687 20.4484 160.566 20.5532 160.133 20.5551C159.307 20.5551 158.476 20.5532 157.648 20.5532Z" fill="black"/>
<path d="M139.445 17.7783C139.445 18.546 139.445 19.3118 139.445 20.0795C139.445 20.4278 139.314 20.5514 138.942 20.5532C137.259 20.5551 135.574 20.5551 133.891 20.5532C133.518 20.5532 133.385 20.4259 133.383 20.0795C133.381 18.546 133.381 17.0124 133.383 15.4789C133.383 15.1269 133.522 15.0014 133.915 15.0014C135.582 14.9995 137.249 14.9995 138.916 15.0014C139.319 15.0014 139.447 15.1287 139.445 15.5014C139.445 16.2616 139.445 17.0199 139.445 17.7783Z" fill="black"/>
<path d="M145.508 20.5528C144.679 20.5528 143.851 20.5546 143.021 20.5528C142.628 20.5528 142.497 20.4329 142.497 20.0753C142.495 18.5418 142.497 17.0101 142.497 15.4765C142.497 15.132 142.628 15.0047 143.004 15.0028C144.679 14.9991 146.352 14.9991 148.027 15.0028C148.414 15.0028 148.553 15.1358 148.553 15.4859C148.553 17.012 148.553 18.5361 148.553 20.0622C148.553 20.4367 148.428 20.5528 148.017 20.5528C147.18 20.5546 146.344 20.5528 145.508 20.5528Z" fill="black"/>
<path d="M157.663 31.6693C156.834 31.6693 156.006 31.6693 155.176 31.6693C154.746 31.6693 154.634 31.5645 154.634 31.1657C154.634 29.649 154.634 28.1304 154.634 26.6137C154.634 26.2355 154.756 26.125 155.168 26.125C156.824 26.125 158.483 26.125 160.139 26.125C160.565 26.125 160.686 26.2355 160.686 26.6287C160.688 28.1454 160.688 29.6639 160.686 31.1806C160.686 31.5533 160.557 31.6693 160.146 31.6712C159.321 31.6693 158.491 31.6693 157.663 31.6693Z" fill="black"/>
<path d="M148.562 23.322C148.562 22.5637 148.56 21.8035 148.562 21.0451C148.562 20.6875 148.697 20.5639 149.084 20.5639C150.759 20.562 152.434 20.562 154.111 20.5639C154.485 20.5639 154.624 20.6875 154.624 21.0301C154.626 22.5712 154.626 24.1141 154.624 25.6551C154.624 25.9791 154.477 26.1139 154.127 26.1139C152.434 26.1157 150.743 26.1157 149.049 26.1139C148.712 26.1139 148.564 25.9772 148.562 25.6701C148.56 24.8874 148.562 24.1047 148.562 23.322Z" fill="black"/>
<path d="M139.445 28.9017C139.445 29.6675 139.447 30.4352 139.445 31.2011C139.445 31.5456 139.31 31.6673 138.936 31.6673C137.261 31.6692 135.586 31.6692 133.911 31.6673C133.518 31.6673 133.383 31.5456 133.383 31.1898C133.381 29.6638 133.381 28.1377 133.383 26.6136C133.383 26.2428 133.518 26.1211 133.923 26.1211C135.59 26.1211 137.257 26.1211 138.922 26.1211C139.312 26.1211 139.445 26.2409 139.445 26.6004C139.445 27.3682 139.445 28.1359 139.445 28.9017Z" fill="black"/>
<path d="M145.51 31.6706C144.681 31.6706 143.853 31.6706 143.023 31.6706C142.626 31.6706 142.499 31.5564 142.499 31.195C142.499 29.6614 142.499 28.1279 142.499 26.5944C142.499 26.2498 142.632 26.1225 143.004 26.1225C144.687 26.1206 146.371 26.1206 148.054 26.1225C148.414 26.1225 148.555 26.2498 148.555 26.5756C148.557 28.1167 148.557 29.6577 148.555 31.1987C148.555 31.5433 148.42 31.6687 148.048 31.6687C147.201 31.6725 146.356 31.6706 145.51 31.6706Z" fill="black"/>
<path d="M108.825 37.3828C110.672 37.3828 112.513 37.3828 114.372 37.3828C114.372 37.967 114.372 38.5419 114.372 39.1542C113.294 39.1542 112.216 39.1542 111.12 39.1542C111.12 39.4051 111.12 39.6204 111.12 39.8582C111.216 39.8638 111.306 39.8713 111.398 39.8713C112.116 39.8732 112.834 39.8769 113.552 39.8694C113.738 39.8676 113.809 39.9106 113.803 40.0923C113.789 40.5154 113.789 40.9386 113.803 41.3599C113.811 41.5621 113.756 41.6314 113.521 41.6277C112.83 41.6127 112.136 41.6221 111.443 41.6221C111.343 41.6221 111.241 41.6221 111.104 41.6221C111.104 41.8542 111.089 42.064 111.114 42.2681C111.12 42.3111 111.259 42.3729 111.339 42.3748C112.245 42.3823 113.151 42.3785 114.057 42.3785C114.157 42.3785 114.257 42.3785 114.372 42.3785C114.372 42.9833 114.372 43.5582 114.372 44.1517C112.525 44.1517 110.684 44.1517 108.825 44.1517C108.825 41.8973 108.825 39.6485 108.825 37.3828Z" fill="black"/>
<path d="M147.694 37.3828C149.559 37.3828 151.402 37.3828 153.253 37.3828C153.253 37.9764 153.253 38.5512 153.253 39.1523C152.169 39.1523 151.095 39.1523 150.001 39.1523C150.001 39.3995 150.001 39.6204 150.001 39.8713C150.885 39.8713 151.76 39.8713 152.652 39.8713C152.652 40.4611 152.652 41.021 152.652 41.6089C151.774 41.6089 150.899 41.6089 150.003 41.6089C150.003 41.873 150.003 42.1089 150.003 42.3729C151.083 42.3729 152.155 42.3729 153.247 42.3729C153.247 42.974 153.247 43.5488 153.247 44.1499C153.161 44.1555 153.071 44.1649 152.981 44.1667C151.298 44.1667 149.615 44.1649 147.931 44.1705C147.754 44.1705 147.674 44.1405 147.676 43.9533C147.682 41.8243 147.68 39.6972 147.68 37.5682C147.68 37.5139 147.688 37.4615 147.694 37.3828Z" fill="black"/>
<path d="M107.68 37.3633C107.371 38.1516 107.08 38.8931 106.79 39.6364C106.226 41.0801 105.659 42.5219 105.103 43.9674C105.043 44.1191 104.97 44.1734 104.794 44.1697C104.144 44.1603 103.495 44.164 102.845 44.1678C102.702 44.1678 102.618 44.1416 102.561 43.9993C101.718 41.8253 100.867 39.6552 100.018 37.4831C100.01 37.4606 100.01 37.4363 100 37.382C100.084 37.3764 100.162 37.3651 100.241 37.3651C100.9 37.3633 101.558 37.3708 102.215 37.3595C102.405 37.3558 102.481 37.4213 102.536 37.5786C102.941 38.7395 103.354 39.8986 103.763 41.0595C103.784 41.1175 103.808 41.1756 103.855 41.2973C103.908 41.1737 103.943 41.1007 103.97 41.0258C104.383 39.8742 104.8 38.7245 105.205 37.5711C105.264 37.4045 105.35 37.3577 105.532 37.3595C106.232 37.3689 106.931 37.3633 107.68 37.3633Z" fill="black"/>
<path d="M126.093 39.1616C125.488 39.1616 124.928 39.1616 124.365 39.1616C123.999 39.1616 123.999 39.1616 123.999 38.8171C123.999 38.3415 123.999 37.8678 123.999 37.3828C126.185 37.3828 128.341 37.3828 130.529 37.3828C130.529 37.9445 130.533 38.4894 130.519 39.0343C130.517 39.0774 130.384 39.1542 130.31 39.156C129.773 39.1673 129.235 39.171 128.697 39.1579C128.478 39.1523 128.425 39.2234 128.427 39.4144C128.435 40.9012 128.431 42.386 128.431 43.8728C128.431 43.9645 128.431 44.0544 128.431 44.1574C127.635 44.1574 126.879 44.1574 126.095 44.1574C126.093 42.5002 126.093 40.8543 126.093 39.1616Z" fill="black"/>
</svg>
